<svg width="604" height="338" viewBox="0 0 604 338" fill="none" xmlns="http://www.w3.org/2000/svg">
<g opacity="0.3">
<path opacity="0.3" d="M482.118 8.9502C500.37 8.9502 517.874 16.2006 530.78 29.1065C543.686 42.0123 550.936 59.5164 550.936 77.768V325.299H413.292V77.768C413.292 59.5164 420.542 42.0123 433.448 29.1065C446.354 16.2006 463.858 8.9502 482.11 8.9502H482.118Z" stroke="black" stroke-linecap="round" stroke-linejoin="round"/>
<path opacity="0.3" d="M428.836 324.555V79.9903C428.836 65.8588 434.45 52.3061 444.442 42.3137C454.435 32.3212 467.987 26.7075 482.119 26.7075V26.7075C496.249 26.7098 509.799 32.3245 519.79 42.3167C529.78 52.3089 535.393 65.8603 535.393 79.9903V324.555" stroke="black" stroke-linecap="round" stroke-linejoin="round"/>
<path opacity="0.3" d="M482.119 8.94971V324.927" stroke="black" stroke-linecap="round" stroke-linejoin="round"/>
<path opacity="0.3" d="M414.036 69.8184H550.011" stroke="black" stroke-linecap="round" stroke-linejoin="round"/>
<path opacity="0.3" d="M414.036 112.739H550.011" stroke="black" stroke-linecap="round" stroke-linejoin="round"/>
<path opacity="0.3" d="M414.036 155.659H550.011" stroke="black" stroke-linecap="round" stroke-linejoin="round"/>
<path opacity="0.3" d="M414.036 198.57H550.011" stroke="black" stroke-linecap="round" stroke-linejoin="round"/>
<path opacity="0.3" d="M414.036 241.491H550.011" stroke="black" stroke-linecap="round" stroke-linejoin="round"/>
<path opacity="0.3" d="M414.036 284.411H550.011" stroke="black" stroke-linecap="round" stroke-linejoin="round"/>
<path opacity="0.3" d="M432.219 30.4272L444.545 41.6547" stroke="black" stroke-linecap="round" stroke-linejoin="round"/>
<path opacity="0.3" d="M531.501 30.4272L519.166 41.6547" stroke="black" stroke-linecap="round" stroke-linejoin="round"/>
</g>
<path d="M392.524 149.501C405.568 143.878 417.721 134.796 417.721 134.796C417.721 134.796 408.483 136.881 397.273 139.899C412.107 130.782 425.488 116.908 425.488 116.908C425.488 116.908 414.304 121.458 401.157 127.495C407.74 121.133 413.827 114.277 419.364 106.987C419.364 106.987 403.475 116.069 387.974 126.302C399.02 113.267 407.358 96.0275 407.358 96.0275C407.358 96.0275 393.104 108.016 379.757 120.878C388.753 105.655 394.02 85.4575 394.02 85.4575C394.02 85.4575 383.459 98.6225 373.347 113.024C378.71 96.9185 380.086 78.1484 380.086 78.1484C380.086 78.1484 372.854 91.5815 365.796 106.649C367.863 90.6128 366.281 73.7803 366.281 73.7803C366.281 73.7803 361.618 87.5161 357.259 103.06C356.637 92.5196 355.051 82.0586 352.519 71.8081C352.519 71.8081 349.007 92.5676 347.234 112.133C344.639 93.8651 333.922 72.6039 333.922 72.6039C333.922 72.6039 334.579 86.6079 336.145 102.351C331.828 93.0144 326.693 84.0788 320.8 75.6486C320.8 75.6486 323.672 89.6699 327.72 105.17C321.924 96.4689 315.355 88.3079 308.093 80.7866C308.093 80.7866 315.411 100.24 323.663 117.929C312.228 103.544 292.524 90.7339 292.524 90.7339C292.524 90.7339 301.174 104.089 311.173 117.842C297.947 107.895 281.66 100.828 281.66 100.828C281.66 100.828 292.991 113.232 305.628 125.437C290.569 117.583 272.223 113.249 272.223 113.249C272.223 113.249 285.734 123.629 300.43 133.438C284.142 128.291 265.078 127.262 265.078 127.262C265.078 127.262 276.816 133.317 290.69 139.579C280.878 138.688 271.008 138.624 261.186 139.389C261.186 139.389 279.463 145.66 297.714 150.504C289.613 151.059 281.572 152.289 273.676 154.18C273.676 154.18 279.817 155.244 288.208 156.429C283.264 157.53 278.379 158.881 273.572 160.477C273.572 160.477 291.884 162.06 308.552 162.147C310.342 162.147 312.202 162.147 314.088 162.077C303.353 164.992 292.299 171.523 292.299 171.523C292.299 171.523 306.251 169.931 318.759 167.475C329.51 165.356 342.918 161.005 346.438 159.828V159.967L346.516 159.802H346.654C346.654 159.975 346.654 160.071 346.654 160.071C346.654 160.071 346.654 159.967 346.749 159.768H346.87C346.914 159.906 346.94 160.01 346.957 160.071L347.926 337.037L350.875 336.942L349.915 160.408C356.774 163.868 370.337 170.476 381.4 173.997C396.901 178.919 419.114 177.586 419.114 177.586C419.114 177.586 403.821 171.852 388.398 167.207C403.752 167.674 421.432 163.012 421.432 163.012C421.432 163.012 403.743 160.14 386.997 158.687C402.696 156.403 420.731 147.286 420.731 147.286C420.731 147.286 407.082 147.926 392.524 149.501Z" fill="#B2B2B2"/>
<path d="M349.214 222.15C351.342 208.103 350.079 193.009 350.079 193.009C350.079 193.009 346.965 201.953 343.592 213.068C343.704 195.647 339.008 176.964 339.008 176.964C339.008 176.964 336.958 188.857 335.124 203.216C333.204 194.262 330.601 185.468 327.339 176.912C327.339 176.912 326.621 195.18 327.071 213.725C321.881 197.455 311.657 181.288 311.657 181.288C311.657 181.288 314.295 199.721 318.162 217.851C309.996 202.169 295.672 187.015 295.672 187.015C295.672 187.015 301.277 202.948 308.136 219.175C297.298 206.113 282.092 195.016 282.092 195.016C282.092 195.016 289.669 208.258 298.734 222.211C286.209 211.978 271.055 204.409 271.055 204.409C271.055 204.409 280.241 215.654 291.122 227.556C281.852 222.498 272.138 218.3 262.102 215.014C262.102 215.014 277.871 228.983 293.527 240.816C276.66 233.352 252.942 231.215 252.942 231.215C252.942 231.215 265.182 238.066 279.367 245.055C269.159 243.775 258.857 243.401 248.583 243.939C248.583 243.939 261.999 248.921 277.291 253.679C266.833 254.008 256.425 255.282 246.195 257.484C246.195 257.484 266.574 261.55 285.984 263.911C267.733 266.005 246.455 275.917 246.455 275.917C246.455 275.917 262.344 275.675 279.324 274.421C263.91 280.432 249.292 290.535 249.292 290.535C249.292 290.535 265.822 287.456 282.862 283.183C268.226 291.816 254.845 305.093 254.845 305.093C254.845 305.093 270.769 299.09 286.901 291.833C273.927 302.931 262.967 318.578 262.967 318.578C262.967 318.578 274.299 311.797 286.962 303.346C281.02 311.202 275.748 319.544 271.202 328.283C271.202 328.283 286.192 316.087 299.945 303.199C296.135 310.364 292.929 317.834 290.361 325.532C290.361 325.532 294.504 320.888 299.954 314.392C298.263 319.169 296.819 324.031 295.629 328.958C295.629 328.958 306.649 314.253 315.523 300.154C316.484 298.632 317.444 297.04 318.395 295.414C315.195 306.062 314.892 318.898 314.892 318.898C314.892 318.898 320.947 306.217 325.445 294.307C329.337 284.057 332.728 270.373 333.601 266.748L333.714 266.835L333.619 266.679V266.541L333.852 266.671L333.645 266.428V266.299L333.939 266.385L349.993 274.317L349.284 269.577L335.876 264.015C342.459 260.036 355.217 252.009 364.049 244.475C376.427 233.922 387.04 214.365 387.04 214.365C387.04 214.365 374.065 224.313 362.016 234.969C370.527 222.185 375.925 204.695 375.925 204.695C375.925 204.695 364.127 218.188 354.05 231.639C360.416 217.107 362.198 197.04 362.198 197.04C362.198 197.04 355.581 208.968 349.214 222.15Z" fill="#B2B2B2"/>
<path d="M388.857 253.869C393.97 257.625 399.45 260.853 405.214 263.505C405.214 263.505 401.088 258.929 395.803 253.523C405.707 259.042 417.842 262.216 417.842 262.216C417.842 262.216 411.692 257.32 404.08 251.776C409.791 253.486 415.623 254.759 421.527 255.582C421.527 255.582 411.329 249.441 400.603 243.887C411.519 246.007 423.958 245.254 423.958 245.254C423.958 245.254 412.609 240.981 401.053 237.469C412.557 237.729 425.705 234.277 425.705 234.277C425.705 234.277 414.858 232.487 403.449 231.311C414.296 229.235 425.394 224.045 425.394 224.045C425.394 224.045 415.464 224.218 404.634 225.013C411.24 222.232 417.563 218.823 423.517 214.833C423.517 214.833 414.235 216.563 404.02 219.028C409.813 215.325 415.254 211.098 420.273 206.399C420.273 206.399 407.324 211.018 395.664 216.26C405.179 208.977 413.829 196.115 413.829 196.115C413.829 196.115 406.087 200.95 397.654 206.849C401.585 201.42 405.03 195.654 407.947 189.619C407.947 189.619 400.897 195.717 393.389 202.948C396.498 196.884 399.054 190.553 401.027 184.031C401.027 184.031 392.317 194.411 384.895 204.704C389.419 193.623 390.431 178.382 390.431 178.382C390.431 178.382 385.596 187.525 380.986 197.602C381.803 190.236 381.876 182.805 381.202 175.424C381.202 175.424 377.742 185.804 374.879 196.876C374.541 185.821 371.159 174.023 371.159 174.023C371.159 174.023 369.594 184.991 368.677 196.512C366.411 185.631 360.892 174.473 360.892 174.473C360.892 174.473 361.212 183.062 362.06 192.94C359.443 187.086 356.336 181.463 352.77 176.134C352.77 176.134 355.036 188.511 358.098 200.405C355.203 195.987 351.945 191.818 348.358 187.94C348.358 187.94 349.708 191.755 351.706 196.902C349.521 194.447 347.211 192.105 344.786 189.887C344.786 189.887 349.725 200.785 354.984 210.274C355.546 211.295 356.161 212.342 356.783 213.397C353.055 209.817 348.928 206.677 344.483 204.038C344.483 204.038 349.829 211.451 355.209 217.765C359.353 222.432 363.747 226.871 368.374 231.06H368.296H368.409L368.478 231.129L368.331 231.215H368.538L368.599 231.276L368.461 231.423L352.225 241.258L353.22 242.901L369.205 233.214C369.412 238.213 370 248.005 371.523 255.409C373.668 265.789 381.505 277.968 381.505 277.968C381.505 277.968 379.887 267.458 377.586 257.208C382.214 266.074 390.492 274.62 390.492 274.62C390.492 274.62 386.487 263.669 381.98 253.705C388.277 261.888 399.185 269.205 399.185 269.205C399.185 269.205 394.384 261.637 388.857 253.869Z" fill="#B2B2B2"/>
<path d="M349.214 300.396C346.973 306.329 345.336 312.473 344.327 318.734C344.327 318.734 347.631 313.544 351.42 306.987C348.764 318.007 348.972 330.549 348.972 330.549C348.972 330.549 352.034 323.318 355.33 314.487C355.213 320.447 355.554 326.407 356.35 332.314C356.35 332.314 359.525 320.844 361.99 309.02C362.855 320.109 366.946 331.873 366.946 331.873C366.946 331.873 368.01 319.763 368.252 307.731C371.098 318.881 377.957 330.619 377.957 330.619C377.957 330.619 376.772 319.685 374.835 308.389C379.757 318.275 387.749 327.565 387.749 327.565C387.749 327.565 384.912 318.051 381.244 307.861C385.704 313.454 390.688 318.607 396.131 323.249C396.131 323.249 391.97 314.772 386.841 305.595C391.968 310.177 397.504 314.28 403.379 317.852C403.379 317.852 395.456 306.659 387.282 296.833C396.866 304.072 411.588 308.942 411.588 308.942C411.588 308.942 404.85 302.784 396.883 296.244C403.165 298.569 409.64 300.332 416.233 301.512C416.233 301.512 408.448 296.365 399.478 291.072C406.15 292.42 412.93 293.164 419.736 293.295C419.736 293.295 407.419 287.69 395.517 283.322C407.401 284.697 422.331 281.592 422.331 281.592C422.331 281.592 412.271 279.403 401.286 277.673C408.602 276.479 415.78 274.551 422.711 271.921C422.711 271.921 411.778 271.419 400.343 271.592C410.896 268.297 421.353 261.87 421.353 261.87C421.353 261.87 410.368 263.306 399.063 265.52C408.941 260.408 418.205 252.122 418.205 252.122C418.205 252.122 410.022 254.717 400.732 258.177C405.666 254.08 410.247 249.574 414.425 244.709C414.425 244.709 403.12 250.21 392.48 256.36C395.965 252.384 399.113 248.126 401.891 243.628C401.891 243.628 398.57 245.954 394.107 249.267C395.883 246.488 397.515 243.618 398.994 240.669C398.994 240.669 389.825 248.35 382.101 255.971C381.236 256.793 380.423 257.658 379.575 258.566C382.023 254.012 383.939 249.191 385.284 244.199C385.284 244.199 379.584 251.343 374.947 258.22C371.565 263.467 368.472 268.896 365.683 274.481L365.623 274.404V274.516V274.603L365.493 274.49L365.588 274.672L365.545 274.75L365.372 274.646L351.532 287.621L350.218 289.013L363.85 275.857C359.084 277.405 349.811 280.597 343.09 284.065C333.67 288.909 324.061 299.73 324.061 299.73C324.061 299.73 333.748 295.353 342.978 290.388C335.686 297.23 329.674 307.506 329.674 307.506C329.674 307.506 339.189 300.699 347.536 293.667C341.352 301.936 337.234 314.426 337.234 314.426C337.234 314.426 343.22 307.809 349.214 300.396Z" fill="#B2B2B2"/>
<path d="M69.4285 64.8882V78.7279H65.1036V63.5388C65.1036 61.8137 64.4183 60.1592 63.1984 58.9393C61.9785 57.7195 60.3241 57.0342 58.5989 57.0342V57.0342C57.7451 57.0342 56.8997 57.2025 56.111 57.5295C55.3223 57.8565 54.6058 58.3357 54.0025 58.9399C53.3992 59.544 52.9209 60.2611 52.5949 61.0503C52.269 61.8394 52.1018 62.685 52.1029 63.5388V82.3781H48.1154V72.3703C48.1154 71.7569 47.9946 71.1495 47.7598 70.5828C47.5251 70.0161 47.181 69.5012 46.7473 69.0675C46.3136 68.6337 45.7986 68.2897 45.2319 68.0549C44.6652 67.8202 44.0579 67.6994 43.4445 67.6994V67.6994C42.8315 67.6994 42.2245 67.8203 41.6583 68.0551C41.0921 68.2899 40.5778 68.6341 40.1447 69.068C39.7117 69.5018 39.3684 70.0168 39.1346 70.5834C38.9009 71.1501 38.7811 71.7573 38.7822 72.3703V87.7064C38.7822 88.5024 39.0985 89.2658 39.6613 89.8287C40.2242 90.3916 40.9877 90.7078 41.7837 90.7078H52.0943V102.082H65.069V87.3777H74.0648C75.0374 87.3777 75.9703 86.9913 76.6581 86.3035C77.3459 85.6157 77.7323 84.6828 77.7323 83.7102V83.7102V64.8882C77.7323 63.7825 77.293 62.722 76.5111 61.9401C75.7293 61.1582 74.6688 60.719 73.5631 60.719V60.719C72.4633 60.7281 71.4117 61.1714 70.6373 61.9523C69.8629 62.7332 69.4284 63.7884 69.4285 64.8882V64.8882Z" fill="#77B188"/>
<path d="M70.1555 101.14H47.3027V122.323H70.1555V101.14Z" fill="#B2B2B2"/>
<path d="M71.5043 96.1143H45.9355V102.93H71.5043V96.1143Z" fill="#B2B2B2"/>
<path d="M62.9839 179.844L54.6455 166.515L60.2073 167.069L59.6451 159.284L65.7605 167.069L66.3141 143.169L70.7601 158.73L76.3219 138.723L77.9827 162.06L89.0976 150.392L81.3215 168.729L89.0976 165.953L74.0989 182.63L62.9839 179.844Z" fill="#77B188"/>
<path d="M81.5813 181.661H58.7285V202.844H81.5813V181.661Z" fill="#B2B2B2"/>
<path d="M82.9311 176.635H57.3623V183.451H82.9311V176.635Z" fill="#B2B2B2"/>
<path d="M181.348 179.844L173.019 166.515L178.572 167.069L178.018 159.284L184.134 167.069L184.687 143.169L189.133 158.73L194.686 138.723L196.356 162.06L207.471 150.392L199.695 168.729L207.471 165.953L192.463 182.63L181.348 179.844Z" fill="#77B188"/>
<path d="M199.946 181.661H177.093V202.844H199.946V181.661Z" fill="#B2B2B2"/>
<path d="M201.303 176.635H175.734V183.451H201.303V176.635Z" fill="#B2B2B2"/>
<path d="M123.559 177.068C119.646 177.009 115.744 176.639 111.891 175.961C105.775 174.845 104.659 170.952 107.445 169.845C110.23 168.738 119.667 170.399 119.667 170.399C119.667 170.399 107.445 170.399 105.775 163.176C104.106 155.954 110.221 156.507 111.891 158.177C113.56 159.846 117.997 163.176 117.997 163.176C117.997 163.176 108.552 153.731 108.552 148.169C108.552 142.607 114.667 143.169 116.337 146.508C118.006 149.847 121.898 159.837 121.898 159.837C121.898 159.837 115.783 142.062 123.568 144.839C131.353 147.615 129.675 155.954 129.675 157.614V164.846C129.675 164.846 137.459 149.838 140.236 153.177C143.013 156.516 136.344 162.631 136.344 162.631C136.344 162.631 140.236 148.177 149.682 148.74C159.127 149.302 150.244 155.962 148.574 158.739C146.905 161.515 139.682 167.631 139.682 167.631C139.682 167.631 155.797 160.408 163.573 160.408C171.349 160.408 164.135 169.3 159.689 169.854C155.243 170.407 146.905 171.523 146.905 171.523C146.905 171.523 158.02 176.523 153.574 177.63C149.128 178.737 138.004 176.523 138.004 176.523L123.559 177.068Z" fill="#77B188"/>
<path d="M141.594 181.661H118.741V202.844H141.594V181.661Z" fill="#B2B2B2"/>
<path d="M142.952 176.635H117.383V183.451H142.952V176.635Z" fill="#B2B2B2"/>
<path d="M157.968 74.5069V84.7829H161.177V73.5382C161.177 72.2604 161.685 71.0349 162.588 70.1314C163.492 69.2278 164.717 68.7202 165.995 68.7202V68.7202C167.273 68.7202 168.498 69.2278 169.402 70.1314C170.305 71.0349 170.813 72.2604 170.813 73.5382V87.4903H173.771V80.0861C173.771 79.1684 174.136 78.2884 174.785 77.6395C175.433 76.9907 176.313 76.6261 177.231 76.6261C178.149 76.6261 179.029 76.9907 179.678 77.6395C180.326 78.2884 180.691 79.1684 180.691 80.0861V91.4432C180.691 92.0328 180.457 92.5982 180.04 93.0151C179.623 93.432 179.058 93.6662 178.468 93.6662H170.813V102.082H161.16V91.1751H154.508C153.788 91.1751 153.097 90.8889 152.587 90.3796C152.078 89.8702 151.792 89.1794 151.792 88.459V88.459V74.5069C151.792 73.6879 152.117 72.9025 152.696 72.3234C153.276 71.7443 154.061 71.419 154.88 71.419C155.699 71.419 156.484 71.7443 157.064 72.3234C157.643 72.9025 157.968 73.6879 157.968 74.5069Z" fill="#77B188"/>
<path d="M176.349 101.14H153.496V122.323H176.349V101.14Z" fill="#B2B2B2"/>
<path d="M177.698 96.1143H152.129V102.93H177.698V96.1143Z" fill="#B2B2B2"/>
<path d="M69.7394 235.782V246.032H72.9485V234.788C72.9485 233.51 73.4561 232.284 74.3597 231.381C75.2632 230.477 76.4887 229.97 77.7665 229.97V229.97C78.3987 229.97 79.0248 230.094 79.6089 230.337C80.1929 230.579 80.7235 230.934 81.1702 231.381C81.6169 231.829 81.971 232.36 82.2121 232.945C82.4533 233.529 82.5769 234.155 82.5757 234.788V248.74H85.5426V241.344C85.5426 240.427 85.9071 239.547 86.556 238.898C87.2049 238.249 88.0849 237.884 89.0025 237.884C89.9202 237.884 90.8002 238.249 91.4491 238.898C92.0979 239.547 92.4625 240.427 92.4625 241.344V252.71C92.4625 253.3 92.2282 253.865 91.8114 254.282C91.3945 254.699 90.829 254.933 90.2395 254.933H82.5757V263.332H72.9312V252.451H66.2795C65.9225 252.452 65.5688 252.382 65.2388 252.246C64.9088 252.11 64.6089 251.91 64.3565 251.658C64.104 251.405 63.904 251.105 63.7679 250.775C63.6318 250.445 63.5623 250.092 63.5635 249.735V249.735V235.782C63.5635 234.963 63.8888 234.178 64.4679 233.599C65.047 233.02 65.8325 232.694 66.6515 232.694V232.694C67.4704 232.694 68.2559 233.02 68.835 233.599C69.4141 234.178 69.7394 234.963 69.7394 235.782V235.782Z" fill="#77B188"/>
<path d="M88.1116 262.406H65.2588V283.59H88.1116V262.406Z" fill="#B2B2B2"/>
<path d="M89.4702 257.39H63.9014V264.206H89.4702V257.39Z" fill="#B2B2B2"/>
<path d="M183.052 235.782V246.032H186.261V234.788C186.261 233.51 186.769 232.284 187.672 231.381C188.576 230.477 189.801 229.97 191.079 229.97V229.97C192.357 229.97 193.582 230.477 194.486 231.381C195.389 232.284 195.897 233.51 195.897 234.788V248.74H198.855V241.344C198.855 240.427 199.22 239.547 199.868 238.898C200.517 238.249 201.397 237.884 202.315 237.884C203.233 237.884 204.113 238.249 204.762 238.898C205.41 239.547 205.775 240.427 205.775 241.344V252.71C205.775 253.3 205.541 253.865 205.124 254.282C204.707 254.699 204.142 254.933 203.552 254.933H195.897V263.332H186.261V252.451H179.592C178.872 252.451 178.181 252.164 177.671 251.655C177.162 251.146 176.876 250.455 176.876 249.735V249.735V235.782C176.876 234.963 177.201 234.178 177.78 233.599C178.36 233.02 179.145 232.694 179.964 232.694C180.783 232.694 181.568 233.02 182.147 233.599C182.727 234.178 183.052 234.963 183.052 235.782Z" fill="#77B188"/>
<path d="M201.45 262.406H178.598V283.59H201.45V262.406Z" fill="#B2B2B2"/>
<path d="M202.799 257.39H177.23V264.206H202.799V257.39Z" fill="#B2B2B2"/>
<path d="M124.934 261.965C122.78 258.441 120.096 255.27 116.976 252.563C111.916 248.238 110.463 238.092 110.463 238.092C110.463 238.092 112.634 237.374 116.976 241.707C119.858 244.727 122.301 248.136 124.233 251.836C124.233 251.836 121.344 239.545 121.344 235.203C121.344 230.861 128.558 220.014 128.558 220.014C128.558 220.014 130.721 227.971 130.721 231.587V248.264C130.721 248.264 135.046 239.614 140.85 234.519C146.654 229.425 155.312 227.288 155.312 227.288C155.312 227.288 156.039 235.938 153.141 238.862C150.243 241.785 137.952 251.88 137.952 251.88L154.594 248.99L137.952 259.111C137.952 259.111 134.855 263.168 132.174 262.008C129.492 260.849 124.934 261.965 124.934 261.965Z" fill="#77B188"/>
<path d="M140.91 262.406H118.058V283.59H140.91V262.406Z" fill="#B2B2B2"/>
<path d="M142.259 257.39H116.69V264.206H142.259V257.39Z" fill="#B2B2B2"/>
<path d="M196.355 96.486C196.355 96.486 189.133 90.3793 186.91 88.1563C184.687 85.9333 179.125 79.8179 183.571 82.0409C186.882 83.8169 190.041 85.8623 193.016 88.1563C193.016 88.1563 189.107 76.479 189.107 73.1489C189.107 69.8187 194.66 72.0417 197.436 77.5949C200.213 83.148 201.882 87.0404 201.882 87.0404C201.882 87.0404 196.883 64.8105 201.329 63.686C205.775 62.5615 206.891 78.1311 206.891 78.1311C206.891 78.1311 210.774 50.9016 216.336 57.017C221.898 63.1324 212.444 79.247 212.444 79.247C212.444 79.247 223.559 71.4621 221.336 77.5776C219.113 83.693 212.997 85.916 212.997 85.916C212.997 85.916 229.121 82.0236 224.675 88.139C220.229 94.2544 205.775 99.2539 205.775 99.2539L196.355 96.486Z" fill="#77B188"/>
<path d="M215.748 101.14H192.896V122.323H215.748V101.14Z" fill="#B2B2B2"/>
<path d="M217.107 96.1143H191.538V102.93H217.107V96.1143Z" fill="#B2B2B2"/>
<path d="M107.444 96.486C107.444 96.486 100.213 90.3793 97.9902 88.1563C95.7672 85.9333 90.2054 79.8179 94.6601 82.0409C97.9709 83.8169 101.13 85.8623 104.106 88.1563C104.106 88.1563 100.213 76.479 100.213 73.1489C100.213 69.8187 105.775 72.0417 108.552 77.5949C111.328 83.148 112.989 87.0404 112.989 87.0404C112.989 87.0404 107.989 64.8105 112.435 63.686C116.881 62.5615 117.989 78.1311 117.989 78.1311C117.989 78.1311 121.881 50.9016 127.434 57.017C132.987 63.1324 123.55 79.247 123.55 79.247C123.55 79.247 134.665 71.4621 132.442 77.5776C130.219 83.693 124.104 85.916 124.104 85.916C124.104 85.916 140.219 82.0236 135.773 88.139C131.327 94.2544 116.881 99.2539 116.881 99.2539L107.444 96.486Z" fill="#77B188"/>
<path d="M126.837 101.14H103.984V122.323H126.837V101.14Z" fill="#B2B2B2"/>
<path d="M128.195 96.1143H102.626V102.93H128.195V96.1143Z" fill="#B2B2B2"/>
<path d="M42.9254 336.864V293.312H231.837V336.864H239.016V121.181H35.7461V336.864H42.9254ZM42.9254 131.492H231.837V202.161H42.9254V131.492ZM42.9254 212.428H231.837V283.088H42.9254V212.428Z" fill="#B2B2B2"/>
<path d="M477.482 215.871C477.482 215.871 476.799 210.274 479.298 200.197C480.626 194.6 482.361 189.107 484.488 183.763C486.834 190.219 488.736 196.829 490.18 203.545C491.26 208.96 491.868 214.459 491.996 219.979C491.996 219.979 489.038 230.8 486.313 234.528C483.589 238.256 481.53 236.397 479.713 231.933C477.897 227.47 477.482 215.871 477.482 215.871Z" fill="#77B188" stroke="#263238" stroke-linecap="round" stroke-linejoin="round"/>
<path d="M469.524 227.436C469.524 227.436 468.841 223.707 468.841 215.127C468.841 206.546 471.09 193.104 471.09 193.104C473.731 197.843 475.864 202.848 477.456 208.034C479.731 215.871 483.822 231.172 483.822 231.172C484.878 225.849 486.324 220.61 488.147 215.499C491.105 207.281 498.389 196.469 498.389 196.469V212.904C498.412 218.939 497.668 224.953 496.174 230.8C496.174 230.8 495.491 234.528 486.841 237.513C478.191 240.497 471.09 237.141 469.524 227.436Z" fill="#77B188" stroke="#263238" stroke-linecap="round" stroke-linejoin="round"/>
<path d="M463.15 241.249C463.15 241.249 459.967 237.141 459.967 228.188C460.004 222.439 460.461 216.701 461.333 211.018C461.333 211.018 462.467 211.762 465.658 216.208C468.85 220.654 475.891 232.253 475.891 233.006C475.891 233.758 476.574 229.641 479.299 224.789C482.024 219.936 490.224 208.354 490.224 208.354C490.224 208.354 491.357 218.803 491.357 223.284C491.357 227.764 491.815 234.104 491.815 234.104C491.815 234.104 495.223 225.524 498.865 220.265C501.33 216.815 504.07 213.569 507.056 210.56C507.056 210.56 507.74 213.155 507.506 220.637C507.272 228.119 504.098 241.907 503.181 244.147C502.264 246.387 499.081 250.868 492.94 253.108C486.798 255.348 476.35 256.914 470.883 254.319C465.416 251.724 463.15 241.249 463.15 241.249Z" fill="#77B188" stroke="#263238" stroke-linecap="round" stroke-linejoin="round"/>
<path d="M459.966 255.435C459.966 255.435 458.15 253.195 453.142 243.49C448.133 233.785 445.867 221.45 445.867 221.45C445.867 221.45 448.592 221.822 453.142 226.303C457.691 230.783 471.306 248.325 471.306 248.325C469.813 243.237 469.517 237.873 470.441 232.652C472.033 224.434 474.083 221.078 474.083 221.078C474.083 221.078 478.857 228.171 480.449 233.767C482.041 239.364 483.857 247.607 483.857 247.607C483.857 247.607 486.132 237.53 489.998 230.446C492.407 226.084 495.392 222.066 498.873 218.5C498.873 218.5 500.923 226.709 499.556 233.802C498.19 240.895 496.823 246.491 496.823 246.491C496.823 246.491 501.831 232.306 505.923 228.949C510.014 225.593 518.897 222.609 518.897 222.609C518.897 222.609 515.265 236.042 512.306 242.011C509.348 247.979 505.023 254.7 505.023 254.7C505.023 254.7 482.257 262.147 459.966 255.435Z" fill="#77B188" stroke="#263238" stroke-linecap="round" stroke-linejoin="round"/>
<path d="M502.679 336.925H463.314L457.406 256.257H508.587L502.679 336.925Z" fill="#263238" stroke="#263238" stroke-linecap="round" stroke-linejoin="round"/>
<path d="M508.18 254.103H457.579C456.208 254.103 455.097 255.214 455.097 256.586V257.745C455.097 259.116 456.208 260.227 457.579 260.227H508.18C509.552 260.227 510.663 259.116 510.663 257.745V256.586C510.663 255.214 509.552 254.103 508.18 254.103Z" fill="#A1A1A1" stroke="#263238" stroke-linecap="round" stroke-linejoin="round"/>
<path d="M401.226 290.588V203.848" stroke="#263238" stroke-linecap="round" stroke-linejoin="round"/>
<path d="M420.299 336.864H382.525L374.429 287.292H428.395L420.299 336.864Z" fill="#263238" stroke="#263238" stroke-linecap="round" stroke-linejoin="round"/>
<path d="M406.511 264.933C406.511 264.933 406.321 254.363 418.621 248.688C430.921 243.014 441.335 252.408 444.855 259.258C447.126 263.753 449.088 268.397 450.729 273.159C450.729 273.159 438.429 262.969 427.27 262.969C420.306 263.003 413.358 263.66 406.511 264.933V264.933Z" fill="#77B188" stroke="#263238" stroke-linecap="round" stroke-linejoin="round"/>
<path d="M415.714 263.367L421.008 255.928" stroke="#263238" stroke-linecap="round" stroke-linejoin="round"/>
<path d="M427.271 262.977L433.732 257.692" stroke="#263238" stroke-linecap="round" stroke-linejoin="round"/>
<path d="M400.3 257.995C400.3 257.995 397.281 247.866 383.804 246.197C370.328 244.527 363.287 256.628 362.007 264.223C361.209 269.194 360.747 274.214 360.623 279.248C360.623 279.248 369.273 265.806 379.929 262.424C386.574 260.342 393.391 258.86 400.3 257.995V257.995Z" fill="#77B188" stroke="#263238" stroke-linecap="round" stroke-linejoin="round"/>
<path d="M391.053 259.293L383.762 253.809" stroke="#263238" stroke-linecap="round" stroke-linejoin="round"/>
<path d="M379.93 262.424L372.171 259.345" stroke="#263238" stroke-linecap="round" stroke-linejoin="round"/>
<path d="M389.444 231.631C389.444 231.631 387.1 223.768 376.651 222.471C366.203 221.173 360.736 230.567 359.741 236.457C359.113 240.315 358.746 244.21 358.643 248.117C358.643 248.117 365.363 237.694 373.615 235.065C378.779 233.451 384.076 232.301 389.444 231.631Z" fill="#77B188" stroke="#263238" stroke-linecap="round" stroke-linejoin="round"/>
<path d="M382.274 232.634L376.617 228.378" stroke="#263238" stroke-linecap="round" stroke-linejoin="round"/>
<path d="M373.641 235.065L367.621 232.677" stroke="#263238" stroke-linecap="round" stroke-linejoin="round"/>
<path d="M410.117 226.726C410.117 226.726 412.461 218.863 422.919 217.566C433.376 216.268 438.834 225.662 439.829 231.561C440.449 235.419 440.807 239.315 440.902 243.221C440.902 243.221 434.181 232.789 425.929 230.16C420.771 228.547 415.48 227.398 410.117 226.726V226.726Z" fill="#77B188" stroke="#263238" stroke-linecap="round" stroke-linejoin="round"/>
<path d="M417.297 227.738L422.954 223.482" stroke="#263238" stroke-linecap="round" stroke-linejoin="round"/>
<path d="M425.93 230.16L431.95 227.773" stroke="#263238" stroke-linecap="round" stroke-linejoin="round"/>
<path d="M404.556 263.955C401.953 262.822 399.06 262.534 396.285 263.133C393.51 263.732 390.993 265.188 389.09 267.294C382.04 274.732 387.913 286.323 392.809 292.378C395.868 296.146 399.137 299.739 402.601 303.138C402.601 303.138 414.347 295.7 418.456 287.283C422.565 278.867 424.511 272.406 419.243 266.723C413.975 261.04 404.556 263.955 404.556 263.955Z" fill="#77B188" stroke="#263238" stroke-linecap="round" stroke-linejoin="round"/>
<path d="M404.556 263.955C404.556 263.955 400.447 286.445 401.624 300.379" stroke="#263238" stroke-linecap="round" stroke-linejoin="round"/>
<path d="M403.379 274.334L407.496 280.995" stroke="#263238" stroke-linecap="round" stroke-linejoin="round"/>
<path d="M402.402 281.973L397.117 290.199" stroke="#263238" stroke-linecap="round" stroke-linejoin="round"/>
<path d="M403.968 268.66L397.117 270.226" stroke="#263238" stroke-linecap="round" stroke-linejoin="round"/>
<path d="M410.117 226.726C410.117 226.726 403.578 228.326 401.623 233.023" stroke="#263238" stroke-linecap="round" stroke-linejoin="round"/>
<path d="M389.444 231.631C389.444 231.631 400.049 233.802 401.225 239.874" stroke="#263238" stroke-linecap="round" stroke-linejoin="round"/>
<path d="M401.425 245.747C401.425 245.747 406.321 236.544 413.171 235.566C420.022 234.589 427.841 240.48 427.841 240.48C427.841 240.48 413.941 248.706 409.045 248.706C406.218 248.742 403.487 247.682 401.425 245.747V245.747Z" fill="#77B188" stroke="#263238" stroke-linecap="round" stroke-linejoin="round"/>
<path d="M401.424 245.747C401.424 245.747 397.1 239.095 389.479 238.308C381.859 237.521 373.624 248.264 373.624 248.264C373.624 248.264 376.556 250.228 384.393 249.839C392.23 249.449 401.424 245.747 401.424 245.747Z" fill="#77B188" stroke="#263238" stroke-linecap="round" stroke-linejoin="round"/>
<path d="M401.026 229.892C401.026 229.892 392.212 221.242 391.823 212.662C391.434 204.081 402.012 190.311 402.012 190.311C402.012 190.311 408.474 207.152 408.863 214.201C409.252 221.251 401.026 229.892 401.026 229.892Z" fill="#77B188" stroke="#263238" stroke-linecap="round" stroke-linejoin="round"/>
<path d="M401.226 222.056L398.095 217.558" stroke="#263238" stroke-linecap="round" stroke-linejoin="round"/>
<path d="M401.623 211.684L403.777 207.956" stroke="#263238" stroke-linecap="round" stroke-linejoin="round"/>
<path d="M79.9204 276.514C79.9204 276.514 79.3236 273.547 81.5033 268.202C82.7217 265.156 84.2492 262.243 86.0618 259.509C88.0532 262.837 89.7105 266.355 91.0095 270.01C91.9429 272.825 92.4758 275.757 92.5924 278.72C92.5924 278.72 89.9974 284.463 87.6447 286.444C85.292 288.425 83.4841 287.439 81.9012 285.06C80.3183 282.682 79.9204 276.514 79.9204 276.514Z" fill="#77B188" stroke="#263238" stroke-linecap="round" stroke-linejoin="round"/>
<path d="M72.9922 282.656C72.5125 280.514 72.3119 278.319 72.3954 276.125C72.3954 271.567 74.3762 264.439 74.3762 264.439C76.5724 266.819 78.4374 269.484 79.9207 272.363C81.9015 276.515 85.4652 284.637 85.4652 284.637C86.4159 281.738 87.6775 278.951 89.2279 276.324C91.8228 271.999 98.1458 266.221 98.1458 266.221V274.932C98.1319 278.204 97.4582 281.44 96.165 284.446C96.165 284.446 95.5682 286.427 88.0428 288.019C80.5175 289.61 74.3762 287.811 72.9922 282.656Z" fill="#77B188" stroke="#263238" stroke-linecap="round" stroke-linejoin="round"/>
<path d="M67.4388 289.991C67.4388 289.991 64.6709 287.811 64.6709 283.071C64.7083 279.999 65.106 276.942 65.8559 273.963C65.8559 273.963 66.8506 274.361 69.6186 276.731C72.3865 279.101 78.5365 285.251 78.5365 285.649C78.5365 286.046 79.1247 283.867 81.5034 281.324C83.8821 278.781 91.0182 272.613 91.0182 272.613C91.5036 275.23 91.8357 277.873 92.0129 280.528C92.0129 282.907 92.4108 286.271 92.4108 286.271C94.1716 283.605 96.229 281.147 98.5435 278.945C100.787 277.037 103.173 275.302 105.68 273.755C105.68 273.755 106.268 275.139 106.069 279.101C105.87 283.062 103.102 290.389 102.306 291.582C101.51 292.776 98.7425 295.146 93.3969 296.331C88.0513 297.516 78.9344 298.312 74.1857 296.928C69.4369 295.544 67.4388 289.991 67.4388 289.991Z" fill="#77B188" stroke="#263238" stroke-linecap="round" stroke-linejoin="round"/>
<path d="M64.6714 297.516C64.6714 297.516 63.0885 296.322 58.729 291.176C55.9308 287.693 53.7831 283.734 52.3887 279.49C52.3887 279.49 54.7674 279.689 58.729 282.085C62.6906 284.481 74.5754 293.771 74.5754 293.771C73.2836 291.193 72.9998 288.226 73.7796 285.45C75.1636 281.125 76.9541 279.308 76.9541 279.308C76.9541 279.308 81.106 283.071 82.4986 286.046C83.8912 289.022 85.4655 293.373 85.4655 293.373C86.7464 290.067 88.5514 286.988 90.8111 284.256C93.0895 281.808 95.6876 279.678 98.5353 277.924C98.5353 277.924 100.317 282.249 99.1322 286.046C97.9471 289.844 96.7535 292.776 96.7535 292.776C96.7535 292.776 101.078 285.251 104.677 283.469C108.275 281.687 115.965 280.104 115.965 280.104C115.965 280.104 112.799 287.231 110.221 290.397C108.236 292.758 106.122 295.007 103.89 297.136C103.89 297.136 84.0815 301.08 64.6714 297.516Z" fill="#77B188" stroke="#263238" stroke-linecap="round" stroke-linejoin="round"/>
<path d="M92.8952 336.864H76.7028C73.4831 336.863 70.3708 335.705 67.9335 333.602C65.4962 331.498 63.8963 328.588 63.4253 325.403L59.2129 297.023H110.394L106.19 325.403C105.717 328.59 104.114 331.501 101.673 333.605C99.2329 335.709 96.1174 336.866 92.8952 336.864V336.864Z" fill="#263238" stroke="#263238" stroke-linecap="round" stroke-linejoin="round"/>
<path d="M109.987 294.869H59.3858C58.0148 294.869 56.9033 295.981 56.9033 297.352V298.511C56.9033 299.882 58.0148 300.993 59.3858 300.993H109.987C111.358 300.993 112.47 299.882 112.47 298.511V297.352C112.47 295.981 111.358 294.869 109.987 294.869Z" fill="#A1A1A1" stroke="#263238" stroke-linecap="round" stroke-linejoin="round"/>
<path d="M246.957 88.9863C246.957 88.9863 251.965 118.569 257.925 130.981C263.884 143.394 265.087 146.966 265.087 146.966C255.506 149.342 245.784 151.107 235.98 152.251C220.713 153.92 215.696 151.299 215.696 151.299L217.651 143.601C217.651 143.601 229.346 147.658 233.636 142.407C237.926 137.157 242.459 118.076 243.151 113.543C243.843 109.011 241.724 89.4534 241.724 89.4534L246.957 88.9863Z" fill="#263238" stroke="#263238" stroke-miterlimit="10"/>
<path d="M219.995 141.24C219.995 141.24 217.4 152.684 217.4 156.265C217.4 159.846 217.824 160.685 219.779 161.991C224.104 164.854 233.376 169.862 241.732 171.056C250.088 172.25 256.29 174.386 257.95 177.258C267.578 193.952 273.702 252.174 273.702 252.174C273.702 252.174 276.798 254.552 286.581 256.222C296.364 257.891 299.461 258.133 299.461 258.133L301.848 273.167C301.848 273.167 293.025 274.36 277.992 275.762C262.959 277.163 253.184 275.762 253.184 275.762L265.346 314.175C268.451 323.95 270.354 336.838 270.354 336.838H145.088C145.088 336.838 159.161 273.141 160.83 265.503C162.5 257.865 162.742 230.904 162.742 230.904L126.949 232.331C126.949 232.331 133.393 193.684 139.595 178.659C145.797 163.634 148.66 166.255 157.76 164.819C166.859 163.384 181.616 160.287 187.584 156.23C193.553 152.173 195.698 130.462 195.698 130.462L219.995 141.24Z" fill="#77B188" stroke="#263238" stroke-linecap="round" stroke-linejoin="round"/>
<path d="M249.993 268.444C248.263 275.58 251.039 280.372 255.632 283.607L253.158 275.822C253.158 275.822 262.933 277.258 277.966 275.822C292.999 274.386 301.822 273.227 301.822 273.227L299.435 258.194C299.435 258.194 296.338 257.96 286.555 256.282C276.772 254.604 273.676 252.234 273.676 252.234C273.676 252.234 255.312 246.101 249.993 268.444Z" fill="#F9CBC6" stroke="#263238" stroke-linecap="round" stroke-linejoin="round"/>
<path d="M265.32 314.201L253.159 275.787C253.159 275.787 251.247 261.948 251.489 259.569C251.732 257.19 258.643 244.06 258.643 234.753C258.643 225.446 250.296 197.559 249.578 195.63C248.92 193.9 237.304 172.838 235.505 169.585C234.692 169.326 233.878 169.04 233.083 168.72L243.852 197.758L186.832 196.564L177.862 160.382C176.487 160.806 175.043 161.247 173.581 161.593C174.783 166.246 183.096 199.09 182.032 203.743C180.838 208.752 162.708 230.938 162.708 230.938C162.708 230.938 162.466 257.9 160.796 265.537C159.127 273.175 145.054 336.872 145.054 336.872H270.329C270.329 336.872 268.426 323.975 265.32 314.201Z" fill="#263238" stroke="#263238" stroke-linecap="round" stroke-linejoin="round"/>
<path d="M217.652 153.566C218.3 148.809 220.039 141.24 220.039 141.24L195.707 130.497C195.097 136.242 194.003 141.925 192.438 147.485L217.652 153.566Z" fill="#F9CBC6" stroke="#263238" stroke-linecap="round" stroke-linejoin="round"/>
<path d="M245.278 89.9727C245.278 89.9727 245.996 101.659 245.996 108.821C245.996 115.983 247.19 122.894 243.851 132.175C240.512 141.456 235.738 147.926 232.875 149.111C230.012 150.296 222.382 149.111 218.559 147.675C214.736 146.24 194.945 134.087 194.945 134.087C194.945 134.087 200.429 99.9718 201.147 97.5845C201.722 95.8946 202.526 94.2911 203.535 92.8184L245.278 89.9727Z" fill="#F9CBC6" stroke="#263238" stroke-linecap="round" stroke-linejoin="round"/>
<path d="M238.126 102.082C238.126 102.082 236.214 105.663 236.456 108.768C236.699 111.874 242.658 118.543 242.658 119.736C242.658 120.93 239.319 123.075 235.263 123.075" stroke="#263238" stroke-linecap="round" stroke-linejoin="round"/>
<path d="M232.642 130.981C232.642 130.981 222.616 130.739 218.084 124.537" stroke="#263238" stroke-linecap="round" stroke-linejoin="round"/>
<path d="M214.987 103.302C214.987 103.302 220.713 99.7295 225.722 100.707" stroke="#263238" stroke-linecap="round" stroke-linejoin="round"/>
<path d="M239.319 100.439C240.266 99.8375 241.381 99.5588 242.499 99.6446C243.617 99.7304 244.678 100.176 245.521 100.915" stroke="#263238" stroke-linecap="round" stroke-linejoin="round"/>
<path d="M225.955 110.732C225.955 112.574 225.047 114.071 223.931 114.071C222.815 114.071 221.907 112.574 221.907 110.732C221.907 108.889 222.815 107.393 223.931 107.393C225.047 107.393 225.955 108.855 225.955 110.732Z" fill="#263238"/>
<path d="M243.012 110.17C243.012 112.047 242.268 113.561 241.334 113.561C240.4 113.561 239.656 112.047 239.656 110.17C239.656 108.293 240.409 106.771 241.334 106.771C242.26 106.771 243.012 108.293 243.012 110.17Z" fill="#263238"/>
<path d="M207.825 93.2856C207.825 93.2856 201.623 130.981 200.671 141.725C200.091 148.076 200.169 154.471 200.905 160.806C200.905 160.806 193.276 156.741 178.727 152.251C164.178 147.762 152.968 140.09 152.968 137.227C152.968 134.364 173.727 94.2804 173.727 94.2804L207.825 93.2856Z" fill="#263238" stroke="#263238" stroke-miterlimit="10"/>
<path d="M185.647 212.333C185.647 212.333 166.323 219.01 158.452 221.155C150.581 223.3 131.015 225.48 126.958 232.4C122.901 239.32 122.633 246.24 122.91 252.208C123.187 258.176 128.394 260.789 132.684 260.079C136.975 259.37 152.968 257.216 167.517 246.958C182.066 236.699 195.196 225.247 195.196 225.247L185.647 212.333Z" fill="#F9CBC6" stroke="#263238" stroke-linecap="round" stroke-linejoin="round"/>
<path d="M243.133 176.064H237.883V184.653H243.133V176.064Z" fill="white" stroke="#263238" stroke-linecap="round" stroke-linejoin="round"/>
<path d="M249.101 178.218H242.899V182.508H249.101V178.218Z" fill="white" stroke="#263238" stroke-linecap="round" stroke-linejoin="round"/>
<path d="M237.883 176.064H228.818V192.049H237.883V176.064Z" fill="white" stroke="#263238" stroke-linecap="round" stroke-linejoin="round"/>
<path d="M233.117 250.262C242.194 250.262 249.552 240.809 249.552 229.148C249.552 217.487 242.194 208.034 233.117 208.034C224.041 208.034 216.683 217.487 216.683 229.148C216.683 240.809 224.041 250.262 233.117 250.262Z" stroke="#263238" stroke-linecap="round" stroke-linejoin="round"/>
<path d="M181.322 210.897C181.479 214.666 182.287 218.379 183.71 221.873C186.088 227.833 193.224 232.366 193.224 232.366L202.532 227.124L214.693 223.543C214.693 223.543 221.371 221.155 222.089 220.948C222.807 220.74 239.743 221.899 243.324 221.424C246.905 220.948 250.244 217.099 249.284 214.979C248.324 212.86 243.8 211.874 243.8 211.874C243.8 211.874 243.082 203.527 242.848 202.576C242.615 201.624 248.09 201.858 248.332 197.083C248.574 192.308 246.187 190.648 246.187 190.648C246.187 190.648 245.945 184.679 242.606 183.252C239.267 181.825 234.968 180.657 225.903 182.292C216.838 183.927 208.249 186.617 201.814 193.986C195.378 201.356 192.083 205.88 192.083 205.88L181.322 210.897Z" fill="white" stroke="#263238" stroke-linecap="round" stroke-linejoin="round"/>
<path d="M243.851 211.848C243.851 211.848 235.504 210.421 230.729 211.615" stroke="#263238" stroke-linecap="round" stroke-linejoin="round"/>
<path d="M242.9 202.55C242.9 202.55 233.835 198.735 228.818 199.955" stroke="#263238" stroke-linecap="round" stroke-linejoin="round"/>
<path d="M246.238 190.622C246.238 190.622 236.724 186.089 227.866 189.186" stroke="#263238" stroke-linecap="round" stroke-linejoin="round"/>
<path d="M307.168 196.564C307.168 196.564 320.956 200.076 327.85 221.008" stroke="#263238" stroke-linecap="round" stroke-linejoin="round"/>
<path d="M325.895 180.043C325.895 180.043 330.219 207.091 329.147 221.917" stroke="#263238" stroke-linecap="round" stroke-linejoin="round"/>
<path d="M348.134 186.85C348.134 186.85 334.476 199.462 331.881 221.181" stroke="#263238" stroke-linecap="round" stroke-linejoin="round"/>
<path d="M321.786 172.492C321.786 172.492 319.07 168.409 316.596 169.317C314.122 170.225 312.513 174.083 313.88 175.9C315.247 177.716 318.412 175.216 318.205 176.349C317.997 177.483 313.664 179.524 315.255 182.024C316.847 184.523 320.021 185.198 320.93 183.382C321.838 181.565 322.512 179.299 322.971 180.657C323.429 182.015 321.604 184.74 323.836 185.423C326.068 186.106 330.418 186.106 330.418 183.832C330.418 181.557 328.602 181.34 329.96 180.657C331.318 179.974 332.91 183.157 334.501 181.34C336.093 179.524 337.226 174.083 334.951 173.4C332.676 172.717 332.685 174.533 331.102 173.175C329.519 171.817 333.368 169.092 329.06 167.509C324.753 165.926 319.978 167.276 321.786 172.492Z" fill="white" stroke="#263238" stroke-linecap="round" stroke-linejoin="round"/>
<path d="M344.665 184.61C344.665 184.61 339.847 183.658 338.731 186.072C337.615 188.485 339.233 192.326 341.482 192.637C343.731 192.948 344.198 188.935 344.838 189.895C345.478 190.855 343.895 195.353 346.784 195.95C349.673 196.547 352.398 194.808 351.749 192.888C351.1 190.968 349.967 188.883 351.256 189.523C352.545 190.163 353.194 193.364 355.278 192.23C357.363 191.097 360.39 188.044 358.781 186.444C357.173 184.843 355.737 185.977 356.186 184.532C356.636 183.088 360.036 184.195 359.863 181.79C359.69 179.385 356.628 174.749 354.552 175.874C352.476 176.998 353.756 178.287 351.671 178.469C349.587 178.65 350.374 173.979 346.213 175.926C342.053 177.872 339.683 182.214 344.665 184.61Z" fill="white" stroke="#263238" stroke-linecap="round" stroke-linejoin="round"/>
<path d="M298.847 194.133C298.847 194.133 294.029 193.191 292.913 195.595C291.797 198 293.423 201.849 295.663 202.16C297.904 202.472 298.379 198.467 299.028 199.427C299.677 200.387 298.085 204.876 300.974 205.482C303.863 206.087 306.579 204.34 305.931 202.42C305.282 200.5 304.157 198.415 305.438 199.055C306.718 199.695 307.375 202.896 309.46 201.771C311.544 200.647 314.572 197.576 312.963 195.984C311.354 194.393 309.918 195.509 310.368 194.064C310.818 192.62 314.217 193.735 314.044 191.322C313.871 188.909 310.818 184.281 308.733 185.414C306.649 186.547 307.937 187.819 305.853 188.009C303.768 188.2 304.555 183.529 300.395 185.466C296.234 187.404 293.864 191.746 298.847 194.133Z" fill="white" stroke="#263238" stroke-linecap="round" stroke-linejoin="round"/>
<path d="M322.928 221.259C322.928 221.259 322.469 219.901 319.07 219.218C317.371 218.816 315.623 218.664 313.88 218.768C313.88 218.768 312.064 217.635 315.013 215.594L317.963 213.552C316.673 212.737 315.163 212.338 313.638 212.411C312.105 212.59 310.589 212.894 309.105 213.319C309.15 211.975 309.549 210.666 310.263 209.527C310.977 208.387 311.981 207.457 313.171 206.831C317.254 204.79 319.537 206.287 319.537 206.287L314.529 201.754C315.156 201.162 315.917 200.73 316.746 200.494C317.576 200.257 318.45 200.224 319.295 200.396C321.483 200.806 323.566 201.653 325.419 202.887C325.419 202.887 318.612 196.08 318.162 195.18C317.712 194.281 322.245 195.405 325.644 197.671C327.609 198.929 329.244 200.641 330.41 202.662C330.41 202.662 330.86 198.804 332.226 196.538C333.321 194.875 334.614 193.35 336.076 191.997C336.076 191.997 335.626 198.355 335.626 200.162C335.626 201.97 337.079 198.77 340.816 197.732C343.36 197.164 346.005 197.22 348.523 197.896C348.523 197.896 343.333 200.162 342.165 201.754C340.997 203.346 339.449 206.079 339.449 206.079C339.449 206.079 339.224 204.721 343.307 205.404C347.389 206.088 352.147 210.387 352.147 210.387C352.147 210.387 345.798 210.162 343.497 211.295C341.903 212.216 340.514 213.452 339.414 214.928C340.053 214.53 340.765 214.265 341.508 214.148C342.25 214.03 343.009 214.063 343.739 214.244C345.409 214.817 347.008 215.577 348.505 216.511C348.505 216.511 342.381 217.419 339.432 218.785C336.482 220.152 335.574 221.735 335.574 221.735L322.928 221.259Z" fill="#77B188" stroke="#263238" stroke-linecap="round" stroke-linejoin="round"/>
<path d="M337.235 259.327H321.043C317.822 259.326 314.709 258.169 312.27 256.065C309.831 253.962 308.229 251.052 307.757 247.866L303.553 219.486H354.725L350.521 247.866C350.048 251.052 348.447 253.962 346.008 256.065C343.569 258.169 340.456 259.326 337.235 259.327V259.327Z" fill="#263238" stroke="#263238" stroke-linecap="round" stroke-linejoin="round"/>
<path d="M354.327 217.332H303.726C302.355 217.332 301.243 218.443 301.243 219.815V220.974C301.243 222.345 302.355 223.456 303.726 223.456H354.327C355.698 223.456 356.809 222.345 356.809 220.974V219.815C356.809 218.443 355.698 217.332 354.327 217.332Z" fill="#A1A1A1" stroke="#263238" stroke-linecap="round" stroke-linejoin="round"/>
<path d="M291.088 255.746C291.088 255.746 287.715 257.657 287.715 265.563C287.715 273.469 296.78 277.016 298.449 277.491C300.119 277.967 317.531 275.346 331.37 272.483C345.21 269.62 350.218 262.467 350.694 258.168C351.17 253.869 348.549 251.014 346.637 253.16C344.726 255.305 344.734 256.256 340.435 258.886C336.136 261.515 335.427 261.749 329.459 261.481C323.49 261.213 310.377 255.521 309.426 252.182C308.474 248.843 306.831 244.302 302.264 248.359C299.49 250.855 297.009 253.658 294.868 256.715L291.088 255.746Z" fill="white" stroke="#263238" stroke-linecap="round" stroke-linejoin="round"/>
<path d="M302.773 241.43C302.773 241.43 298.007 256.939 299.435 258.133C300.862 259.327 303.258 260.996 305.637 261.238C308.015 261.481 309.218 255.27 310.411 250.262C311.605 245.254 313.75 240.747 311.363 237.616C308.975 234.485 303.491 236.422 302.773 241.43Z" fill="white" stroke="#263238" stroke-linecap="round" stroke-linejoin="round"/>
<path d="M312.799 244.536C312.799 244.536 308.267 262.432 309.218 265.295C310.17 268.158 314.944 270.779 317.332 269.62C319.719 268.461 319.927 263.418 321.388 254.829C322.85 246.24 323.534 245.012 319.719 243.074C315.904 241.136 314.226 242.624 312.799 244.536Z" fill="white" stroke="#263238" stroke-linecap="round" stroke-linejoin="round"/>
<path d="M331.898 251.196C328.827 247.952 323.317 249.769 322.478 254.154C321.414 259.716 319.771 269.118 320.428 270.779C321.388 273.167 330.929 275.312 331.405 272.449C331.88 269.585 333.316 258.133 333.316 254.284C333.249 253.113 332.742 252.01 331.898 251.196Z" fill="white" stroke="#263238" stroke-linecap="round" stroke-linejoin="round"/>
<path d="M175.38 94.7126C175.38 94.7126 170.614 71.0987 172.041 67.7598C173.468 64.421 189.22 56.3075 210.455 54.6381C231.69 52.9687 239.561 56.0653 240.513 60.3643C241.464 64.6632 246.957 88.9864 246.957 88.9864L221.423 93.7611L198.285 95.9063L174.186 97.1L175.38 94.7126Z" fill="white" stroke="#263238" stroke-linecap="round" stroke-linejoin="round"/>
<path d="M198.284 95.9061L221.423 93.761L246.957 88.9863C246.957 88.9863 244.803 79.4715 242.961 71.2715C217.348 77.8367 187.169 80.4576 173.001 81.3831C174.048 88.104 175.38 94.7124 175.38 94.7124L174.186 97.0998L198.284 95.9061Z" fill="#77B188" stroke="#263238" stroke-linecap="round" stroke-linejoin="round"/>
<path d="M150.815 94.4791C150.815 94.4791 150.33 97.3422 152.242 97.3422C154.153 97.3422 167.751 100.205 201.148 97.5758C234.545 94.9462 249.811 91.6161 259.594 88.753C269.377 85.8899 272.483 84.2205 271.998 82.0753C271.514 79.9302 274.386 80.6395 271.522 79.9215C268.659 79.2036 265.796 80.8817 263.418 81.5909C262.042 81.9997 260.688 82.479 259.361 83.0268L258.643 79.688H255.78V84.6962L252.199 86.1234L252.675 83.0268L249.811 82.0753L248.384 85.6477L247.666 87.3171L235.98 89.7045V85.3796L232.399 85.1374L231.682 90.1456L226.198 91.1057L220.947 88.5108L218.802 89.9726L221.907 91.642L212.6 92.8357L207.825 93.3114L204.729 87.8188L201.623 88.061L203.535 92.8357L197.809 93.7872L199.236 90.4483L194.704 89.7304L191.841 93.545L178.485 94.7386L182.542 91.3998L181.582 89.0125L173.953 92.5675L173.001 86.8414H168.676L169.394 91.1663L162.293 87.3171L159.43 89.7045L163.011 94.7127L150.815 94.4791Z" fill="white" stroke="#263238" stroke-linecap="round" stroke-linejoin="round"/>
<path d="M29.034 336.864H1" stroke="#263238" stroke-linecap="round" stroke-linejoin="round"/>
<path d="M582.855 336.864H35.7119" stroke="#263238" stroke-linecap="round" stroke-linejoin="round"/>
<path d="M603 336.864H589.515" stroke="#263238" stroke-linecap="round" stroke-linejoin="round"/>
</svg>
