<svg width="633" height="572" viewBox="0 0 633 572" fill="none" xmlns="http://www.w3.org/2000/svg">
<path d="M605.716 300.508C600.443 299.604 590.553 292.647 590.54 292.647C590.527 292.647 597.004 287.361 597.445 287.087C602.665 283.841 614.602 280.719 619.767 285.293C620.604 286.079 621.269 287.035 621.721 288.101C622.174 289.167 622.402 290.318 622.392 291.48C622.382 292.642 622.133 293.788 621.663 294.846C621.192 295.903 620.51 296.848 619.66 297.618C616.141 301.001 610.266 301.289 605.716 300.508Z" fill="#77B188"/>
<path d="M583.233 327.953C578.576 325.734 571.309 317.079 570.734 316.394C565.906 320.649 560.81 324.575 555.478 328.144C552.373 330.24 549.188 332.253 545.977 334.225C547.569 333.54 549.014 332.951 549.215 332.856C555.09 331.144 567.415 331.363 571.202 337.17C571.817 338.149 572.221 339.251 572.388 340.403C572.555 341.554 572.482 342.729 572.172 343.849C571.862 344.969 571.323 346.009 570.59 346.899C569.858 347.79 568.949 348.512 567.924 349.016C563.668 351.33 557.86 350.016 553.725 348.043C549.59 346.071 543.206 338.799 541.547 336.855L537.827 339.183C531.858 342.73 525.89 346.249 520.122 349.879C518.101 351.166 516.107 352.494 514.18 353.823C515.612 353.22 516.857 352.727 517.004 352.672C522.865 350.961 535.19 351.18 538.991 356.986C539.605 357.967 540.009 359.07 540.175 360.222C540.341 361.374 540.266 362.549 539.955 363.669C539.643 364.789 539.103 365.829 538.369 366.719C537.636 367.609 536.725 368.33 535.699 368.833C531.443 371.147 525.649 369.832 521.514 367.86C517.378 365.888 511.597 359.328 509.63 357.027C507.663 358.397 505.696 359.876 503.849 361.341C502.618 362.369 501.36 363.272 500.169 364.382L496.622 367.573C494.441 369.682 492.166 371.846 490.092 373.955C488.633 375.406 487.268 376.831 485.89 378.241C487.897 376.954 491.872 374.489 492.233 374.324C497.773 371.722 509.991 370.024 514.608 375.173C515.352 376.052 515.907 377.081 516.237 378.193C516.567 379.306 516.664 380.477 516.523 381.63C516.381 382.784 516.004 383.894 515.416 384.888C514.828 385.883 514.042 386.74 513.109 387.403C509.242 390.348 503.314 389.937 498.938 388.636C494.12 387.266 485.957 380.104 484.953 379.214C482.678 381.583 480.497 383.897 478.462 386.061C476.678 388.042 474.965 389.95 473.324 391.786L469.751 389.389C471.557 387.417 473.484 385.363 475.558 383.199C477.847 380.788 480.349 378.269 482.946 375.694C480.963 372.81 479.153 369.805 477.526 366.696C472.521 367.984 462.591 366.765 461.32 366.587C460.691 369.846 460.129 373.01 459.633 376.009C459.285 378.077 458.978 380.117 458.683 381.98L454.883 379.433C455.124 378.063 455.378 376.694 455.645 375.324C456.261 372.024 456.984 368.477 457.76 364.902C456.542 364.409 446.572 360.342 443.039 356.685C439.881 353.33 436.75 348.167 437.486 343.278C437.613 342.121 437.98 341.006 438.561 340.005C439.142 339.005 439.923 338.142 440.855 337.474C441.786 336.805 442.845 336.347 443.962 336.13C445.079 335.912 446.229 335.94 447.335 336.211C453.946 337.978 458.201 349.81 458.536 356.041C458.536 356.411 458.349 360.438 458.175 362.957C458.496 361.492 458.79 360.054 459.152 358.548C459.821 355.548 460.584 352.59 461.4 349.399C461.842 347.865 462.283 346.318 462.738 344.757C463.193 343.195 463.782 341.62 464.304 340.032C465.642 336.362 467.074 332.719 468.64 329.076C466.084 328.473 457.024 326.159 453.384 323.324C449.744 320.489 445.89 315.874 445.903 310.998C445.857 309.834 446.054 308.673 446.48 307.592C446.906 306.512 447.552 305.537 448.375 304.731C449.197 303.925 450.178 303.308 451.252 302.92C452.325 302.532 453.467 302.382 454.602 302.48C461.387 303.192 467.342 314.244 468.613 320.283C468.693 320.667 469.108 325.145 469.296 327.624C470.259 325.447 471.209 323.255 472.253 321.092C475.251 314.819 478.489 308.56 481.621 302.302C482.611 300.384 483.561 298.467 484.525 296.55C483.615 296.344 472.788 293.811 468.707 290.661C465.08 287.84 461.213 283.211 461.226 278.335C461.18 277.172 461.377 276.013 461.802 274.933C462.227 273.854 462.872 272.879 463.693 272.074C464.514 271.268 465.493 270.651 466.565 270.262C467.637 269.873 468.778 269.721 469.911 269.817C476.709 270.529 482.665 281.581 483.922 287.689C484.03 288.141 484.632 294.605 484.699 296.249C486.813 292.03 488.887 287.799 490.774 283.54C493.338 277.803 495.533 271.902 497.345 265.873C496.93 265.777 485.622 263.216 481.433 259.97C477.807 257.149 473.939 252.52 473.953 247.645C473.92 246.484 474.125 245.329 474.556 244.254C474.986 243.18 475.632 242.21 476.452 241.407C477.272 240.604 478.247 239.986 479.315 239.594C480.383 239.201 481.519 239.041 482.651 239.126C489.449 239.852 495.391 250.89 496.662 256.93C496.756 257.409 497.399 264.366 497.425 265.626C497.532 265.284 497.68 264.928 497.773 264.585C499.436 258.487 500.564 252.25 501.146 245.946C501.507 242.482 501.668 239.099 501.748 235.881C499.593 235.62 489.704 234.333 485.689 231.84C481.674 229.348 477.445 225.281 476.937 220.364C476.768 219.213 476.839 218.039 477.147 216.919C477.455 215.799 477.991 214.758 478.721 213.866C479.451 212.974 480.358 212.251 481.381 211.745C482.405 211.238 483.522 210.96 484.659 210.928C491.484 210.928 498.59 221.186 500.503 227.116C500.597 227.431 501.306 230.841 501.842 233.32C501.842 231.84 501.842 230.334 501.842 228.923C501.842 223.637 501.453 218.789 501.105 214.516C500.891 212.078 500.65 209.874 500.396 207.819C498.416 206.45 490.48 200.78 488.031 196.713C485.582 192.645 483.668 187.003 485.421 182.401C485.78 181.294 486.366 180.277 487.139 179.419C487.912 178.561 488.854 177.882 489.904 177.426C490.954 176.97 492.086 176.747 493.226 176.774C494.366 176.801 495.487 177.076 496.515 177.58C502.604 180.758 504.264 193.261 503.287 199.424C503.206 199.958 500.958 208.134 500.851 208.066L500.731 207.984C501.012 209.942 501.279 212.092 501.534 214.379C501.975 218.666 502.43 223.514 502.578 228.814C502.796 234.535 502.693 240.265 502.27 245.974C501.813 252.366 500.806 258.704 499.259 264.914C499.251 264.987 499.251 265.06 499.259 265.133C500.316 263.394 503.461 258.642 503.742 258.286C507.756 253.547 518.101 246.754 524.404 249.466C525.445 249.937 526.375 250.629 527.135 251.496C527.894 252.363 528.465 253.385 528.809 254.495C529.153 255.605 529.263 256.777 529.131 257.933C528.999 259.089 528.629 260.204 528.044 261.203C525.742 265.544 520.202 267.708 515.692 268.406C510.607 269.187 499.888 266.065 499.031 265.818C497.301 272.097 495.164 278.25 492.634 284.238C491.176 287.73 489.61 291.209 487.991 294.674C488.954 293.195 489.837 291.935 489.985 291.729C493.999 286.977 504.344 280.212 510.647 282.91C511.688 283.381 512.618 284.072 513.378 284.939C514.137 285.806 514.708 286.829 515.052 287.938C515.396 289.048 515.506 290.22 515.374 291.376C515.242 292.533 514.872 293.647 514.287 294.646C511.985 298.988 506.432 301.151 501.922 301.85C497.412 302.548 488.165 300.083 485.742 299.398C485.1 300.768 484.485 302.042 483.842 303.356C480.778 309.697 477.686 315.997 474.849 322.283C473.846 324.488 472.936 326.706 472.012 328.925C472.882 327.624 473.618 326.528 473.738 326.378C477.753 321.626 488.111 314.86 494.414 317.558C495.455 318.029 496.385 318.721 497.145 319.588C497.904 320.455 498.475 321.477 498.819 322.587C499.163 323.697 499.273 324.869 499.141 326.025C499.009 327.181 498.639 328.296 498.054 329.295C495.752 333.636 490.199 335.8 485.689 336.498C481.179 337.197 472.828 334.965 469.938 334.157C469.068 336.457 468.185 338.758 467.449 341.004C466.967 342.565 466.418 344.031 466.017 345.633C465.615 347.235 465.187 348.756 464.772 350.289C464.09 353.275 463.434 356.356 462.765 359.301C462.337 361.341 461.962 363.286 461.587 365.245C462.551 363.04 464.558 358.739 464.759 358.397C467.761 353.843 471.852 350.152 476.642 347.674C476.952 347.151 477.311 346.66 477.713 346.208C478.444 345.313 479.352 344.587 480.378 344.079C481.403 343.571 482.523 343.292 483.663 343.26C484.802 343.229 485.935 343.447 486.985 343.898C488.036 344.35 488.981 345.025 489.757 345.88C494.321 351.084 491.484 363.355 488.419 368.75C488.245 369.065 485.903 372.298 484.404 374.297C485.461 373.256 486.492 372.229 487.589 371.174C489.771 369.065 492.005 367.066 494.401 364.806L498.014 361.697C499.205 360.643 500.597 359.671 501.882 358.643C504.933 356.315 508.131 354.11 511.397 351.96C509.59 350.002 503.287 342.963 501.775 338.539C500.262 334.116 499.54 328.103 502.216 323.995C502.805 323 503.593 322.144 504.529 321.484C505.465 320.824 506.528 320.375 507.646 320.167C508.764 319.958 509.913 319.995 511.016 320.275C512.12 320.555 513.153 321.071 514.046 321.79C519.332 326.227 518.342 338.799 516.107 344.606C515.96 344.976 513.899 348.947 512.721 351.125C514.702 349.838 516.669 348.564 518.703 347.331C524.592 343.798 530.667 340.402 536.703 336.991C538.549 335.951 540.383 334.882 542.216 333.828C541.574 333.143 533.892 324.94 532.193 319.982C530.694 315.586 529.971 309.546 532.634 305.438C533.223 304.441 534.012 303.583 534.949 302.922C535.886 302.26 536.95 301.811 538.07 301.602C539.19 301.394 540.341 301.431 541.445 301.712C542.55 301.994 543.584 302.512 544.478 303.233C549.764 307.67 548.774 320.242 546.525 326.049C546.365 326.487 543.38 332.226 542.511 333.636C546.525 331.308 550.54 328.952 554.434 326.46C559.657 323.138 564.668 319.479 569.436 315.504C569.142 315.175 561.085 306.657 559.359 301.576C557.847 297.18 557.124 291.14 559.787 287.032C560.376 286.035 561.165 285.177 562.102 284.516C563.039 283.854 564.103 283.404 565.223 283.196C566.343 282.987 567.494 283.025 568.598 283.306C569.703 283.587 570.737 284.106 571.631 284.827C576.917 289.264 575.926 301.836 573.678 307.643C573.504 308.109 570.292 314.271 569.663 315.34C569.944 315.107 570.252 314.888 570.52 314.655C575.195 310.493 579.495 305.91 583.367 300.96C585.548 298.221 587.475 295.578 589.309 292.907C587.649 291.469 580.142 284.854 578.081 280.458C576.02 276.062 574.749 270.337 576.957 265.955C577.441 264.908 578.136 263.978 578.995 263.225C579.855 262.473 580.861 261.915 581.946 261.587C583.032 261.26 584.172 261.172 585.294 261.327C586.415 261.483 587.491 261.879 588.452 262.49C594.18 266.311 594.541 278.924 592.935 284.936C592.855 285.265 591.597 288.497 590.66 290.839C591.463 289.62 592.32 288.374 593.069 287.196C595.893 282.759 598.208 278.527 600.229 274.761C601.366 272.611 602.343 270.652 603.24 268.79C602.33 266.517 598.77 257.313 598.917 252.534C599.065 247.754 600.51 241.975 604.458 239.126C605.358 238.415 606.396 237.907 607.502 237.637C608.608 237.366 609.758 237.34 610.876 237.559C611.993 237.777 613.052 238.237 613.983 238.906C614.913 239.575 615.695 240.439 616.274 241.441C619.633 247.535 614.28 258.888 610.145 263.49C609.797 263.873 603.454 269.434 603.454 269.31V269.173C602.624 270.967 601.714 272.898 600.67 274.966C598.73 278.787 596.495 283.088 593.765 287.607C590.865 292.499 587.688 297.214 584.25 301.727C580.43 306.805 576.175 311.526 571.537 315.833L571.363 315.97C573.183 315.12 578.362 312.943 578.777 312.82C584.652 311.108 596.964 311.313 600.764 317.12C601.37 318.103 601.768 319.206 601.93 320.356C602.093 321.507 602.017 322.679 601.708 323.798C601.399 324.916 600.863 325.956 600.136 326.849C599.408 327.741 598.505 328.468 597.485 328.98C593.163 331.24 587.368 329.911 583.233 327.953Z" fill="#77B188"/>
<path d="M502.738 234.813C502.618 234.813 505.281 226.774 505.509 226.281C508.105 220.638 516.375 211.285 523.16 212.188C524.286 212.361 525.363 212.776 526.32 213.407C527.277 214.038 528.092 214.87 528.711 215.848C529.329 216.826 529.738 217.927 529.909 219.079C530.08 220.23 530.01 221.406 529.704 222.528C528.593 227.335 523.802 230.923 519.64 232.813C514.742 235.1 502.752 234.813 502.738 234.813Z" fill="#77B188"/>
<path d="M554.783 472.108C553.378 469.875 552.562 463.973 552.562 463.973C552.562 463.973 556.576 464.603 556.764 464.671C559.614 465.52 564.619 468.862 564.713 472.258C564.712 472.821 564.596 473.378 564.372 473.892C564.148 474.406 563.821 474.866 563.412 475.243C563.004 475.62 562.522 475.905 562 476.079C561.477 476.254 560.924 476.315 560.377 476.257C558.075 476.134 555.987 473.997 554.783 472.108Z" fill="#77B188"/>
<path d="M537.827 472.874C537.078 470.437 537.72 464.945 537.827 464.507C534.755 464.134 531.71 463.553 528.714 462.767C526.974 462.315 525.221 461.809 523.481 461.288C524.231 461.644 524.913 461.973 525.007 462.042C527.523 463.617 531.497 468.204 530.708 471.491C530.569 472.04 530.319 472.554 529.973 472.997C529.627 473.44 529.193 473.802 528.7 474.061C528.207 474.32 527.665 474.469 527.112 474.498C526.558 474.527 526.005 474.436 525.489 474.23C523.28 473.436 521.849 470.875 521.179 468.752C520.51 466.629 520.952 461.905 521.099 460.617L519.092 460.001C515.893 458.974 512.708 457.933 509.55 457.029C508.439 456.7 507.329 456.427 506.218 456.139C506.9 456.468 507.462 456.742 507.556 456.796C510.085 458.385 514.047 462.959 513.257 466.26C513.113 466.802 512.858 467.308 512.51 467.743C512.162 468.178 511.729 468.534 511.237 468.786C510.746 469.038 510.208 469.181 509.659 469.206C509.11 469.231 508.562 469.137 508.051 468.93C505.843 468.136 504.398 465.575 503.729 463.452C503.06 461.329 503.475 457.029 503.622 455.55C502.484 455.29 501.333 455.043 500.223 454.852C499.46 454.728 498.724 454.564 497.948 454.496L495.673 454.249C494.227 454.139 492.728 454.016 491.31 453.948L488.419 453.825C489.53 454.126 491.698 454.783 491.872 454.852C494.548 456.029 499.192 459.946 498.911 463.329C498.848 463.889 498.67 464.429 498.389 464.913C498.108 465.398 497.731 465.817 497.282 466.142C496.832 466.468 496.321 466.693 495.781 466.803C495.241 466.913 494.684 466.905 494.147 466.78C491.845 466.328 490.052 464.041 489.075 462C487.991 459.768 487.804 454.454 487.737 453.783C486.171 453.783 484.645 453.688 483.2 453.674H479.52L479.119 451.483C480.457 451.483 481.795 451.483 483.133 451.579C484.472 451.674 486.425 451.715 488.178 451.825C488.535 450.153 488.982 448.502 489.517 446.881C487.499 445.154 485.724 443.149 484.244 440.924C482.906 441.759 481.568 442.595 480.403 443.389C479.56 443.937 478.771 444.471 478.008 445.005L477.646 442.773L479.359 441.691C480.698 440.828 482.183 439.938 483.695 439.048C483.468 438.431 481.608 433.46 481.755 430.967C481.889 428.708 482.665 425.873 484.619 424.544C485.066 424.216 485.576 423.987 486.116 423.874C486.655 423.76 487.212 423.764 487.75 423.886C488.288 424.007 488.795 424.243 489.237 424.579C489.68 424.914 490.049 425.341 490.32 425.832C491.872 428.831 489.129 434.254 487.054 436.432C486.934 436.555 485.462 437.801 484.525 438.568L486.385 437.473C487.657 436.733 488.941 436.103 490.32 435.295L492.381 434.268C493.063 433.912 493.826 433.624 494.548 433.296C496.248 432.556 498.015 431.926 499.794 431.282C499.165 430.146 497.011 426.078 496.81 423.819C496.609 421.559 496.957 418.628 498.684 416.971C499.078 416.578 499.548 416.274 500.065 416.08C500.581 415.885 501.132 415.804 501.681 415.841C502.23 415.879 502.765 416.034 503.252 416.297C503.738 416.56 504.165 416.925 504.505 417.368C506.486 420.107 504.572 425.887 502.859 428.324C502.752 428.475 501.32 430.105 500.517 430.981C501.588 430.625 502.658 430.255 503.769 429.927C506.941 428.968 510.192 428.091 513.418 427.188L516.389 426.366C516.161 425.955 513.485 421.175 513.257 418.642C513.056 416.396 513.404 413.465 515.131 411.794C515.524 411.4 515.994 411.096 516.509 410.9C517.025 410.704 517.576 410.622 518.125 410.658C518.674 410.694 519.209 410.848 519.696 411.11C520.183 411.372 520.611 411.736 520.952 412.178C522.933 414.917 521.019 420.696 519.306 423.134C519.172 423.326 517.111 425.667 516.563 426.229C518.73 425.626 520.898 424.996 522.999 424.284C525.843 423.343 528.624 422.213 531.323 420.902C531.216 420.723 528.406 415.738 528.178 413.136C527.964 410.89 528.326 407.96 530.052 406.289C530.445 405.895 530.915 405.59 531.431 405.395C531.947 405.199 532.497 405.116 533.046 405.152C533.595 405.189 534.131 405.343 534.618 405.604C535.105 405.866 535.533 406.23 535.873 406.672C537.854 409.411 535.94 415.204 534.227 417.628C534.093 417.82 531.872 420.367 531.444 420.751L531.925 420.545C534.591 419.146 537.134 417.514 539.527 415.67C540.865 414.657 542.083 413.616 543.247 412.589C542.631 411.712 539.861 407.686 539.393 405.371C538.924 403.057 538.991 400.208 540.53 398.414C540.879 397.977 541.314 397.62 541.806 397.367C542.298 397.114 542.837 396.969 543.388 396.943C543.938 396.918 544.488 397.011 545.001 397.217C545.514 397.423 545.979 397.738 546.365 398.14C548.627 400.633 547.342 406.604 545.897 409.247C545.816 409.398 544.866 410.767 544.157 411.753L545.709 410.384C547.543 408.631 549.122 406.919 550.5 405.385C551.276 404.508 551.972 403.7 552.601 402.933C552.441 401.756 551.812 397.004 552.441 394.716C553.07 392.429 554.395 389.937 556.576 389.074C557.084 388.839 557.636 388.719 558.193 388.72C558.751 388.722 559.302 388.845 559.809 389.083C560.316 389.32 560.767 389.666 561.133 390.097C561.499 390.527 561.77 391.033 561.929 391.58C562.812 394.853 558.998 399.551 556.576 401.167C556.362 401.304 552.762 403.166 552.748 403.098C552.146 403.851 551.491 404.645 550.768 405.495C549.43 407.056 547.864 408.809 546.057 410.603C544.137 412.553 542.104 414.382 539.968 416.081C537.586 418.008 535.042 419.718 532.367 421.189H532.26C533.224 421.011 535.913 420.6 536.114 420.6C539.072 420.491 544.853 422.079 545.977 425.27C546.149 425.805 546.209 426.371 546.153 426.931C546.097 427.491 545.926 428.033 545.653 428.521C545.379 429.009 545.007 429.433 544.563 429.765C544.119 430.097 543.611 430.329 543.073 430.447C540.798 431.022 538.215 429.707 536.502 428.283C534.562 426.681 532.14 421.737 531.939 421.34C529.182 422.768 526.334 424.003 523.414 425.037C521.715 425.654 519.975 426.215 518.235 426.763C519.065 426.626 519.814 426.53 519.921 426.516C522.879 426.421 528.647 427.996 529.771 431.2C529.943 431.735 530.003 432.301 529.947 432.861C529.891 433.421 529.72 433.963 529.446 434.451C529.173 434.939 528.801 435.363 528.357 435.695C527.913 436.027 527.405 436.259 526.867 436.377C524.592 436.952 522.022 435.637 520.296 434.213C518.57 432.789 516.402 428.598 515.853 427.489L513.846 428.091C510.621 429.05 507.409 429.981 504.277 430.995C503.18 431.351 502.11 431.748 501.026 432.145L502.484 431.94C505.442 431.83 511.223 433.419 512.347 436.61C512.519 437.146 512.578 437.712 512.521 438.273C512.465 438.834 512.293 439.376 512.018 439.865C511.743 440.353 511.37 440.777 510.924 441.108C510.478 441.439 509.969 441.67 509.43 441.787C507.168 442.375 504.585 441.047 502.872 439.623C501.159 438.198 499.179 434.419 498.523 433.104C497.426 433.528 496.342 433.967 495.298 434.473C494.602 434.816 493.96 435.09 493.224 435.473L491.189 436.541C489.918 437.267 488.593 438.02 487.376 438.76C486.519 439.267 485.716 439.773 484.913 440.28C485.997 439.91 488.152 439.226 488.339 439.198C490.914 438.799 493.546 439.086 495.98 440.034C496.266 439.968 496.558 439.936 496.85 439.938C497.397 439.925 497.94 440.029 498.445 440.243C498.951 440.457 499.407 440.777 499.784 441.182C500.162 441.586 500.453 442.067 500.639 442.593C500.826 443.119 500.902 443.68 500.865 444.238C500.53 447.607 495.311 450.592 492.421 451.236C492.247 451.236 490.36 451.469 489.155 451.579C489.878 451.579 490.494 451.661 491.297 451.729C492.755 451.825 494.201 451.976 495.753 452.126L498.028 452.441C498.791 452.524 499.58 452.715 500.37 452.852C502.176 453.195 503.996 453.646 505.816 454.14C505.91 452.838 506.298 448.223 507.355 446.21C508.413 444.197 510.273 441.978 512.575 441.609C513.116 441.501 513.674 441.511 514.211 441.639C514.749 441.767 515.254 442.009 515.693 442.35C516.133 442.692 516.497 443.124 516.762 443.619C517.027 444.114 517.187 444.661 517.232 445.224C517.406 448.607 512.695 452.359 509.925 453.441C509.751 453.51 507.69 454.057 506.552 454.331C507.636 454.633 508.734 454.934 509.831 455.29C512.989 456.276 516.174 457.385 519.346 458.481L522.25 459.467C522.25 459.001 522.638 453.496 523.816 451.25C524.86 449.264 526.72 447.018 529.035 446.648C529.576 446.54 530.134 446.551 530.672 446.679C531.209 446.807 531.714 447.049 532.153 447.39C532.593 447.732 532.957 448.164 533.222 448.659C533.487 449.154 533.647 449.701 533.692 450.264C533.866 453.646 529.155 457.413 526.385 458.481C526.184 458.563 523.2 459.344 522.437 459.508C524.579 460.22 526.72 460.877 528.848 461.521C531.728 462.336 534.655 462.963 537.613 463.397C537.613 463.178 537.974 457.44 539.179 455.18C540.223 453.195 542.096 450.949 544.411 450.579C544.952 450.471 545.509 450.481 546.046 450.609C546.582 450.737 547.087 450.98 547.525 451.321C547.964 451.663 548.327 452.095 548.59 452.59C548.854 453.085 549.012 453.632 549.055 454.194C549.229 457.577 544.518 461.329 541.748 462.411C541.534 462.494 538.336 463.343 537.733 463.452C537.894 463.452 538.068 463.521 538.242 463.534C541.223 463.883 544.228 463.961 547.222 463.767C548.881 463.685 550.46 463.507 551.986 463.302C551.986 462.22 551.798 457.303 552.655 455.084C553.511 452.866 555.104 450.538 557.352 449.921C557.879 449.753 558.434 449.7 558.982 449.767C559.53 449.833 560.058 450.017 560.532 450.307C561.005 450.596 561.414 450.985 561.731 451.447C562.048 451.909 562.266 452.435 562.37 452.989C562.906 456.331 558.623 460.604 556 461.987L553.19 463.082L555.251 462.781C557.727 462.357 559.962 461.809 561.942 461.316C563.066 461.028 564.07 460.741 565.02 460.467C565.515 459.385 567.563 455.071 569.276 453.551C570.989 452.03 573.491 450.675 575.78 451.181C576.321 451.282 576.836 451.497 577.291 451.814C577.746 452.132 578.13 452.543 578.419 453.022C578.708 453.502 578.895 454.038 578.969 454.596C579.042 455.154 578.999 455.722 578.844 456.262C577.814 459.494 572.153 461.261 569.129 461.247C568.874 461.247 564.873 460.768 564.9 460.713V460.645C564.003 460.932 563.04 461.234 561.969 461.535C560.002 462.069 557.767 462.658 555.278 463.137C552.626 463.682 549.945 464.066 547.248 464.288C544.221 464.561 541.176 464.561 538.148 464.288H538.041C538.938 464.671 541.4 465.849 541.574 465.958C544.103 467.547 548.065 472.135 547.275 475.422C547.137 475.971 546.886 476.484 546.54 476.927C546.194 477.37 545.76 477.733 545.267 477.992C544.774 478.251 544.233 478.399 543.679 478.429C543.126 478.458 542.572 478.366 542.056 478.161C539.942 477.586 538.496 475.025 537.827 472.874Z" fill="#77B188"/>
<path d="M543.983 412.876C543.983 412.876 547.637 411.164 547.878 411.082C550.701 410.192 556.683 410.151 558.584 412.931C558.885 413.401 559.087 413.931 559.176 414.487C559.265 415.042 559.24 415.61 559.101 416.155C558.962 416.699 558.714 417.208 558.371 417.648C558.028 418.088 557.599 418.45 557.112 418.71C555.064 419.888 552.24 419.313 550.22 418.409C547.851 417.341 543.997 412.876 543.983 412.876Z" fill="#77B188"/>
<path d="M16.7169 300.508C21.9896 299.605 31.8792 292.62 31.8926 292.62C31.9059 292.62 25.4556 287.361 24.9872 287.142C19.7681 283.896 7.83101 280.774 2.66541 285.348C1.81768 286.127 1.1416 287.081 0.682101 288.148C0.222599 289.215 -0.00980896 290.37 0.000317229 291.535C0.0104434 292.701 0.262872 293.851 0.740832 294.91C1.21879 295.968 1.91134 296.91 2.77247 297.673C6.27866 301.001 12.2204 301.289 16.7169 300.508Z" fill="#77B188"/>
<path d="M39.1995 327.953C43.8566 325.734 51.1099 317.079 51.6853 316.394C56.5159 320.646 61.612 324.571 66.9413 328.145C70.046 330.24 73.231 332.253 76.4427 334.225C74.8369 333.541 73.4049 332.952 73.1908 332.856C67.3293 331.144 55.0042 331.363 51.2036 337.17C50.5894 338.15 50.1858 339.253 50.0197 340.405C49.8536 341.557 49.9286 342.732 50.2399 343.852C50.5512 344.973 51.0916 346.012 51.8253 346.902C52.559 347.793 53.4692 348.513 54.4956 349.016C58.7512 351.33 64.5592 350.016 68.681 348.044C72.8027 346.072 79.2129 338.799 80.8723 336.855L84.606 339.183C90.5746 342.73 96.5431 346.25 102.298 349.879C104.332 351.166 106.312 352.495 108.239 353.823C106.821 353.22 105.563 352.727 105.429 352.673C99.5675 350.961 87.2423 351.18 83.4417 356.987C82.8271 357.966 82.4229 359.068 82.2558 360.22C82.0887 361.371 82.1626 362.546 82.4726 363.666C82.7826 364.786 83.3216 365.826 84.0539 366.716C84.7862 367.607 85.6951 368.329 86.7204 368.833C90.9894 371.147 96.784 369.833 100.919 367.86C105.054 365.888 110.822 359.328 112.803 357.028C114.77 358.397 116.737 359.876 118.584 361.342C119.815 362.369 121.073 363.273 122.264 364.382L125.81 367.573C127.992 369.682 130.253 371.846 132.341 373.955C133.8 375.406 135.165 376.831 136.543 378.241C134.536 376.954 130.548 374.489 130.2 374.325C124.66 371.722 112.441 370.024 107.824 375.174C107.07 376.048 106.507 377.076 106.171 378.19C105.835 379.304 105.735 380.478 105.877 381.635C106.018 382.791 106.399 383.904 106.993 384.899C107.588 385.893 108.382 386.747 109.323 387.403C113.191 390.348 119.119 389.937 123.495 388.636C128.313 387.266 136.463 380.104 137.48 379.214C139.755 381.583 141.936 383.897 143.97 386.061C145.79 388.047 147.49 389.951 149.109 391.786L152.696 389.389C150.876 387.417 148.962 385.363 146.888 383.199C144.599 380.789 142.097 378.269 139.501 375.694C141.46 372.808 143.248 369.803 144.854 366.696C149.859 367.984 159.775 366.765 161.06 366.587C161.675 369.846 162.251 373.01 162.746 376.009C163.094 378.077 163.402 380.118 163.696 381.98L167.497 379.433C167.242 378.063 167.001 376.694 166.734 375.324C166.118 372.024 165.396 368.477 164.619 364.902C165.837 364.409 175.807 360.342 179.34 356.685C182.512 353.33 185.643 348.167 184.907 343.278C184.779 342.121 184.413 341.006 183.832 340.005C183.251 339.005 182.469 338.142 181.538 337.474C180.607 336.806 179.548 336.348 178.43 336.13C177.313 335.912 176.164 335.94 175.058 336.211C168.447 337.978 164.191 349.81 163.843 356.042C163.843 356.411 164.044 360.438 164.218 362.958C163.897 361.492 163.589 360.054 163.241 358.548C162.572 355.549 161.809 352.59 160.993 349.399C160.551 347.866 160.109 346.318 159.654 344.757C159.199 343.196 158.597 341.621 158.075 340.032C156.737 336.362 155.319 332.719 153.739 329.076C156.309 328.473 165.355 326.159 169.009 323.324C172.662 320.489 176.49 315.874 176.49 310.998C176.535 309.834 176.339 308.673 175.912 307.593C175.486 306.512 174.841 305.537 174.018 304.731C173.195 303.926 172.215 303.308 171.141 302.92C170.067 302.532 168.926 302.382 167.791 302.48C160.993 303.192 155.051 314.244 153.78 320.284C153.699 320.667 153.284 325.145 153.097 327.624C152.134 325.447 151.183 323.256 150.14 321.092C147.142 314.819 143.903 308.561 140.772 302.302C139.795 300.385 138.845 298.467 137.881 296.55C138.791 296.345 149.618 293.811 153.699 290.661C157.326 287.84 161.193 283.211 161.18 278.336C161.226 277.171 161.029 276.01 160.603 274.93C160.177 273.849 159.531 272.874 158.708 272.068C157.886 271.263 156.905 270.645 155.832 270.257C154.758 269.869 153.616 269.719 152.482 269.817C145.683 270.529 139.741 281.581 138.47 287.689C138.376 288.141 137.774 294.605 137.707 296.249C135.58 292.031 133.505 287.799 131.632 283.54C129.069 277.801 126.87 271.9 125.048 265.873C125.476 265.777 136.784 263.216 140.973 259.97C144.599 257.149 148.453 252.52 148.453 247.645C148.486 246.484 148.281 245.329 147.85 244.255C147.42 243.18 146.774 242.21 145.954 241.407C145.134 240.605 144.159 239.987 143.091 239.594C142.023 239.201 140.887 239.042 139.755 239.126C132.957 239.852 127.015 250.891 125.743 256.93C125.65 257.409 124.994 264.367 124.967 265.627C124.874 265.284 124.726 264.928 124.619 264.586C122.967 258.486 121.843 252.249 121.26 245.947C120.899 242.482 120.738 239.099 120.658 235.881C122.813 235.621 132.702 234.333 136.717 231.841C140.732 229.348 144.961 225.281 145.483 220.364C145.652 219.214 145.58 218.039 145.272 216.919C144.965 215.799 144.428 214.759 143.698 213.867C142.968 212.975 142.062 212.251 141.038 211.745C140.014 211.238 138.897 210.96 137.761 210.928C130.922 210.928 123.83 221.186 121.916 227.116C121.809 227.431 121.113 230.841 120.578 233.32C120.578 231.841 120.578 230.334 120.578 228.924C120.578 223.637 120.966 218.789 121.314 214.516C121.528 212.079 121.769 209.874 122.01 207.819C124.004 206.45 131.926 200.78 134.389 196.713C136.851 192.645 138.738 187.003 137.065 182.401C136.709 181.274 136.12 180.238 135.336 179.366C134.553 178.494 133.595 177.805 132.527 177.347C131.459 176.889 130.307 176.673 129.15 176.713C127.993 176.754 126.859 177.049 125.824 177.581C119.735 180.758 118.075 193.262 119.052 199.424C119.133 199.958 121.381 208.134 121.488 208.066L121.608 207.984C121.327 209.942 121.06 212.092 120.805 214.379C120.364 218.666 119.909 223.514 119.762 228.814C119.543 234.535 119.646 240.265 120.069 245.974C120.544 252.355 121.574 258.68 123.147 264.873C123.147 264.873 123.147 265.01 123.147 265.092C122.077 263.353 118.945 258.601 118.664 258.245C114.649 253.506 104.305 246.714 97.9884 249.425C96.948 249.896 96.0172 250.588 95.2578 251.455C94.4984 252.322 93.9278 253.344 93.5836 254.454C93.2394 255.564 93.1296 256.736 93.2615 257.892C93.3933 259.049 93.7638 260.163 94.3484 261.162C96.6502 265.503 102.204 267.667 106.714 268.366C111.799 269.146 122.518 266.024 123.361 265.777C125.116 272.067 127.28 278.23 129.838 284.224C131.284 287.717 132.863 291.195 134.482 294.66C133.505 293.181 132.635 291.921 132.488 291.716C128.473 286.963 118.129 280.198 111.826 282.896C110.785 283.367 109.855 284.059 109.095 284.926C108.336 285.793 107.765 286.815 107.421 287.925C107.077 289.035 106.967 290.206 107.099 291.363C107.231 292.519 107.601 293.634 108.186 294.633C110.488 298.974 116.041 301.138 120.538 301.836C125.034 302.535 134.308 300.07 136.73 299.385C137.359 300.754 137.988 302.028 138.631 303.343C141.695 309.684 144.787 315.983 147.624 322.269C148.627 324.474 149.537 326.693 150.447 328.912C149.591 327.611 148.855 326.515 148.721 326.364C144.706 321.612 134.362 314.847 128.059 317.545C127.018 318.016 126.087 318.708 125.328 319.575C124.569 320.442 123.998 321.464 123.654 322.573C123.31 323.683 123.2 324.855 123.332 326.012C123.464 327.168 123.834 328.283 124.419 329.281C126.72 333.623 132.274 335.787 136.784 336.485C141.294 337.183 149.644 334.951 152.535 334.143C153.405 336.444 154.275 338.745 155.024 340.991C155.493 342.552 156.055 344.017 156.443 345.62C156.831 347.222 157.286 348.742 157.701 350.276C158.383 353.261 159.039 356.343 159.708 359.287C160.136 361.328 160.511 363.273 160.886 365.231C159.909 363.026 157.915 358.726 157.714 358.383C154.708 353.833 150.618 350.142 145.83 347.66C145.516 347.141 145.158 346.65 144.76 346.195C144.029 345.299 143.121 344.574 142.095 344.065C141.069 343.557 139.95 343.278 138.81 343.247C137.671 343.216 136.538 343.433 135.487 343.885C134.437 344.337 133.492 345.012 132.716 345.866C128.152 351.07 130.989 363.341 134.054 368.737C134.241 369.052 136.583 372.284 138.069 374.283C136.998 373.243 135.981 372.216 134.87 371.161C132.702 369.052 130.467 367.052 128.072 364.793L124.486 361.698C123.308 360.643 121.916 359.671 120.631 358.644C117.58 356.315 114.382 354.111 111.103 351.96C112.91 350.002 119.226 342.963 120.738 338.539C122.251 334.116 122.973 328.104 120.297 323.995C119.709 322.994 118.918 322.132 117.979 321.468C117.04 320.804 115.973 320.353 114.849 320.144C113.726 319.935 112.572 319.974 111.464 320.258C110.357 320.542 109.321 321.064 108.427 321.79C103.154 326.227 104.144 338.799 106.379 344.606C106.513 344.976 108.587 348.948 109.752 351.125C107.784 349.838 105.817 348.564 103.77 347.332C97.8813 343.798 91.8191 340.402 85.7837 336.992C83.9369 335.951 82.1035 334.883 80.2567 333.828C80.9125 333.143 88.5806 324.94 90.2801 319.982C91.7924 315.586 92.515 309.547 89.8519 305.438C89.256 304.449 88.4635 303.6 87.526 302.945C86.5885 302.29 85.5269 301.844 84.4101 301.636C83.2933 301.428 82.1462 301.463 81.0433 301.738C79.9405 302.013 78.9065 302.523 78.0085 303.233C72.6555 307.67 73.7127 320.243 75.9476 326.049C76.1216 326.488 79.1059 332.226 79.9623 333.636C75.9476 331.308 71.9329 328.953 68.052 326.46C62.8268 323.135 57.8118 319.476 53.0369 315.504C53.3447 315.175 61.3876 306.657 63.1273 301.576C64.6395 297.18 65.3621 291.14 62.699 287.032C62.1073 286.043 61.3194 285.192 60.3862 284.535C59.453 283.877 58.3953 283.427 57.2815 283.214C56.1677 283.001 55.0227 283.03 53.9204 283.298C52.8181 283.567 51.7831 284.069 50.8824 284.772C45.5294 289.209 46.5866 301.782 48.8215 307.588C49.0088 308.054 52.2072 314.217 52.8362 315.285C52.5552 315.052 52.2474 314.833 51.9797 314.6C47.304 310.435 43.0002 305.852 39.1193 300.905C36.9513 298.166 35.0109 295.523 33.1909 292.852C34.8503 291.414 42.3578 284.8 44.4187 280.404C46.4796 276.007 47.7509 270.283 45.5428 265.9C45.0549 264.849 44.3541 263.915 43.4869 263.161C42.6197 262.407 41.6059 261.851 40.5127 261.528C39.4194 261.206 38.2717 261.125 37.1455 261.291C36.0193 261.457 34.9405 261.866 33.9804 262.49C28.2527 266.311 27.8914 278.924 29.4973 284.937C29.5776 285.265 30.8356 288.497 31.7589 290.839C30.956 289.62 30.1129 288.374 29.3635 287.196C26.5398 282.759 24.2247 278.527 22.2039 274.761C21.0664 272.611 20.0895 270.653 19.1929 268.79C20.1029 266.517 23.6626 257.314 23.5154 252.534C23.3682 247.754 21.9095 241.975 17.9751 239.126C17.0749 238.415 16.0372 237.907 14.9307 237.637C13.8243 237.367 12.6744 237.34 11.5571 237.559C10.4399 237.778 9.38081 238.237 8.45009 238.906C7.51937 239.575 6.73823 240.439 6.15842 241.441C2.79944 247.535 8.1524 258.889 12.2742 263.49C12.6355 263.874 18.9654 269.434 18.9654 269.31V269.174C19.7951 270.968 20.7051 272.899 21.7355 274.967C23.6894 278.788 25.9242 283.088 28.6542 287.607C31.5542 292.496 34.7266 297.211 38.1557 301.727C41.9849 306.802 46.2436 311.522 50.8824 315.833L51.0564 315.97C49.2363 315.121 44.0574 312.943 43.6425 312.82C37.7676 311.108 25.4424 311.313 21.6418 317.12C21.0381 318.105 20.6432 319.208 20.4826 320.359C20.3221 321.509 20.3995 322.681 20.7098 323.8C21.0202 324.918 21.5565 325.957 22.2842 326.849C23.0119 327.741 23.9146 328.467 24.9339 328.98C29.2564 331.24 35.0644 329.911 39.1995 327.953Z" fill="#77B188"/>
<path d="M119.694 234.813C119.814 234.813 117.151 226.774 116.924 226.281C114.328 220.638 106.044 211.285 99.2724 212.188C98.1466 212.361 97.0694 212.776 96.1125 213.407C95.1555 214.038 94.3406 214.87 93.7217 215.848C93.1029 216.826 92.6943 217.927 92.523 219.079C92.3518 220.23 92.4218 221.406 92.7284 222.528C93.8258 227.335 98.63 230.923 102.792 232.813C107.69 235.1 119.681 234.813 119.694 234.813Z" fill="#77B188"/>
<path d="M67.6371 472.108C69.0556 469.875 69.8719 463.973 69.8719 463.973C69.8719 463.973 65.8572 464.603 65.6565 464.671C62.8194 465.52 57.8144 468.862 57.7207 472.258C57.7195 472.822 57.8343 473.379 58.0576 473.894C58.2809 474.409 58.6077 474.871 59.0167 475.248C59.4258 475.625 59.9079 475.91 60.4316 476.084C60.9554 476.258 61.5091 476.317 62.0566 476.257C64.3985 476.134 66.446 473.997 67.6371 472.108Z" fill="#77B188"/>
<path d="M84.6064 472.875C85.3558 470.437 84.7135 464.945 84.6064 464.507C87.6784 464.134 90.7228 463.553 93.7198 462.768C95.4595 462.316 97.2126 461.809 98.9523 461.289C98.1895 461.645 97.5204 461.974 97.4268 462.042C94.8975 463.617 90.9363 468.205 91.7259 471.492C91.864 472.041 92.1145 472.554 92.4606 472.997C92.8067 473.44 93.2406 473.803 93.7338 474.062C94.227 474.32 94.7682 474.469 95.3217 474.498C95.8752 474.528 96.4285 474.436 96.945 474.231C99.1531 473.436 100.585 470.875 101.254 468.753C101.923 466.63 101.482 461.905 101.334 460.618L103.342 460.001C106.54 458.974 109.725 457.933 112.883 457.03C113.994 456.701 115.105 456.427 116.202 456.139L114.864 456.797C112.442 458.331 108.427 462.877 109.23 466.178C109.378 466.72 109.635 467.224 109.984 467.658C110.334 468.092 110.769 468.447 111.261 468.698C111.752 468.95 112.29 469.093 112.839 469.119C113.389 469.145 113.937 469.053 114.449 468.848C116.657 468.054 118.103 465.493 118.772 463.37C119.441 461.248 119.026 456.947 118.879 455.468C120.016 455.208 121.154 454.962 122.278 454.77C123.041 454.647 123.777 454.482 124.553 454.414L126.828 454.167C128.273 454.058 129.772 453.934 131.191 453.866L134.068 453.743C132.957 454.044 130.802 454.701 130.628 454.77C127.952 455.948 123.295 459.864 123.589 463.247C123.653 463.807 123.831 464.347 124.111 464.832C124.392 465.316 124.769 465.735 125.219 466.061C125.668 466.386 126.18 466.611 126.72 466.721C127.26 466.831 127.817 466.823 128.353 466.698C130.642 466.246 132.448 463.959 133.425 461.919C134.509 459.686 134.697 454.373 134.764 453.702C136.329 453.702 137.855 453.606 139.3 453.592H142.98L143.221 451.483C141.883 451.483 140.545 451.483 139.207 451.579C137.868 451.675 135.901 451.716 134.161 451.825C133.809 450.152 133.362 448.502 132.823 446.882C134.868 445.159 136.67 443.154 138.176 440.924C139.514 441.76 140.853 442.595 142.017 443.389C142.847 443.937 143.65 444.471 144.412 445.005L144.774 442.773L143.061 441.691C141.722 440.828 140.237 439.938 138.725 439.048C138.952 438.432 140.799 433.46 140.665 430.968C140.531 428.708 139.742 425.873 137.801 424.545C137.354 424.216 136.844 423.988 136.304 423.874C135.765 423.761 135.208 423.765 134.67 423.886C134.132 424.008 133.626 424.244 133.183 424.579C132.74 424.914 132.371 425.341 132.101 425.832C130.548 428.831 133.292 434.255 135.352 436.432C135.486 436.555 136.958 437.802 137.895 438.569L136.035 437.473C134.697 436.733 133.479 436.103 132.101 435.295L130.04 434.268C129.357 433.912 128.594 433.625 127.872 433.296C126.172 432.556 124.406 431.926 122.626 431.283C123.241 430.146 125.409 426.079 125.61 423.819C125.811 421.559 125.463 418.629 123.737 416.971C123.342 416.578 122.872 416.275 122.355 416.08C121.839 415.885 121.288 415.804 120.739 415.842C120.19 415.879 119.655 416.034 119.168 416.297C118.682 416.561 118.255 416.925 117.915 417.369C115.935 420.108 117.915 425.887 119.561 428.325C119.668 428.475 121.1 430.105 121.903 430.982C120.819 430.625 119.749 430.256 118.651 429.927C115.48 428.968 112.228 428.092 108.989 427.188C107.999 426.928 107.022 426.64 106.032 426.366C106.259 425.955 108.936 421.176 109.163 418.642C109.364 416.396 109.016 413.465 107.29 411.795C106.895 411.401 106.424 411.096 105.907 410.9C105.39 410.704 104.839 410.621 104.289 410.657C103.739 410.694 103.202 410.848 102.714 411.11C102.226 411.372 101.797 411.736 101.455 412.178C99.4876 414.917 101.455 420.696 103.114 423.134C103.248 423.326 105.296 425.668 105.858 426.229C103.676 425.627 101.522 424.997 99.4207 424.285C96.5583 423.4 93.7554 422.325 91.03 421.066C91.1236 420.888 93.9339 415.903 94.1748 413.301C94.3756 411.055 94.0276 408.124 92.3013 406.454C91.9069 406.059 91.4359 405.755 90.919 405.559C90.402 405.363 89.8507 405.28 89.3005 405.316C88.7504 405.353 88.2139 405.507 87.7257 405.769C87.2375 406.031 86.8085 406.395 86.4666 406.837C84.4994 409.576 86.4666 415.369 88.126 417.793C88.2598 417.985 90.4813 420.532 90.9095 420.916L90.4278 420.71C87.7523 419.322 85.1961 417.704 82.7864 415.876C81.4482 414.862 80.2304 413.822 79.0661 412.794C79.6951 411.918 82.4652 407.892 82.9202 405.577C83.3752 403.263 83.3351 400.414 81.7961 398.62C81.4476 398.183 81.0129 397.826 80.5205 397.573C80.0281 397.319 79.4891 397.175 78.9385 397.149C78.388 397.123 77.8383 397.217 77.3253 397.423C76.8123 397.629 76.3476 397.944 75.9614 398.346C73.6998 400.839 74.9711 406.81 76.4164 409.453C76.4967 409.603 77.4602 410.973 78.1695 411.959L76.6171 410.59C74.7838 408.837 73.2046 407.125 71.8262 405.591C71.0367 404.714 70.3542 403.906 69.7118 403.139C69.8858 401.962 70.5014 397.209 69.8858 394.922C69.2702 392.635 67.9186 390.143 65.7372 389.28C65.2326 389.055 64.6871 388.942 64.1366 388.948C63.5861 388.954 63.0432 389.08 62.5437 389.317C62.0442 389.554 61.5994 389.896 61.2387 390.322C60.878 390.748 60.6096 391.247 60.4512 391.786C59.568 395.059 63.382 399.757 65.8042 401.373C66.0183 401.51 69.6181 403.372 69.6181 403.304C70.2204 404.057 70.8627 404.851 71.5987 405.7C72.937 407.262 74.4893 409.015 76.296 410.809C78.2237 412.755 80.2613 414.584 82.3983 416.287C84.7809 418.214 87.3244 419.923 89.9995 421.395H90.0932C89.1431 421.217 86.4532 420.806 86.2525 420.806C83.2816 420.696 77.5138 422.285 76.3896 425.476C76.2157 426.011 76.1541 426.577 76.209 427.138C76.2639 427.699 76.4341 428.241 76.7083 428.73C76.9825 429.219 77.3546 429.643 77.8001 429.974C78.2457 430.306 78.7546 430.537 79.2936 430.653C81.5686 431.228 84.1514 429.913 85.8644 428.489C87.8048 426.887 90.227 421.943 90.4278 421.546C93.1845 422.974 96.0326 424.209 98.9523 425.243C100.652 425.86 102.378 426.421 104.131 426.969L102.512 426.832C99.5546 426.736 93.7734 428.311 92.6492 431.516C92.4797 432.051 92.422 432.618 92.4797 433.178C92.5374 433.738 92.7092 434.279 92.9842 434.767C93.2591 435.255 93.631 435.679 94.0758 436.01C94.5207 436.342 95.0285 436.574 95.5666 436.692C97.8282 437.268 100.411 435.953 102.137 434.529C103.864 433.104 106.032 428.914 106.58 427.804L108.588 428.407C111.813 429.365 115.025 430.297 118.156 431.31C119.253 431.666 120.324 432.063 121.395 432.461L119.949 432.255C116.978 432.146 111.211 433.734 110.086 436.925C109.915 437.46 109.855 438.026 109.911 438.586C109.967 439.146 110.137 439.688 110.411 440.176C110.685 440.664 111.056 441.088 111.5 441.42C111.945 441.752 112.453 441.984 112.99 442.102C115.265 442.691 117.848 441.362 119.561 439.938C121.274 438.514 123.241 434.734 123.911 433.419C124.994 433.844 126.092 434.282 127.122 434.789C127.832 435.131 128.461 435.405 129.21 435.789L131.244 436.857C132.582 437.583 133.827 438.336 135.058 439.075C135.901 439.582 136.704 440.089 137.52 440.595C136.423 440.226 134.268 439.541 134.095 439.514C131.515 439.115 128.879 439.402 126.44 440.349C126.159 440.283 125.871 440.251 125.583 440.253C125.037 440.24 124.493 440.344 123.988 440.559C123.483 440.773 123.027 441.092 122.649 441.497C122.271 441.902 121.98 442.382 121.794 442.909C121.608 443.435 121.531 443.995 121.569 444.553C121.89 447.922 127.109 450.908 130.013 451.552C130.173 451.552 132.074 451.784 133.278 451.894C132.556 451.894 131.86 451.976 131.137 452.045C129.678 452.14 128.233 452.291 126.681 452.442L124.406 452.757C123.643 452.839 122.853 453.031 122.064 453.168C120.257 453.51 118.437 453.962 116.617 454.455C116.523 453.154 116.122 448.539 115.078 446.525C114.034 444.512 112.107 442.266 109.765 441.897C109.224 441.789 108.667 441.799 108.131 441.927C107.594 442.055 107.09 442.298 106.652 442.639C106.213 442.98 105.85 443.413 105.586 443.908C105.323 444.403 105.164 444.95 105.122 445.512C104.934 448.895 109.658 452.647 112.415 453.729C112.589 453.798 114.663 454.345 115.801 454.619C114.717 454.921 113.619 455.222 112.522 455.578C109.35 456.564 106.179 457.673 103.007 458.769L100.09 459.755C100.09 459.289 99.7151 453.784 98.5375 451.538C97.4937 449.552 95.6201 447.306 93.305 446.936C92.7641 446.828 92.2071 446.839 91.6705 446.967C91.1338 447.095 90.6297 447.337 90.1912 447.679C89.7526 448.02 89.3896 448.453 89.126 448.948C88.8623 449.443 88.7039 449.99 88.6613 450.552C88.4873 453.935 93.1979 457.701 95.9681 458.769C96.1688 458.851 99.1531 459.632 99.9828 459.796C97.8416 460.508 95.7004 461.166 93.5726 461.809C90.6881 462.624 87.7559 463.251 84.7938 463.685C84.7938 463.466 84.4458 457.728 83.2414 455.468C82.1976 453.483 80.3241 451.237 78.0089 450.867C77.4681 450.759 76.911 450.769 76.3744 450.897C75.8378 451.025 75.3336 451.268 74.8951 451.609C74.4566 451.951 74.0936 452.383 73.8299 452.878C73.5662 453.373 73.4079 453.92 73.3652 454.482C73.1779 457.865 77.9018 461.617 80.6586 462.699C80.8861 462.782 84.0845 463.631 84.6733 463.74L84.1514 463.822C81.1753 464.171 78.1748 464.248 75.1852 464.055C73.5258 463.973 71.9467 463.795 70.4211 463.59C70.4211 462.508 70.6084 457.591 69.752 455.372C68.8955 453.154 67.303 450.826 65.0414 450.209C64.5156 450.043 63.9615 449.992 63.4152 450.06C62.8689 450.127 62.3425 450.312 61.8705 450.601C61.3984 450.891 60.9911 451.278 60.6751 451.739C60.3591 452.2 60.1415 452.724 60.0364 453.277C59.4877 456.619 63.7834 460.892 66.4064 462.275L69.2167 463.37L67.1558 463.069C64.68 462.645 62.4452 462.097 60.4646 461.604C59.3405 461.316 58.3234 461.029 57.3866 460.755C56.8915 459.673 54.844 455.359 53.1177 453.839C51.3913 452.318 48.9156 450.963 46.6272 451.469C46.0856 451.57 45.5707 451.785 45.116 452.102C44.6612 452.42 44.2768 452.831 43.9878 453.31C43.6987 453.79 43.5115 454.326 43.4382 454.884C43.365 455.442 43.4073 456.01 43.5626 456.55C44.5797 459.782 50.2538 461.549 53.2649 461.535C53.5191 461.535 57.5205 461.056 57.5071 461.001V460.933C58.4171 461.22 59.3806 461.522 60.4512 461.823C62.4184 462.357 64.6533 462.946 67.1424 463.425C69.7943 463.971 72.4755 464.355 75.1718 464.576C78.1948 464.849 81.2355 464.849 84.2585 464.576H84.3388C83.4422 464.959 80.9798 466.137 80.8058 466.246C78.2766 467.835 74.3154 472.423 75.0915 475.71C75.2297 476.259 75.4802 476.772 75.8263 477.215C76.1724 477.658 76.6063 478.021 77.0995 478.28C77.5927 478.539 78.1339 478.687 78.6874 478.717C79.2409 478.746 79.7942 478.654 80.3107 478.449C82.492 477.586 83.9373 475.025 84.6064 472.875Z" fill="#77B188"/>
<path d="M78.4375 412.876C78.4375 412.876 74.7975 411.164 74.5566 411.082C71.7195 410.192 65.751 410.151 63.8507 412.931C63.5491 413.401 63.3472 413.931 63.2581 414.487C63.1689 415.042 63.1946 415.61 63.3333 416.155C63.472 416.699 63.7207 417.208 64.0634 417.648C64.406 418.088 64.8351 418.45 65.3228 418.71C67.3569 419.888 70.194 419.313 72.2147 418.409C74.5834 417.341 78.4375 412.876 78.4375 412.876Z" fill="#77B188"/>
<path d="M319.668 350.081C409.02 346.089 478.291 268.726 474.39 177.286C470.489 85.8459 394.892 14.9556 305.54 18.948C216.188 22.9403 146.916 100.304 150.818 191.743C154.719 283.183 230.316 354.074 319.668 350.081Z" stroke="#263238" stroke-linecap="round" stroke-linejoin="round"/>
<path d="M280.082 337.813C288.768 339.755 297.602 340.919 306.485 341.292" stroke="#263238" stroke-linecap="round" stroke-linejoin="round"/>
<path d="M260.222 331.953C264.611 333.596 269.072 335.029 273.604 336.253" stroke="#263238" stroke-linecap="round" stroke-linejoin="round"/>
<path d="M165.14 141.576C154.832 178.723 158.266 218.454 174.785 253.172C191.305 287.89 219.75 315.158 254.682 329.761" stroke="#263238" stroke-linecap="round" stroke-linejoin="round"/>
<path d="M185.749 96.4512C180.213 104.806 175.471 113.684 171.591 122.965" stroke="#263238" stroke-linecap="round" stroke-linejoin="round"/>
<path d="M290.655 110.9L307.169 114.406L312.803 120.377L320.136 121.527L322.465 128.649L320.752 133.469L315.76 135.825L303.502 133.771L303.167 132.237L308.962 128.101L304.961 120.541L293.987 119.007L288.152 113.885L290.655 110.9Z" stroke="#263238" stroke-linecap="round" stroke-linejoin="round"/>
<path d="M423.715 266.819L410.613 264.545L394.809 262.491L383.179 265.134L371.791 265.298L360.376 270.777L353.685 272.694L349.563 273.625L342.684 280.021L335.926 284.759L324.377 280.541L324.672 269.188L317.699 267.955L310.205 269.653L308.332 266.449L307.582 259.368L304.116 256.123L299.031 258.095L298.362 262.272L292.072 264.107L284.939 258.478L280.684 249.768L283.989 237.744L295.03 236.032L298.616 238.045L303.113 237.018L307.997 232.28L313.203 232.704L322.571 243.071L325.113 242.099L322.437 233.43L319.185 229.321L318.355 221.858L330.894 212.559L329.69 197.932L334.615 191.564L337.572 181.635L341.159 180.005L348.546 172.295L348.251 169.131L342.323 170.884L340.543 168.063L336.408 169.008L330.359 171.994L332.286 166.31L344.585 159.463L346.833 155.354L353.926 162.599L358.047 165.338L362.972 162.599L359.626 158.121L350.5 154.149L339.245 145.836L328.445 141.44L319.078 141.947L313.564 138.359L307.234 138.194L306.819 139.906L308.479 151.205L310.821 154.71L310.112 167.762L301.266 163.325V157.682L292.487 155.669L288.191 152.218L287.99 142.179L297.117 131.648L295.873 122.267L291.858 123.636L288.486 120.774L286.117 115.296L283.44 115.501L283.28 121.993L279.265 123.691L274.474 110.681L271.048 109.448L265.294 108.339L259.941 112.776L269.041 118.364L271.958 124.54L256.194 117.254L244.565 109.037L241.567 98.8481L231.142 97.9854L224.718 104.682C223.144 106.228 221.487 107.682 219.754 109.037C216.952 110.447 214.054 111.646 211.082 112.625L211.002 119.473L202.45 121.815L204.123 125.923L218.509 125.074L227.382 131.525L230.299 144.96L228.76 157.806L232.253 170.296L225.816 191.276L229.657 219.817L236.535 235.169L244.069 246.358L249.864 245.838L246.652 240.127L242.638 236.196L238.944 228.253L242.156 226.719L250.413 239.36L256.836 250.795L258.991 260.765L268.037 267.983L282.878 274.68L303.554 275.625L310.807 280.021L316.642 285.143L324.324 287.882L333.076 288.306L341.239 286.047C341.239 286.047 341.707 289.977 342.122 291.894C342.537 293.812 338.696 301.481 338.696 301.481L336.234 310.095L341.078 317.874L350.085 319.449L364.377 329.035L370.132 330.145L371.376 335.91L372.621 338.444C400.761 326.974 425.182 307.635 443.092 282.636L442.678 279.815L448.726 258.697L443.092 256.356L423.715 266.819Z" stroke="#263238" stroke-linecap="round" stroke-linejoin="round"/>
<path d="M429.817 106.271L424.103 99.916L417.023 92.6713L413.009 81.4961L420.008 81.1126L419.553 77.1821L414.588 77.908L418.308 75.0594L422.216 71.348L421.386 67.4997L415.551 62.3777L412.808 54.325C385.077 31.9734 350.971 19.5029 315.679 18.8107C280.386 18.1185 245.838 29.2425 217.291 50.4903L227.301 54.7906L223.514 62.8981L216.823 66.048L218.322 76.5932L215.485 78.4284L212.647 83.4956L214.521 90.3431L221.065 89.6584L219.861 96.7798L226.244 95.3281L234.033 78.6475L233.832 72.2519L244.163 69.102L245.796 63.8979L256.421 60.2687L256.14 53.4211L263.929 51.2436C263.929 51.2436 268.894 46.8885 270.018 46.6283C272.292 46.6234 274.564 46.7836 276.816 47.1077L283.44 50.4356L291.323 48.6415L297.157 42.8896L305.95 41.6844C307.371 42.2478 308.904 42.4544 310.419 42.287C312.293 41.8624 317.338 37.8909 317.338 37.8909L329.717 42.3281L334.976 44.7658L336.22 50.5314L342.015 50.011L343.139 46.1353L348.492 47.3268L348.787 50.4903L338.188 56.119L346.404 63.1172L361.58 67.7188L368.874 74.1281L377.291 73.0188L378.335 68.7459L381.172 67.2942L369.757 61.8162L363.628 62.542L368.164 59.803L362.249 54.325L368.539 52.4898L377.8 55.2289L381.667 64.0074L386.886 68.116L392.681 78.4831L402.263 82.756L405.019 95.424L414.896 99.2312L415.431 103.531V108.79L419.191 115.186L420.69 118.473L427.314 118.172L428.894 110.968L429.817 106.271Z" stroke="#263238" stroke-linecap="round" stroke-linejoin="round"/>
<path d="M426.298 66.4722L426.779 68.6771L426.244 75.2507L428.533 80.3453L432.989 80.9479L434.568 88.2337L429.657 87.3435L433.029 108.338L430.353 117.801L435.706 127.881L441.58 131.373L446.09 152.108L454.468 167.172L462.377 178.265L471.517 178.608L472.855 170.24L473.872 168.98C470.256 130.167 453.426 93.8889 426.324 66.4859L426.298 66.4722Z" stroke="#263238" stroke-linecap="round" stroke-linejoin="round"/>
<path d="M339.112 83.7691L311.919 78.2637L301.132 81.1259L300.089 89.0143L294.495 85.0427L286.666 88.8363L288.66 101.682L296.502 105.147L299.794 96.7384L306.673 101.217L320.55 108.941L325.221 119.568L337.72 130.017L352.895 123.745L351.276 118.075L346.485 112.31L342.39 97.1218L344.732 89.7402L339.112 83.7691Z" stroke="#263238" stroke-linecap="round" stroke-linejoin="round"/>
<path d="M361.206 87.6176L355.238 87.3574L351.276 92.6985L356.322 103.23L361.193 102.121L361.206 87.6176Z" stroke="#263238" stroke-linecap="round" stroke-linejoin="round"/>
<path d="M397.673 86.9882L383.42 82.9756L379.794 78.9629L377.037 80.798L381.333 87.8784L385.749 97.3554L391.878 98.3689L392.668 96.5885L388.051 91.5898L398.636 93.2058L397.673 86.9882Z" stroke="#263238" stroke-linecap="round" stroke-linejoin="round"/>
<path d="M318.195 250.494L317.03 252.384L329.034 253.274L334.708 257.629L342.002 256.78L343.715 251.959L334.749 252.384L318.195 250.494Z" stroke="#263238" stroke-linecap="round" stroke-linejoin="round"/>
<path d="M353.176 250.206L345.789 254.301L347.582 257.122L357.338 254.903L358.556 251.398L355.25 252.548L353.176 250.206Z" stroke="#263238" stroke-linecap="round" stroke-linejoin="round"/>
<path d="M370.614 545.554L367.349 562.646C367.349 562.646 366.947 567.658 368.981 569.315C371.015 570.972 406.452 570.986 406.452 569.315C406.452 567.644 407.268 561.81 406.05 558.482C404.833 555.154 401.969 543.883 401.969 543.883L370.614 545.554Z" fill="white" stroke="#263238" stroke-miterlimit="10"/>
<path d="M367.644 566.823C367.818 567.779 368.287 568.652 368.982 569.315C371.016 570.986 406.452 570.986 406.452 569.315C406.452 568.809 406.533 567.946 406.6 566.823H367.644Z" fill="white" stroke="#263238" stroke-miterlimit="10"/>
<path d="M381.2 545.13C381.2 545.13 377.533 553.059 380.798 554.716C384.064 556.374 393.016 557.209 394.649 554.292C396.282 551.375 392.615 545.116 392.615 545.116L381.2 545.13Z" fill="white" stroke="#263238" stroke-miterlimit="10"/>
<path d="M309.483 541.87L300.932 551.457C300.932 551.457 286.211 565.22 287.081 566.891C287.702 568.227 288.247 569.599 288.714 571H336.382C336.382 571 339.232 568.493 339.232 567.247C339.232 566.001 338.416 549.731 338.416 549.731L309.483 541.87Z" fill="white" stroke="#263238" stroke-miterlimit="10"/>
<path d="M287.282 567.261C288.032 568.905 288.714 570.986 288.714 570.986H336.382C337.504 570.035 338.444 568.879 339.152 567.576L287.282 567.261Z" fill="white" stroke="#263238" stroke-miterlimit="10"/>
<path d="M311.116 545.13L304.599 551.799C301.748 554.73 303.783 558.058 309.484 556.812C315.184 555.566 320.899 547.225 320.899 547.225L311.116 545.13Z" stroke="#263238" stroke-miterlimit="10"/>
<path d="M319.52 367.751C319.52 367.751 310.701 432.118 310.701 439.459C310.701 446.799 317.914 533.654 317.914 533.654L311.504 538.159L311.906 546.376C311.906 546.376 338.336 550.882 340.343 550.882C341.462 550.911 342.568 550.627 343.542 550.06L342.739 538.173C342.739 538.173 345.536 524.656 345.536 521.383C345.536 518.11 342.337 442.294 342.337 442.294L353.15 396.812L356.75 394.361L357.151 443.115L372.769 532.038L370.373 542.281L373.973 548.417C373.973 548.417 383.18 547.609 392.387 547.609C401.594 547.609 405.997 544.322 405.997 544.322L404.405 525.478L390.38 438.61C390.38 438.61 399.199 366.902 399.199 364.861C399.199 362.821 397.192 359.931 397.192 359.931L319.52 367.751Z" fill="#263238" stroke="#263238" stroke-miterlimit="10"/>
<path d="M314.609 237.236L315.947 243.289C315.947 243.289 294.896 257.765 292.929 261.791C290.962 265.818 307.061 308.56 312.655 325.72C318.249 342.88 319.226 351.618 319.226 351.618L317.58 371.804C317.58 371.804 330.413 377.186 349.47 377.529C368.526 377.871 382.35 373.146 387.61 371.804C392.869 370.462 400.43 365.08 400.43 365.08C400.43 365.08 399.774 360.369 394.836 339.511C391.928 327.312 389.623 314.971 387.931 302.534C387.931 302.534 379.393 258.121 374.789 251.725C370.186 245.33 367.55 237.606 362.29 236.25C357.031 234.894 337.974 235.579 337.974 235.579L330.721 224.144L314.609 237.236Z" fill="white" stroke="#263238" stroke-miterlimit="10"/>
<path d="M331.712 261.463C341.548 258.587 342.203 243.741 341.775 235.442C339.473 235.442 337.961 235.538 337.961 235.538L330.721 224.144L314.662 237.263L316.001 243.317C316.001 243.317 313.926 244.686 311.022 246.823C313.418 252.013 320.671 264.681 331.712 261.463Z" fill="#F2C581" stroke="#263238" stroke-miterlimit="10"/>
<path d="M315.934 243.317C316.851 244.449 318.065 245.289 319.433 245.738C320.801 246.186 322.266 246.226 323.655 245.851C328.312 244.481 335.525 223.117 335.525 223.117L315.934 243.317Z" fill="#263238" stroke="#263238" stroke-miterlimit="10"/>
<path d="M295.07 259.245C295.07 259.245 291.39 259.943 289.718 271.57C288.045 283.197 283.682 320.325 285.355 325.817C287.028 331.308 295.766 332.335 299.112 328.556C302.458 324.776 303.809 294.619 303.809 294.619L302.471 287.059" fill="white"/>
<path d="M295.07 259.245C295.07 259.245 291.39 259.943 289.718 271.57C288.045 283.197 283.682 320.325 285.355 325.817C287.028 331.308 295.766 332.335 299.112 328.556C302.458 324.776 303.809 294.619 303.809 294.619L302.471 287.059" stroke="#263238" stroke-miterlimit="10"/>
<path d="M286.693 296.728C285.355 309.656 284.405 322.749 285.355 325.83C287.041 331.308 295.767 332.349 299.112 328.569C301.186 326.241 302.498 313.765 303.194 304.616L286.693 296.728Z" fill="#F2C581" stroke="#263238" stroke-miterlimit="10"/>
<path d="M370.561 269.899C370.561 269.899 391.022 298.043 396.389 301.48C401.755 304.918 414.843 298.741 412.836 290.155C410.828 281.568 374.254 243.112 369.892 238.305C365.529 233.498 351.156 235.566 351.156 235.566" fill="white"/>
<path d="M370.561 269.899C370.561 269.899 391.022 298.043 396.389 301.48C401.755 304.918 414.843 298.741 412.836 290.155C410.828 281.568 374.254 243.112 369.892 238.305C365.529 233.498 351.156 235.566 351.156 235.566" stroke="#263238" stroke-miterlimit="10"/>
<path d="M394.489 265.38L380.196 282.759C386.272 290.661 393.512 299.631 396.389 301.48C401.742 304.918 414.843 298.741 412.836 290.154C411.899 286.183 403.589 275.829 394.489 265.38Z" fill="#F2C581" stroke="#263238" stroke-miterlimit="10"/>
<path d="M343.955 288.874L333.257 294.595L337.453 302.812L348.151 297.091L343.955 288.874Z" fill="white" stroke="#263238" stroke-miterlimit="10"/>
<path d="M367.872 300.837C367.872 300.837 360.498 293.989 353.151 294.661C345.804 295.332 332.69 300.837 331.017 306.986C329.344 313.135 336.37 349.222 346.781 352.646C357.193 356.069 376.303 346.469 379.327 336.513C382.352 326.556 377.266 310.752 367.872 300.837ZM375.594 330.966C373.921 335.773 355.801 311.793 356.135 304.946C356.47 298.098 361.167 302.878 361.167 302.878C369.893 312.122 377.266 326.2 375.594 330.966Z" fill="#77B188" stroke="#263238" stroke-miterlimit="10"/>
<path d="M357.004 321.461C359.775 330.596 357.5 339.443 351.919 341.21C346.339 342.976 339.581 337.005 336.81 327.857C334.04 318.709 336.315 309.861 341.896 308.095C347.476 306.328 354.234 312.313 357.004 321.461Z" fill="white" stroke="#263238" stroke-miterlimit="10"/>
<path d="M402.102 287.059C402.102 287.059 393.377 293.236 392.373 294.961C391.37 296.687 387.342 298.385 387.342 298.385C384.01 297.511 380.753 296.366 377.599 294.961C373.25 292.893 372.246 291.181 370.908 292.222C369.57 293.263 360.202 304.246 360.202 305.917C360.202 307.588 368.927 316.873 369.931 317.586C370.935 318.298 377.639 315.531 379.66 314.504C381.681 313.477 384.357 312.436 384.357 312.436C384.357 312.436 397.111 313.121 404.15 311.409C411.189 309.697 418.242 305.233 418.242 298.358C418.242 291.483 407.843 283.293 407.843 283.293" fill="#F2C581"/>
<path d="M402.102 287.059C402.102 287.059 393.377 293.236 392.373 294.961C391.37 296.687 387.342 298.385 387.342 298.385C384.01 297.511 380.753 296.366 377.599 294.961C373.25 292.893 372.246 291.181 370.908 292.222C369.57 293.263 360.202 304.246 360.202 305.917C360.202 307.588 368.927 316.873 369.931 317.586C370.935 318.298 377.639 315.531 379.66 314.504C381.681 313.477 384.357 312.436 384.357 312.436C384.357 312.436 397.111 313.121 404.15 311.409C411.189 309.697 418.242 305.233 418.242 298.358C418.242 291.483 407.843 283.293 407.843 283.293" stroke="#263238" stroke-miterlimit="10"/>
<path d="M362.839 309.04L372.568 297.701" stroke="#263238" stroke-miterlimit="10"/>
<path d="M365.863 313.148L375.258 302.165" stroke="#263238" stroke-miterlimit="10"/>
<path d="M368.889 315.559L378.283 306.972" stroke="#263238" stroke-miterlimit="10"/>
<path d="M327.815 363.845L328.127 374.796C328.154 375.769 327.803 376.714 327.151 377.422C326.498 378.13 325.597 378.544 324.646 378.572L291.74 379.554C290.743 379.584 289.775 379.207 289.05 378.506C288.324 377.806 287.9 376.839 287.871 375.819L287.572 365.32C287.543 364.299 287.911 363.309 288.595 362.567C289.28 361.824 290.224 361.391 291.221 361.361L324.128 360.379C325.063 360.351 325.971 360.697 326.66 361.345C327.349 361.992 327.763 362.889 327.815 363.845Z" fill="white" stroke="#263238" stroke-miterlimit="10"/>
<path d="M333.428 372.248L333.252 366.074L327.888 366.234L328.064 372.408L333.428 372.248Z" fill="white" stroke="#263238" stroke-miterlimit="10"/>
<path d="M300.491 323.79C300.491 323.79 303.502 327.898 302.726 341.593C302.736 343.654 302.875 345.713 303.14 347.756C305.846 349.92 308.714 351.861 311.719 353.563C315.974 355.85 317.928 355.617 317.941 357.329C317.955 359.041 315.171 373.366 313.846 374.42C312.521 375.475 300.022 374.037 298.871 373.64C297.721 373.243 295.767 366.121 295.338 363.861C295.012 360.599 294.847 357.322 294.843 354.042C291.454 349.907 288.564 345.369 286.238 340.525C283.268 333.76 280.805 325.378 286.131 321.187C286.984 320.588 287.947 320.174 288.962 319.969C289.977 319.764 291.022 319.773 292.033 319.996" fill="#F2C581"/>
<path d="M300.491 323.79C300.491 323.79 303.502 327.898 302.726 341.593C302.736 343.654 302.875 345.713 303.14 347.756C305.846 349.92 308.714 351.861 311.719 353.563C315.974 355.85 317.928 355.617 317.941 357.329C317.955 359.041 315.171 373.366 313.846 374.42C312.521 375.475 300.022 374.037 298.871 373.64C297.721 373.243 295.767 366.121 295.338 363.861C295.012 360.599 294.847 357.322 294.843 354.042C291.454 349.907 288.564 345.369 286.238 340.525C283.268 333.76 280.805 325.378 286.131 321.187C286.984 320.588 287.947 320.174 288.962 319.969C289.977 319.764 291.022 319.773 292.033 319.996" stroke="#263238" stroke-miterlimit="10"/>
<path d="M309.817 374.119L312.668 359.314" stroke="#263238" stroke-miterlimit="10"/>
<path d="M304.787 374.187L307.571 359.862" stroke="#263238" stroke-miterlimit="10"/>
<path d="M301.079 373.201L302.002 360.342" stroke="#263238" stroke-miterlimit="10"/>
<path d="M340.503 187.893C340.503 187.893 344.116 185.565 344.518 192.988C344.919 200.41 337.733 208.723 337.733 208.723C337.382 213.569 336.625 218.376 335.471 223.089C333.665 230.033 325.287 242.509 318.958 242.975C312.628 243.44 298.362 231.882 295.645 225.869C292.929 219.857 294.307 209.189 289.302 202.245C284.297 195.302 294.735 185.565 302.885 180.47C311.035 175.376 324.605 172.609 328.232 173.992C331.858 175.376 340.503 187.893 340.503 187.893Z" fill="#F2C581" stroke="#263238" stroke-miterlimit="10"/>
<path d="M306.299 216.311C305.963 216.966 305.788 217.694 305.788 218.433C305.788 219.173 305.963 219.901 306.299 220.556C307.409 223.09 311.277 222.241 312.106 220.268" stroke="#263238" stroke-miterlimit="10"/>
<path d="M307.409 225.924C307.409 225.924 317.914 226.212 322.063 218.282" stroke="#263238" stroke-miterlimit="10"/>
<path d="M317.553 208.189C318.182 209.942 318.115 211.586 317.392 211.86C316.669 212.133 315.585 210.915 314.957 209.12C314.328 207.326 314.394 205.71 315.117 205.45C315.84 205.19 316.924 206.423 317.553 208.189Z" fill="#263238"/>
<path d="M302.618 211.914C303.221 213.681 303.127 215.324 302.404 215.585C301.682 215.845 300.611 214.612 300.009 212.846C299.407 211.079 299.5 209.436 300.223 209.175C300.946 208.915 302.016 210.148 302.618 211.914Z" fill="#263238"/>
<path d="M296.073 206.97C296.073 206.97 296.073 203.574 301.6 203.862" stroke="#263238" stroke-miterlimit="10"/>
<path d="M311.009 202.232C311.009 202.232 314.314 198.835 317.914 201.67" stroke="#263238" stroke-miterlimit="10"/>
<path d="M283.482 179.553C283.482 179.553 269.002 175.841 268.092 182.798C267.182 189.755 278.049 192.522 278.049 192.522C278.049 192.522 264.466 192.056 272.615 199.465C280.765 206.874 304.292 200.397 312.896 195.754C318.369 192.611 323.023 188.167 326.466 182.798C326.466 182.798 322.853 188.81 327.804 192.987L332.783 197.096L333.238 203.122L337.252 202.656L335.914 193.85C335.914 193.85 339.072 187.838 340.437 187.838C341.802 187.838 346.767 185.976 339.099 170.226C331.431 154.477 316.47 153.559 302.967 159.119C289.464 164.68 283.482 179.553 283.482 179.553Z" fill="#263238" stroke="#263238" stroke-miterlimit="10"/>
<path d="M407.041 570.959C406.579 570.96 406.122 570.869 405.695 570.689C405.268 570.51 404.88 570.246 404.553 569.913C404.226 569.579 403.967 569.183 403.79 568.747C403.613 568.311 403.521 567.843 403.521 567.371V553.47C403.521 552.515 403.892 551.599 404.552 550.923C405.212 550.248 406.108 549.868 407.041 549.868V549.868C407.503 549.868 407.96 549.961 408.386 550.143C408.812 550.324 409.199 550.589 409.525 550.924C409.851 551.259 410.109 551.656 410.284 552.093C410.46 552.53 410.549 552.998 410.547 553.47V567.371C410.547 568.322 410.178 569.235 409.52 569.908C408.863 570.581 407.971 570.959 407.041 570.959V570.959Z" fill="#263238" stroke="#263238" stroke-miterlimit="10"/>
<path d="M492.501 570.959C491.571 570.959 490.68 570.581 490.022 569.908C489.365 569.235 488.995 568.322 488.995 567.371V553.47C488.993 552.998 489.083 552.53 489.258 552.093C489.434 551.656 489.692 551.259 490.017 550.924C490.343 550.589 490.73 550.324 491.156 550.143C491.583 549.961 492.04 549.868 492.501 549.868V549.868C493.435 549.868 494.33 550.248 494.99 550.923C495.65 551.599 496.021 552.515 496.021 553.47V567.371C496.021 567.843 495.93 568.311 495.753 568.747C495.576 569.183 495.316 569.579 494.989 569.913C494.662 570.246 494.274 570.51 493.847 570.689C493.42 570.869 492.963 570.96 492.501 570.959V570.959Z" fill="#263238" stroke="#263238" stroke-miterlimit="10"/>
<path d="M411.635 555.867V563.604C411.635 565.468 412.358 567.255 413.646 568.572C414.933 569.89 416.679 570.63 418.5 570.63H482.026C482.928 570.632 483.822 570.451 484.655 570.099C485.489 569.746 486.247 569.229 486.885 568.576C487.522 567.924 488.028 567.148 488.372 566.295C488.717 565.442 488.893 564.528 488.891 563.604V555.867C488.891 554.414 489.455 553.02 490.459 551.993C491.463 550.966 492.825 550.389 494.244 550.389H496.091C497.187 550.388 498.242 549.965 499.046 549.204C499.849 548.442 500.343 547.398 500.427 546.28L512.725 391.224H389.607L401.892 546.28C401.97 547.398 402.46 548.444 403.262 549.206C404.065 549.969 405.12 550.391 406.215 550.389V550.389C406.924 550.38 407.627 550.515 408.284 550.786C408.941 551.057 409.539 551.459 410.043 551.969C410.548 552.478 410.948 553.085 411.221 553.754C411.494 554.424 411.635 555.141 411.635 555.867Z" fill="#81888C" stroke="#263238" stroke-miterlimit="10"/>
<path d="M509.818 385.993H394.636V391.265H509.818V385.993Z" fill="#81888C" stroke="#263238" stroke-miterlimit="10"/>
<path d="M516.563 390.06H385.938V402.618H516.563V390.06Z" fill="#81888C" stroke="#263238" stroke-miterlimit="10"/>
<path d="M461.949 421.257C463.162 421.567 464.286 422.168 465.228 423.01C465.946 423.741 466.566 424.565 467.075 425.462C468.172 427.365 469.162 429.351 470.233 431.364L474.595 429.064L474.662 429.132C473.98 430.31 473.324 431.488 472.588 432.665C470.862 435.582 469.135 438.472 467.422 441.389C467.352 441.55 467.234 441.686 467.086 441.776C466.937 441.867 466.765 441.909 466.593 441.896C462.15 441.827 457.707 441.8 453.21 441.745H452.769L456.69 439.143L454.789 435.569C453.451 432.98 452.113 430.378 450.614 427.831C449.137 424.945 446.703 422.691 443.749 421.476H446.814C447.282 421.476 447.75 421.408 448.219 421.367L461.949 421.257Z" fill="white"/>
<path d="M419.795 454.893L424.278 445.745L420.237 442.444H420.865L434.462 442.348C434.644 442.326 434.829 442.367 434.986 442.463C435.143 442.56 435.265 442.707 435.332 442.882C437.553 447.141 439.815 451.387 442.023 455.632C442.109 455.806 442.185 455.984 442.251 456.167L438.089 453.866L435.76 457.755L432.816 462.685C432.749 462.851 432.629 462.988 432.476 463.075C432.323 463.162 432.146 463.194 431.973 463.165C430.06 463.091 428.153 462.912 426.259 462.631C424.775 462.364 423.395 461.675 422.275 460.643C421.156 459.612 420.343 458.279 419.929 456.796C419.908 456.736 419.876 456.68 419.835 456.632L419.795 454.893Z" fill="white"/>
<path d="M482.518 456.824C481.354 460.686 478.236 461.877 474.85 462.548C473.243 462.804 471.619 462.937 469.992 462.946C469.846 462.943 469.702 462.906 469.572 462.837C469.442 462.768 469.329 462.669 469.243 462.548C467.155 458.659 465.107 454.742 463.047 450.825C462.991 450.714 462.942 450.6 462.899 450.483L476.282 442.088L477.366 444.279C478.838 447.237 480.31 450.182 481.769 453.14C482.036 453.674 482.237 454.222 482.464 454.77L482.518 456.824Z" fill="white"/>
<path d="M459.875 459.412C459.942 460.782 460.022 462.042 460.062 463.37C460.062 463.891 460.183 464.11 460.772 464.11C464.331 464.11 467.904 464.11 471.478 464.11C473.719 464.19 475.949 463.759 478.008 462.85C479.106 462.302 480.109 461.562 481.113 460.932C480.859 461.453 480.537 462.083 480.216 462.699C477.861 467.218 475.492 471.752 473.124 476.257C472.522 477.476 471.593 478.495 470.446 479.193C469.299 479.892 467.981 480.242 466.647 480.201C464.465 480.201 462.297 480.201 459.955 480.201V485.241H459.728L458.082 482.174C456.396 479.01 454.696 475.846 453.023 472.669C452.967 472.535 452.938 472.39 452.938 472.245C452.938 472.099 452.967 471.954 453.023 471.82C455.205 467.711 457.426 463.671 459.634 459.59C459.683 459.505 459.737 459.423 459.795 459.344L459.875 459.412Z" fill="white"/>
<path d="M420.945 460.686C422.138 461.82 423.542 462.694 425.074 463.257C426.606 463.819 428.233 464.058 429.858 463.959C435.612 463.959 441.353 463.959 447.108 464.041C447.413 464.051 447.716 464.078 448.018 464.124V480.243H447.643C443.856 480.243 440.082 480.243 436.295 480.243C434.096 480.322 431.952 479.538 430.3 478.051C430.011 477.772 429.768 477.449 429.577 477.093C426.753 471.793 423.943 466.465 421.119 461.152C421.052 460.946 420.999 460.809 420.945 460.686Z" fill="white"/>
<path d="M444.017 443.102L430.487 434.884L431.718 432.926C433.619 429.927 435.506 426.928 437.419 423.942C438.019 423.11 438.854 422.485 439.811 422.152C440.767 421.819 441.801 421.794 442.772 422.08C444.197 422.523 445.497 423.312 446.56 424.38C448.417 426.18 449.932 428.316 451.029 430.68C451.076 430.788 451.1 430.905 451.1 431.022C451.1 431.14 451.076 431.257 451.029 431.365C448.763 435.172 446.484 438.979 444.191 442.787L444.017 443.102Z" fill="white"/>
<path d="M466.806 498.724V503.97H465.467V498.642C465.467 497.451 464.999 496.725 463.942 496.725C462.884 496.725 462.416 497.451 462.416 498.642V505.709C462.416 506.9 462.898 507.626 463.942 507.626C464.986 507.626 465.467 506.9 465.467 505.709V503.97H466.806V505.627C466.806 507.654 465.869 508.982 463.861 508.982C461.854 508.982 460.931 507.612 460.931 505.627V498.779C460.931 496.752 461.867 495.424 463.861 495.424C465.855 495.424 466.806 496.725 466.806 498.724Z" fill="white"/>
<path d="M446.666 495.425V508.778H448.125V507.435V495.425H446.666Z" fill="white"/>
<path d="M446.667 504.518L446.667 505.655L446.667 508.982L449.611 508.982C451.605 508.982 452.542 507.654 452.542 505.627L452.542 498.78C452.542 496.794 451.619 495.424 449.611 495.424L446.667 495.424C446.667 495.424 446.667 497.726 446.667 498.78L446.667 502.71L448.005 502.71L448.005 501.341L448.005 498.67L448.005 496.793C448.005 496.793 449.04 496.753 449.531 496.753C450.575 496.753 451.057 497.479 451.057 498.67L451.057 505.737C451.057 506.928 450.588 507.654 449.531 507.654L448.004 507.654L448.005 505.737L448.035 504.548L446.667 504.518Z" fill="white"/>
<path d="M444.291 495.444V508.797H445.75V507.454V495.444H444.291Z" fill="white"/>
<path d="M435.968 495.424H437.306L438.002 499.436L439.434 507.147L440.906 499.436L441.174 498.163L441.682 495.424H443.074L440.571 508.776H438.47L435.968 495.424Z" fill="white"/>
<path d="M456.769 495.424C458.876 495.424 459.752 496.523 459.752 498.567V499.694C459.752 501.203 459.232 502.147 458.096 502.513C459.314 502.894 459.766 503.923 459.766 505.332V507.461C459.723 508.025 459.817 508.592 460.04 509.11H458.534C458.321 508.584 458.237 508.013 458.288 507.446V505.29C458.288 503.74 457.576 503.246 456.331 503.246H455.291V509.11H453.799V495.424H456.769ZM456.399 501.907C457.576 501.907 458.288 501.513 458.288 500.019V498.708C458.288 497.468 457.836 496.819 456.741 496.819H455.291V501.907H456.399Z" fill="white"/>
<path d="M268.532 570.959C268.071 570.96 267.613 570.869 267.186 570.689C266.759 570.51 266.371 570.246 266.044 569.913C265.717 569.579 265.458 569.183 265.281 568.747C265.104 568.311 265.013 567.843 265.013 567.371V553.47C265.013 552.515 265.384 551.599 266.044 550.923C266.704 550.248 267.599 549.868 268.532 549.868V549.868C269.463 549.872 270.355 550.253 271.012 550.928C271.669 551.603 272.038 552.517 272.038 553.47V567.371C272.038 568.322 271.669 569.235 271.012 569.908C270.354 570.581 269.462 570.959 268.532 570.959V570.959Z" fill="#263238" stroke="#263238" stroke-miterlimit="10"/>
<path d="M353.979 570.959C353.049 570.959 352.157 570.581 351.5 569.908C350.842 569.235 350.473 568.322 350.473 567.371V553.47C350.471 552.998 350.56 552.53 350.736 552.093C350.911 551.656 351.169 551.259 351.495 550.924C351.821 550.589 352.208 550.324 352.634 550.143C353.06 549.961 353.517 549.868 353.979 549.868V549.868C354.44 549.868 354.897 549.961 355.324 550.143C355.75 550.324 356.137 550.589 356.463 550.924C356.789 551.259 357.047 551.656 357.222 552.093C357.397 552.53 357.487 552.998 357.485 553.47V567.371C357.485 568.322 357.116 569.235 356.458 569.908C355.801 570.581 354.909 570.959 353.979 570.959V570.959Z" fill="#263238" stroke="#263238" stroke-miterlimit="10"/>
<path d="M272.606 555.867V563.604C272.606 565.468 273.33 567.255 274.617 568.572C275.905 569.89 277.651 570.63 279.472 570.63H342.998C344.818 570.63 346.565 569.89 347.852 568.572C349.14 567.255 349.863 565.468 349.863 563.604V555.867C349.863 554.414 350.427 553.02 351.431 551.993C352.435 550.966 353.796 550.389 355.216 550.389H357.076C358.171 550.391 359.226 549.969 360.029 549.206C360.831 548.444 361.321 547.398 361.399 546.28L373.643 391.224H250.525L262.797 546.28C262.881 547.398 263.375 548.442 264.179 549.204C264.982 549.965 266.037 550.388 267.133 550.389V550.389C267.846 550.372 268.555 550.502 269.218 550.77C269.882 551.038 270.486 551.439 270.996 551.949C271.506 552.459 271.911 553.069 272.188 553.741C272.464 554.414 272.607 555.137 272.606 555.867V555.867Z" fill="#77B188" stroke="#263238" stroke-miterlimit="10"/>
<path d="M371.297 385.993H256.114V391.265H371.297V385.993Z" fill="#77B188" stroke="#263238" stroke-miterlimit="10"/>
<path d="M378.041 390.06H247.415V402.618H378.041V390.06Z" fill="#77B188" stroke="#263238" stroke-miterlimit="10"/>
<path d="M323.441 421.258C324.652 421.573 325.775 422.173 326.72 423.011C327.434 423.723 328.059 424.524 328.58 425.394C329.677 427.297 330.668 429.283 331.738 431.296L336.101 428.996L336.168 429.064L334.08 432.597C332.367 435.514 330.641 438.404 328.928 441.321C328.857 441.482 328.739 441.618 328.591 441.708C328.443 441.799 328.271 441.841 328.098 441.828C323.655 441.759 319.199 441.732 314.716 441.677H314.274L318.195 439.075C317.54 437.856 316.924 436.678 316.295 435.501C314.957 432.912 313.618 430.31 312.12 427.763C310.659 424.861 308.234 422.588 305.281 421.354H308.359C308.828 421.354 309.296 421.285 309.697 421.244L323.441 421.258Z" fill="white"/>
<path d="M281.287 454.893L285.756 445.745L281.648 442.444H282.29L295.887 442.348C296.069 442.326 296.253 442.367 296.411 442.463C296.568 442.56 296.69 442.707 296.757 442.882C298.978 447.137 301.208 451.387 303.448 455.632C303.515 455.756 303.555 455.893 303.675 456.167L299.513 453.866L297.185 457.755C296.195 459.399 295.204 461.042 294.241 462.685C294.174 462.851 294.054 462.988 293.901 463.075C293.748 463.162 293.57 463.194 293.398 463.165C291.48 463.091 289.569 462.912 287.67 462.631C286.189 462.361 284.811 461.672 283.694 460.64C282.578 459.609 281.767 458.277 281.353 456.796C281.333 456.736 281.301 456.68 281.26 456.632L281.287 454.893Z" fill="white"/>
<path d="M343.956 456.824C342.792 460.686 339.674 461.877 336.275 462.548C334.667 462.805 333.044 462.938 331.417 462.946C331.273 462.941 331.132 462.903 331.004 462.834C330.877 462.765 330.766 462.667 330.681 462.548C328.593 458.659 326.523 454.751 324.471 450.825L324.324 450.483L337.707 442.088L338.804 444.279C340.276 447.237 341.748 450.182 343.207 453.14C343.461 453.674 343.675 454.222 343.903 454.77L343.956 456.824Z" fill="white"/>
<path d="M321.352 459.412C321.352 460.782 321.513 462.042 321.553 463.37C321.553 463.891 321.674 464.11 322.249 464.11C325.822 464.11 329.395 464.11 332.955 464.11C335.196 464.19 337.427 463.759 339.486 462.85C340.583 462.302 341.587 461.562 342.59 460.932C342.323 461.453 342.015 462.083 341.694 462.699C339.325 467.218 336.97 471.752 334.601 476.257C333.995 477.476 333.064 478.494 331.915 479.193C330.766 479.891 329.446 480.241 328.11 480.201C325.943 480.201 323.775 480.201 321.419 480.201V485.241H321.192L319.546 482.174C317.86 479.01 316.16 475.846 314.487 472.669C314.428 472.536 314.397 472.391 314.397 472.245C314.397 472.098 314.428 471.953 314.487 471.82C316.664 467.739 318.863 463.662 321.085 459.59L321.259 459.344L321.352 459.412Z" fill="white"/>
<path d="M282.397 460.686C283.591 461.821 284.998 462.697 286.533 463.259C288.067 463.822 289.697 464.06 291.324 463.959C297.078 463.959 302.819 463.959 308.56 464.041C308.865 464.05 309.169 464.077 309.47 464.124V480.243H309.109C305.322 480.243 301.534 480.243 297.76 480.243C295.562 480.322 293.417 479.538 291.765 478.051C291.477 477.772 291.233 477.449 291.042 477.093C288.219 471.793 285.408 466.465 282.585 461.152L282.397 460.686Z" fill="white"/>
<path d="M305.508 443.102L291.979 434.884C292.407 434.213 292.795 433.515 293.21 432.926C295.11 429.927 296.997 426.928 298.911 423.942C299.51 423.11 300.345 422.485 301.302 422.152C302.259 421.819 303.292 421.794 304.264 422.08C305.689 422.523 306.988 423.312 308.051 424.38C309.908 426.18 311.424 428.316 312.52 430.68C312.567 430.788 312.591 430.905 312.591 431.022C312.591 431.14 312.567 431.257 312.52 431.365L305.682 442.787L305.508 443.102Z" fill="white"/>
<path d="M338.218 498.724V503.97H336.879V498.642C336.879 497.451 336.411 496.725 335.354 496.725C334.297 496.725 333.828 497.451 333.828 498.642V505.709C333.828 506.9 334.31 507.626 335.354 507.626C336.398 507.626 336.879 506.9 336.879 505.709V503.97H338.218V505.627C338.218 507.654 337.281 508.982 335.274 508.982C333.266 508.982 332.343 507.612 332.343 505.627V498.779C332.343 496.752 333.28 495.424 335.274 495.424C337.267 495.424 338.218 496.725 338.218 498.724Z" fill="white"/>
<path d="M289.983 495.444C292.044 495.444 292.914 496.69 292.914 498.717V500.319C292.914 502.428 291.95 503.538 289.876 503.538H288.538V508.797H287.079V495.444H289.983ZM289.876 502.209C290.96 502.209 291.482 501.689 291.482 500.415V498.635C291.482 497.416 291.054 496.8 289.983 496.8H288.645V502.278L289.876 502.209Z" fill="white"/>
<path d="M294.051 508.797V495.444H295.509V507.454H299.23V508.824L294.051 508.797Z" fill="white"/>
<path d="M301.814 506.112L301.305 508.851H299.967L302.469 495.499H304.57L307.073 508.851H305.614L305.106 506.112H301.814ZM302.001 504.839H304.905L303.433 497.128L302.001 504.839Z" fill="white"/>
<path d="M313.857 498.649V499.018H312.518V498.58C312.518 497.375 312.063 496.677 311.019 496.677C309.976 496.677 309.534 497.375 309.534 498.553C309.534 501.552 313.91 501.84 313.91 505.592C313.91 507.619 312.96 508.934 310.966 508.934C308.972 508.934 308.035 507.564 308.035 505.592V504.894H309.373V505.729C309.373 506.934 309.855 507.633 310.899 507.633C311.943 507.633 312.425 506.934 312.425 505.729C312.425 502.757 308.075 502.47 308.075 498.703C308.075 496.649 308.999 495.375 310.953 495.375C312.906 495.375 313.857 496.677 313.857 498.649Z" fill="white"/>
<path d="M317.029 508.797V496.8H314.62V495.43H320.87V496.8H318.461V508.797H317.029Z" fill="white"/>
<path d="M323.306 495.444V508.797H321.848V495.444H323.306Z" fill="white"/>
<path d="M303.22 492.937L305.117 489.95L305.512 491.257L303.805 493.89L303.22 492.937Z" fill="white"/>
<path d="M330.559 498.676V499.881H329.221V498.594C329.221 497.402 328.753 496.677 327.696 496.677C326.638 496.677 326.17 497.402 326.17 498.594V505.661C326.17 506.852 326.652 507.578 327.696 507.578C328.739 507.578 329.221 506.852 329.221 505.661V503.921H330.559V505.578C330.559 507.605 329.623 508.934 327.615 508.934C325.608 508.934 324.685 507.564 324.685 505.578V498.731C324.685 496.704 325.621 495.375 327.615 495.375C329.609 495.375 330.559 496.677 330.559 498.676Z" fill="white"/>
<path d="M127.388 570.959C126.926 570.96 126.469 570.869 126.042 570.689C125.615 570.51 125.227 570.246 124.9 569.913C124.573 569.579 124.313 569.183 124.136 568.747C123.959 568.311 123.868 567.843 123.868 567.371V553.47C123.868 552.515 124.239 551.599 124.899 550.923C125.559 550.248 126.454 549.868 127.388 549.868V549.868C127.849 549.868 128.306 549.961 128.733 550.143C129.159 550.324 129.546 550.589 129.872 550.924C130.197 551.259 130.455 551.656 130.631 552.093C130.806 552.53 130.896 552.998 130.894 553.47V567.371C130.894 568.322 130.525 569.235 129.867 569.908C129.209 570.581 128.318 570.959 127.388 570.959V570.959Z" fill="#263238" stroke="#263238" stroke-miterlimit="10"/>
<path d="M212.808 570.959C211.878 570.959 210.986 570.581 210.329 569.908C209.671 569.235 209.302 568.322 209.302 567.371V553.47C209.3 552.998 209.389 552.53 209.565 552.093C209.74 551.656 209.998 551.259 210.324 550.924C210.65 550.589 211.037 550.324 211.463 550.143C211.889 549.961 212.346 549.868 212.808 549.868V549.868C213.741 549.868 214.637 550.248 215.297 550.923C215.957 551.599 216.328 552.515 216.328 553.47V567.371C216.328 567.843 216.236 568.311 216.059 568.747C215.882 569.183 215.623 569.579 215.296 569.913C214.969 570.246 214.581 570.51 214.154 570.689C213.727 570.869 213.27 570.96 212.808 570.959V570.959Z" fill="#263238" stroke="#263238" stroke-miterlimit="10"/>
<path d="M131.728 555.867V563.604C131.728 565.468 132.451 567.255 133.738 568.572C135.026 569.89 136.772 570.63 138.593 570.63H202.119C203.021 570.632 203.915 570.451 204.748 570.099C205.582 569.746 206.34 569.229 206.977 568.576C207.615 567.924 208.121 567.148 208.465 566.295C208.81 565.442 208.986 564.528 208.984 563.604V555.867C208.984 554.414 209.548 553.02 210.552 551.993C211.556 550.966 212.918 550.389 214.337 550.389H216.184C217.28 550.388 218.335 549.965 219.138 549.204C219.942 548.442 220.436 547.398 220.52 546.28L232.778 391.224H109.66L121.945 546.28C122.023 547.398 122.513 548.444 123.315 549.206C124.117 549.969 125.173 550.391 126.268 550.389V550.389C126.98 550.374 127.687 550.505 128.349 550.774C129.011 551.043 129.614 551.444 130.122 551.954C130.631 552.464 131.035 553.073 131.31 553.745C131.586 554.417 131.728 555.138 131.728 555.867Z" fill="#263238" stroke="#263238" stroke-miterlimit="10"/>
<path d="M230.165 385.993H114.982V391.265H230.165V385.993Z" fill="#263238" stroke="#263238" stroke-miterlimit="10"/>
<path d="M236.91 390.06H106.284V402.618H236.91V390.06Z" fill="#263238" stroke="#263238" stroke-miterlimit="10"/>
<path d="M182.297 421.257C183.51 421.567 184.634 422.168 185.576 423.01C186.279 423.744 186.887 424.568 187.382 425.462C188.479 427.365 189.47 429.351 190.54 431.364L194.903 429.064L194.97 429.132L192.896 432.665C191.169 435.582 189.443 438.472 187.73 441.389C187.659 441.55 187.542 441.686 187.393 441.776C187.245 441.867 187.073 441.909 186.9 441.896C182.457 441.827 178.001 441.8 173.518 441.745H173.076L176.997 439.143L175.097 435.569C173.759 432.98 172.421 430.378 170.922 427.831C169.445 424.945 167.011 422.691 164.057 421.476H167.121C167.59 421.476 168.058 421.408 168.459 421.367L182.297 421.257Z" fill="white"/>
<path d="M140.142 454.893L144.625 445.745L140.543 442.444H141.172L154.769 442.348C154.951 442.326 155.135 442.367 155.293 442.463C155.45 442.56 155.572 442.707 155.638 442.882C157.86 447.141 160.122 451.387 162.33 455.632C162.416 455.806 162.492 455.984 162.557 456.167L158.395 453.866L156.067 457.755L153.123 462.685C153.055 462.851 152.936 462.988 152.783 463.075C152.63 463.162 152.452 463.194 152.279 463.165C150.362 463.09 148.45 462.912 146.552 462.631C145.071 462.361 143.693 461.672 142.576 460.64C141.46 459.609 140.648 458.277 140.235 456.796C140.214 456.736 140.183 456.68 140.142 456.632V454.893Z" fill="white"/>
<path d="M202.865 456.824C201.7 460.686 198.582 461.877 195.197 462.548C193.589 462.804 191.965 462.937 190.339 462.946C190.192 462.943 190.049 462.906 189.919 462.837C189.789 462.768 189.676 462.669 189.589 462.548C187.502 458.659 185.454 454.742 183.393 450.825C183.337 450.714 183.288 450.6 183.246 450.483L196.628 442.088L197.712 444.279C199.185 447.237 200.657 450.182 202.115 453.14C202.383 453.674 202.584 454.222 202.811 454.77L202.865 456.824Z" fill="white"/>
<path d="M180.222 459.412C180.222 460.782 180.37 462.042 180.41 463.37C180.41 463.891 180.53 464.11 181.106 464.11C184.679 464.11 188.252 464.11 191.812 464.11C194.053 464.19 196.283 463.759 198.342 462.85C199.44 462.302 200.443 461.562 201.447 460.932C201.179 461.453 200.871 462.083 200.55 462.699C198.195 467.218 195.826 471.752 193.458 476.257C192.856 477.476 191.927 478.495 190.78 479.193C189.633 479.892 188.315 480.242 186.981 480.201C184.799 480.201 182.631 480.201 180.289 480.201V485.241H180.062L178.416 482.174C176.73 479.01 175.03 475.846 173.357 472.669C173.301 472.535 173.272 472.39 173.272 472.245C173.272 472.099 173.301 471.954 173.357 471.82C175.539 467.711 177.76 463.671 179.968 459.59C180.017 459.505 180.071 459.423 180.129 459.344L180.222 459.412Z" fill="white"/>
<path d="M141.292 460.686C142.484 461.82 143.889 462.694 145.421 463.257C146.953 463.819 148.58 464.058 150.205 463.959C155.959 463.959 161.7 463.959 167.455 464.041C167.759 464.051 168.063 464.078 168.365 464.124V480.243H167.99C164.203 480.243 160.429 480.243 156.642 480.243C154.443 480.322 152.298 479.538 150.646 478.051C150.358 477.772 150.114 477.449 149.924 477.093C147.1 471.793 144.29 466.465 141.466 461.152C141.399 460.946 141.346 460.809 141.292 460.686Z" fill="white"/>
<path d="M164.364 443.102L150.834 434.884L152.065 432.926C153.965 429.927 155.852 426.928 157.766 423.942C158.366 423.11 159.2 422.485 160.157 422.152C161.114 421.819 162.148 421.794 163.119 422.08C164.544 422.523 165.843 423.312 166.906 424.38C168.764 426.18 170.279 428.316 171.376 430.68C171.422 430.788 171.446 430.905 171.446 431.022C171.446 431.14 171.422 431.257 171.376 431.365C169.11 435.172 166.83 438.979 164.538 442.787L164.364 443.102Z" fill="white"/>
<path d="M158.034 495.445C160.081 495.445 160.965 496.691 160.965 498.718V500.32C160.965 502.429 159.988 503.539 157.927 503.539H156.589V508.798H155.13V495.445H158.034ZM157.927 502.21C159.011 502.21 159.533 501.69 159.533 500.416V498.636C159.533 497.417 159.104 496.801 158.034 496.801H156.696V502.279L157.927 502.21Z" fill="white"/>
<path d="M163.333 506.112L162.825 508.851H161.486L163.989 495.499H166.09L168.592 508.851H167.134L166.625 506.112H163.333ZM163.561 504.893H166.465L164.993 497.183L163.561 504.893Z" fill="white"/>
<path d="M172.58 495.444C174.628 495.444 175.511 496.69 175.511 498.717V500.319C175.511 502.428 174.534 503.538 172.473 503.538H171.135V508.797H169.689V495.444H172.58ZM172.473 502.209C173.544 502.209 174.066 501.689 174.066 500.415V498.635C174.066 497.416 173.637 496.8 172.58 496.8H171.175V502.278L172.473 502.209Z" fill="white"/>
<path d="M181.28 501.36V502.73H178.095V507.482H182.016V508.851H176.663V495.444H182.016V496.813H178.095V501.374L181.28 501.36Z" fill="white"/>
<path d="M182.907 508.777V495.424H184.366V507.434H188.086V508.804L182.907 508.777Z" fill="white"/>
<path d="M598.223 570.958H630.34" stroke="#263238" stroke-linecap="round" stroke-linejoin="round"/>
<path d="M16.0879 570.959H588.854" stroke="#263238" stroke-linecap="round" stroke-linejoin="round"/>
</svg>
