<svg width="648" height="659" viewBox="0 0 648 659" fill="none" xmlns="http://www.w3.org/2000/svg">
<path opacity="0.5" d="M296.334 203.786C296.334 203.786 316.574 180.574 346.102 180.574C346.102 180.574 347.082 162.564 367.233 158.67C387.384 154.777 391.292 172.773 391.292 172.773C391.292 172.773 406.152 164.867 426.184 172.773C446.216 180.678 442.114 203.712 442.114 203.712C442.114 203.712 499.802 201.84 509.699 212.405H250.46C250.46 212.405 255.691 199.477 296.334 203.786Z" stroke="#263238" stroke-linecap="round" stroke-linejoin="round"/>
<path d="M296.334 203.786C296.334 203.786 316.574 180.574 346.102 180.574C346.102 180.574 347.082 162.564 367.233 158.67C387.384 154.777 391.292 172.773 391.292 172.773C391.292 172.773 406.152 164.867 426.184 172.773C446.216 180.678 442.114 203.712 442.114 203.712C442.114 203.712 499.802 201.84 509.699 212.405H250.46C250.46 212.405 255.691 199.477 296.334 203.786Z" stroke="#263238" stroke-linecap="round" stroke-linejoin="round"/>
<path opacity="0.5" d="M463.587 66.1647C463.587 66.1647 447.434 47.6636 423.895 47.6636C423.895 47.6636 423.108 33.2936 407.044 30.1878C390.98 27.082 387.844 41.4371 387.844 41.4371C387.844 41.4371 375.956 35.1363 360.026 41.4371C344.095 47.7379 347.305 66.1201 347.305 66.1201C347.305 66.1201 301.238 64.6341 293.407 73.045H500.173C500.173 73.045 495.998 62.7319 463.587 66.1647Z" stroke="#263238" stroke-linecap="round" stroke-linejoin="round"/>
<path d="M463.587 66.1647C463.587 66.1647 447.434 47.6636 423.895 47.6636C423.895 47.6636 423.108 33.2936 407.044 30.1878C390.98 27.082 387.844 41.4371 387.844 41.4371C387.844 41.4371 375.956 35.1363 360.026 41.4371C344.095 47.7379 347.305 66.1201 347.305 66.1201C347.305 66.1201 301.238 64.6341 293.407 73.045H500.173C500.173 73.045 495.998 62.7319 463.587 66.1647Z" stroke="#263238" stroke-linecap="round" stroke-linejoin="round"/>
<path opacity="0.5" d="M88.7651 130.465C88.7651 130.465 98.35 119.469 112.348 119.469C112.612 116.866 113.74 114.427 115.553 112.541C117.366 110.656 119.759 109.432 122.349 109.066C131.89 107.224 133.747 115.739 133.747 115.739C136.356 114.61 139.168 114.028 142.01 114.028C144.852 114.028 147.664 114.61 150.272 115.739C159.753 119.484 157.836 130.406 157.836 130.406C157.836 130.406 185.149 129.514 189.845 134.522H67.0393C67.0393 134.522 69.5061 128.415 88.7651 130.465Z" stroke="#263238" stroke-linecap="round" stroke-linejoin="round"/>
<path d="M88.7651 130.465C88.7651 130.465 98.35 119.469 112.348 119.469C112.612 116.866 113.74 114.427 115.553 112.541C117.366 110.656 119.759 109.432 122.349 109.066C131.89 107.224 133.747 115.739 133.747 115.739C136.356 114.61 139.168 114.028 142.01 114.028C144.852 114.028 147.664 114.61 150.272 115.739C159.753 119.484 157.836 130.406 157.836 130.406C157.836 130.406 185.149 129.514 189.845 134.522H67.0393C67.0393 134.522 69.5061 128.415 88.7651 130.465Z" stroke="#263238" stroke-linecap="round" stroke-linejoin="round"/>
<path opacity="0.5" d="M235.615 384.592C235.615 384.592 245.2 373.595 259.198 373.595C259.459 370.992 260.587 368.551 262.4 366.665C264.214 364.779 266.608 363.556 269.199 363.193C278.74 361.38 280.612 369.85 280.612 369.85C283.22 368.722 286.032 368.139 288.874 368.139C291.716 368.139 294.528 368.722 297.137 369.85C306.618 373.58 304.701 384.518 304.701 384.518C304.701 384.518 332.014 383.626 336.71 388.634H213.889C213.889 388.634 216.356 382.541 235.615 384.592Z" stroke="#263238" stroke-linecap="round" stroke-linejoin="round"/>
<path d="M235.615 384.592C235.615 384.592 245.2 373.595 259.198 373.595C259.459 370.992 260.587 368.551 262.4 366.665C264.214 364.779 266.608 363.556 269.199 363.193C278.74 361.38 280.612 369.85 280.612 369.85C283.22 368.722 286.032 368.139 288.874 368.139C291.716 368.139 294.528 368.722 297.137 369.85C306.618 373.58 304.701 384.518 304.701 384.518C304.701 384.518 332.014 383.626 336.71 388.634H213.889C213.889 388.634 216.356 382.541 235.615 384.592Z" stroke="#263238" stroke-linecap="round" stroke-linejoin="round"/>
<path d="M125.188 245.202L125.039 222.02C124.984 221.22 124.628 220.47 124.042 219.923C123.455 219.376 122.683 219.071 121.881 219.071C121.079 219.071 120.307 219.376 119.721 219.923C119.135 220.47 118.778 221.22 118.724 222.02V229.614" stroke="#263238" stroke-linecap="round" stroke-linejoin="round"/>
<path d="M118.545 251.399L118.486 259.914" stroke="#263238" stroke-linecap="round" stroke-linejoin="round"/>
<path d="M126.51 451.122L125.336 268.652" stroke="#263238" stroke-linecap="round" stroke-linejoin="round"/>
<path d="M118.382 275.948L117.267 451.122" stroke="#263238" stroke-linecap="round" stroke-linejoin="round"/>
<path d="M201.852 261.37L134.371 246.97L130.656 252.201L127.967 251.919L99.42 183.561C99.2256 183.092 98.8579 182.715 98.3932 182.51C97.9285 182.304 97.4025 182.286 96.9244 182.458C96.4464 182.63 96.0529 182.979 95.8258 183.434C95.5987 183.889 95.5554 184.413 95.7049 184.899L115.439 251.027L121.815 251.755L122.825 254.178L77.5902 312.98C77.3131 313.381 77.1939 313.87 77.2553 314.353C77.3168 314.836 77.5545 315.28 77.923 315.599C78.2914 315.917 78.7646 316.089 79.2518 316.08C79.7389 316.071 80.2055 315.883 80.5622 315.551L128.204 265.62L125.678 259.676L127.357 257.506L201.258 265.293C201.515 265.332 201.778 265.32 202.031 265.258C202.284 265.195 202.522 265.083 202.732 264.929C202.942 264.774 203.119 264.58 203.254 264.357C203.388 264.134 203.478 263.886 203.517 263.629C203.556 263.371 203.544 263.108 203.481 262.856C203.419 262.603 203.307 262.364 203.152 262.155C202.998 261.945 202.803 261.768 202.58 261.633C202.357 261.498 202.11 261.409 201.852 261.37V261.37Z" stroke="#263238" stroke-linecap="round" stroke-linejoin="round"/>
<path d="M126.51 256.214C127.577 256.214 128.442 255.349 128.442 254.282C128.442 253.215 127.577 252.35 126.51 252.35C125.443 252.35 124.579 253.215 124.579 254.282C124.579 255.349 125.443 256.214 126.51 256.214Z" stroke="#263238" stroke-linecap="round" stroke-linejoin="round"/>
<path d="M187.319 325.344L187.2 306.991C187.2 306.329 186.937 305.694 186.469 305.226C186.001 304.758 185.366 304.495 184.703 304.495C184.041 304.495 183.406 304.758 182.938 305.226C182.47 305.694 182.207 306.329 182.207 306.991V313.01" stroke="#263238" stroke-linecap="round" stroke-linejoin="round"/>
<path d="M182.058 330.248L182.014 336.965" stroke="#263238" stroke-linecap="round" stroke-linejoin="round"/>
<path d="M188.359 488.228L187.438 343.889" stroke="#263238" stroke-linecap="round" stroke-linejoin="round"/>
<path d="M181.939 349.655L181.048 488.228" stroke="#263238" stroke-linecap="round" stroke-linejoin="round"/>
<path d="M248.008 338.168L194.615 326.756L191.643 330.902L189.503 330.679L166.931 276.587C166.861 276.391 166.751 276.212 166.608 276.061C166.465 275.91 166.293 275.791 166.101 275.711C165.909 275.632 165.702 275.593 165.495 275.598C165.287 275.603 165.083 275.651 164.895 275.74C164.537 275.892 164.248 276.169 164.081 276.519C163.914 276.87 163.881 277.269 163.988 277.642L179.606 329.951L184.644 330.53L185.446 332.447L149.633 378.93C149.363 379.245 149.229 379.655 149.261 380.069C149.294 380.483 149.489 380.867 149.804 381.137C150.119 381.407 150.529 381.541 150.943 381.509C151.357 381.476 151.741 381.281 152.011 380.966L189.682 341.467L187.69 336.801L189.013 335.077L247.474 341.229C247.679 341.263 247.89 341.253 248.091 341.2C248.293 341.147 248.481 341.053 248.643 340.922C248.806 340.792 248.939 340.629 249.035 340.444C249.13 340.259 249.185 340.055 249.197 339.847C249.237 339.471 249.138 339.093 248.919 338.784C248.7 338.475 248.377 338.256 248.008 338.168Z" stroke="#263238" stroke-linecap="round" stroke-linejoin="round"/>
<path d="M189.964 332.521C189.964 332.815 189.877 333.103 189.714 333.347C189.55 333.591 189.318 333.782 189.047 333.894C188.775 334.007 188.476 334.036 188.188 333.979C187.9 333.921 187.635 333.78 187.427 333.572C187.219 333.364 187.078 333.099 187.02 332.811C186.963 332.523 186.993 332.224 187.105 331.953C187.218 331.681 187.408 331.449 187.652 331.286C187.897 331.122 188.184 331.035 188.478 331.035C188.872 331.035 189.25 331.192 189.529 331.471C189.807 331.749 189.964 332.127 189.964 332.521Z" stroke="#263238" stroke-linecap="round" stroke-linejoin="round"/>
<path d="M513.31 245.202L513.459 222.02C513.514 221.22 513.87 220.47 514.456 219.923C515.042 219.376 515.814 219.071 516.616 219.071C517.418 219.071 518.19 219.376 518.777 219.923C519.363 220.47 519.719 221.22 519.774 222.02V229.614" stroke="#263238" stroke-linecap="round" stroke-linejoin="round"/>
<path d="M519.953 251.399L520.012 259.914" stroke="#263238" stroke-linecap="round" stroke-linejoin="round"/>
<path d="M511.987 451.122L513.161 268.652" stroke="#263238" stroke-linecap="round" stroke-linejoin="round"/>
<path d="M520.116 275.948L521.231 451.122" stroke="#263238" stroke-linecap="round" stroke-linejoin="round"/>
<path d="M436.646 261.37L504.126 246.97L507.841 252.201L510.531 251.919L539.078 183.561C539.272 183.092 539.64 182.715 540.105 182.51C540.569 182.304 541.095 182.286 541.573 182.458C542.051 182.63 542.445 182.979 542.672 183.434C542.899 183.889 542.942 184.413 542.793 184.899L523.058 251.027L516.683 251.755L515.673 254.178L560.952 312.95C561.229 313.351 561.349 313.84 561.287 314.323C561.226 314.807 560.988 315.25 560.619 315.569C560.251 315.888 559.778 316.059 559.291 316.05C558.804 316.041 558.337 315.853 557.98 315.521L510.338 265.59L512.864 259.646L511.185 257.477L437.285 265.263C436.784 265.315 436.282 265.173 435.883 264.867C435.483 264.561 435.215 264.114 435.134 263.617C435.052 263.121 435.163 262.612 435.444 262.194C435.725 261.776 436.155 261.482 436.646 261.37V261.37Z" stroke="#263238" stroke-linecap="round" stroke-linejoin="round"/>
<path d="M511.987 256.214C513.054 256.214 513.919 255.349 513.919 254.282C513.919 253.215 513.054 252.35 511.987 252.35C510.921 252.35 510.056 253.215 510.056 254.282C510.056 255.349 510.921 256.214 511.987 256.214Z" stroke="#263238" stroke-linecap="round" stroke-linejoin="round"/>
<path d="M451.179 325.344L451.298 306.991C451.298 306.329 451.561 305.694 452.029 305.226C452.497 304.758 453.132 304.495 453.794 304.495C454.457 304.495 455.091 304.758 455.56 305.226C456.028 305.694 456.291 306.329 456.291 306.991V313.01" stroke="#263238" stroke-linecap="round" stroke-linejoin="round"/>
<path d="M456.44 330.248L456.484 336.965" stroke="#263238" stroke-linecap="round" stroke-linejoin="round"/>
<path d="M450.139 488.228L451.06 343.889" stroke="#263238" stroke-linecap="round" stroke-linejoin="round"/>
<path d="M456.558 349.655L457.45 488.228" stroke="#263238" stroke-linecap="round" stroke-linejoin="round"/>
<path d="M390.489 338.168L443.883 326.756L446.855 330.902L448.995 330.679L471.567 276.587C471.637 276.391 471.747 276.212 471.889 276.061C472.032 275.91 472.205 275.791 472.397 275.711C472.589 275.632 472.796 275.593 473.003 275.598C473.211 275.603 473.415 275.651 473.603 275.74C473.96 275.892 474.25 276.169 474.417 276.519C474.584 276.87 474.617 277.269 474.51 277.642L458.892 329.951L453.854 330.53L453.051 332.447L488.865 378.93C489.135 379.245 489.268 379.655 489.236 380.069C489.204 380.483 489.009 380.867 488.694 381.137C488.379 381.407 487.969 381.541 487.555 381.509C487.141 381.476 486.757 381.281 486.487 380.966L448.816 341.467L450.807 336.801L449.485 335.077L391.024 341.229C390.819 341.263 390.608 341.253 390.407 341.2C390.205 341.147 390.017 341.053 389.855 340.922C389.692 340.792 389.559 340.629 389.463 340.444C389.368 340.259 389.312 340.055 389.301 339.847C389.261 339.471 389.36 339.093 389.579 338.784C389.798 338.475 390.121 338.256 390.489 338.168V338.168Z" stroke="#263238" stroke-linecap="round" stroke-linejoin="round"/>
<path d="M448.608 332.521C448.608 332.815 448.695 333.103 448.859 333.347C449.022 333.591 449.254 333.782 449.526 333.894C449.797 334.007 450.096 334.036 450.384 333.979C450.672 333.921 450.937 333.78 451.145 333.572C451.353 333.364 451.494 333.099 451.552 332.811C451.609 332.523 451.58 332.224 451.467 331.953C451.355 331.681 451.164 331.449 450.92 331.286C450.675 331.122 450.388 331.035 450.094 331.035C449.7 331.035 449.322 331.192 449.043 331.471C448.765 331.749 448.608 332.127 448.608 332.521Z" stroke="#263238" stroke-linecap="round" stroke-linejoin="round"/>
<path d="M1 429.455C1 429.455 3.8829 437.064 12.8883 448.774C24.5239 464.02 46.5172 486.207 85.9417 507.487C155.488 545.084 199.504 607.556 199.504 607.556L239.969 478.584C239.969 478.584 221.973 477.276 196.651 459.265C179.369 447.124 158.757 427.182 138.161 394.756C87.2197 314.644 33.9305 297.273 33.9305 297.273" fill="white"/>
<path opacity="0.4" d="M12.8437 448.774C24.5239 464.02 46.5172 486.207 85.9417 507.487C155.488 545.084 199.504 607.556 199.504 607.556L239.969 478.584C239.969 478.584 221.973 477.276 196.651 459.265C175.921 458.7 132.945 472.773 110.996 493.979C110.922 494.009 60.2184 468.3 12.8437 448.774Z" fill="#92E3A9"/>
<path d="M146.646 476.533C146.646 476.533 171.389 497.902 185.283 498.6" stroke="#263238" stroke-linecap="round" stroke-linejoin="round"/>
<path d="M74.0534 501.305C91.6926 509.879 117.564 519.464 126.971 524.368" stroke="#263238" stroke-linecap="round" stroke-linejoin="round"/>
<path d="M141.698 400.537C146.482 410.424 152.126 419.872 158.564 428.772" stroke="#263238" stroke-linecap="round" stroke-linejoin="round"/>
<path d="M1 429.455C1 429.455 3.8829 437.064 12.8883 448.774C24.5239 464.02 46.5172 486.207 85.9417 507.487C155.488 545.084 199.504 607.556 199.504 607.556L239.969 478.584C239.969 478.584 221.973 477.276 196.651 459.265C179.369 447.124 158.757 427.182 138.161 394.756C87.2197 314.644 33.9305 297.273 33.9305 297.273" stroke="#263238" stroke-linecap="round" stroke-linejoin="round"/>
<path d="M647.068 417.567C647.068 417.567 644.185 425.176 635.18 436.885C623.499 452.132 601.506 474.319 562.156 495.599C492.61 533.195 448.593 595.668 448.593 595.668L408.129 466.695C408.129 466.695 426.124 465.388 451.446 447.377C468.655 435.162 489.251 415.264 509.862 382.838C560.804 302.726 614.108 285.355 614.108 285.355" fill="white"/>
<path opacity="0.4" d="M635.224 436.885C623.544 452.132 601.551 474.319 562.201 495.599C492.654 533.195 448.638 595.668 448.638 595.668L408.173 466.695C408.173 466.695 426.169 465.388 451.491 447.377C472.221 446.812 509.119 456.382 527.621 486.014C527.621 486.029 587.85 456.412 635.224 436.885Z" fill="#92E3A9"/>
<path d="M475.921 442.339C475.921 442.339 463.84 461.97 432.618 474.289" stroke="#263238" stroke-linecap="round" stroke-linejoin="round"/>
<path d="M569.675 492.493C562.245 495.599 531.454 505.273 524.396 510.221" stroke="#263238" stroke-linecap="round" stroke-linejoin="round"/>
<path d="M510.293 397.595C510.293 397.595 517.322 372.332 527.621 357.026" stroke="#263238" stroke-linecap="round" stroke-linejoin="round"/>
<path d="M647.068 417.567C647.068 417.567 644.185 425.176 635.18 436.885C623.499 452.132 601.506 474.319 562.156 495.599C492.61 533.195 448.593 595.668 448.593 595.668L408.129 466.695C408.129 466.695 426.124 465.388 451.446 447.377C468.655 435.162 489.251 415.264 509.862 382.838C560.804 302.726 614.108 285.355 614.108 285.355" stroke="#263238" stroke-linecap="round" stroke-linejoin="round"/>
<path d="M272.914 509.449L229.478 514.664C229.478 514.664 199.148 523.908 191.822 530.491C184.495 537.074 174.866 554.728 174.866 554.728C174.866 554.728 164.196 556.749 158.728 554.728C158.114 554.559 157.542 554.264 157.048 553.863C156.555 553.461 156.15 552.961 155.86 552.395C155.162 550.736 154.664 549 154.374 547.223C153.598 541.663 153.519 536.027 154.136 530.446C154.136 530.446 147.003 520.252 146.706 516.076C146.408 511.9 147.924 494.692 152.234 489.877C152.408 489.671 152.602 489.482 152.813 489.313C157.568 485.509 184.703 473.442 184.703 473.442C184.703 473.442 190.811 464.273 205.746 461.554C220.68 458.834 252.912 468.345 252.912 468.345L257.593 477.945L272.914 509.449Z" fill="white"/>
<path opacity="0.4" d="M154.403 547.268C153.628 541.707 153.548 536.071 154.165 530.491C154.165 530.491 147.033 520.297 146.735 516.121C146.438 511.945 147.954 494.737 152.263 489.922C147.27 499.878 148.266 515.051 155.235 510.221C163.721 504.277 172.473 516.373 172.473 516.373C163.215 521.173 156.439 537.535 154.403 547.268Z" fill="#92E3A9"/>
<path opacity="0.4" d="M272.914 509.448L229.478 514.664C229.478 514.664 199.148 523.908 191.822 530.491C184.495 537.074 174.866 554.728 174.866 554.728C174.866 554.728 164.196 556.749 158.728 554.728C163.75 553.242 171.032 547.595 172.414 540.031C174.376 529.272 192.49 519.583 191.807 511.247C191.123 502.91 177.229 489.313 177.229 489.313C185.372 487.544 192.713 492.612 192.713 492.612C189.56 488.807 185.823 485.527 181.642 482.893C197.587 481.169 200.649 492.448 200.649 492.448C205.107 493.444 215.509 489.313 215.509 489.313C215.562 485.274 216.707 481.326 218.823 477.885L223.994 485.984C229.626 485.984 248.529 480.605 257.519 477.945L272.914 509.448Z" fill="#92E3A9"/>
<path d="M155.86 552.454C158.193 557.878 174.851 554.743 174.851 554.743C174.851 554.743 184.495 537.074 191.822 530.491C199.148 523.908 229.478 514.65 229.478 514.65L272.914 509.448L252.898 468.389C252.898 468.389 220.665 458.894 205.731 461.613C190.796 464.333 184.689 473.501 184.689 473.501C184.689 473.501 157.554 485.553 152.798 489.372C148.043 493.191 146.349 511.945 146.691 516.121C147.033 520.297 154.121 530.491 154.121 530.491C154.121 530.491 152.457 544.563 155.86 552.454Z" stroke="#263238" stroke-linecap="round" stroke-linejoin="round"/>
<path d="M156.528 548.799C156.528 548.799 159.248 533.537 172.146 527.994C172.146 527.994 173.499 518.9 170.111 514.709C166.722 510.518 156.87 518.662 156.528 527.994C156.186 537.327 156.528 548.799 156.528 548.799Z" stroke="#263238" stroke-linecap="round" stroke-linejoin="round"/>
<path d="M184.689 492.493C184.689 492.493 207.321 502.657 195.492 527.935" stroke="#263238" stroke-linecap="round" stroke-linejoin="round"/>
<path d="M192.713 487.738C192.713 487.738 211.942 504.322 197.81 525.2" stroke="#263238" stroke-linecap="round" stroke-linejoin="round"/>
<path d="M218.882 484.364C217.799 491.695 217.799 499.145 218.882 506.476" stroke="#263238" stroke-linecap="round" stroke-linejoin="round"/>
<path d="M161.967 510.221C161.967 510.221 157.895 512.168 155.176 522.347" stroke="#263238" stroke-linecap="round" stroke-linejoin="round"/>
<path d="M158.564 492.493C158.564 492.493 152.798 493.28 149.752 504.693" stroke="#263238" stroke-linecap="round" stroke-linejoin="round"/>
<path d="M492.788 509.448C488.033 512.495 485.521 518.9 485.521 518.9C485.521 518.9 486.413 530.491 485.521 533.537C484.63 536.583 478.18 542.364 473.083 539.139C467.986 535.915 465.371 524.041 452.175 518.9L369.625 486.029C372.425 482.069 375.766 478.523 379.552 475.493C385.643 470.468 392.437 466.363 399.718 463.307C421.176 454.138 447.271 448.372 460.036 452.444C467.198 454.748 475.832 462.757 482.49 470.648C487.631 476.726 491.584 482.774 492.788 486.029C495.493 493.503 497.573 506.387 492.788 509.448Z" fill="white"/>
<path opacity="0.4" d="M492.788 509.448C488.033 512.495 485.521 518.9 485.521 518.9C485.521 518.9 486.413 530.491 485.521 533.537C484.63 536.583 478.18 542.364 473.083 539.139C467.986 535.915 465.371 524.041 452.175 518.9L369.625 486.029C372.425 482.069 375.766 478.523 379.552 475.493C390.861 475.493 405.751 476.563 417.951 481.615C417.951 481.615 417.119 472.446 421.874 473.486C421.874 473.486 420.671 464.214 425.798 463.753C430.924 463.292 429.721 466.725 429.721 466.725C429.721 466.725 429.721 476.072 433.867 477.959C438.013 479.847 435.576 466.948 443.541 465.15C443.541 465.15 443.987 479.683 448.653 484.394C448.653 484.394 443.348 499.715 450.585 507.309C457.822 514.902 471.389 523.952 474.361 523.655C477.333 523.358 466.366 510.132 466.366 510.132C466.366 510.132 466.574 496.654 474.896 494.009C483.218 491.363 490.455 498.14 490.455 498.14C489.196 488.635 486.532 479.37 482.549 470.648C487.691 476.726 491.644 482.774 492.847 486.029C495.493 493.503 497.573 506.387 492.788 509.448Z" fill="#92E3A9"/>
<path d="M369.611 486.029C369.611 486.029 378.244 472.461 399.718 463.307C421.191 454.153 447.271 448.372 460.036 452.444C472.801 456.516 490.068 478.569 492.728 486.029C495.388 493.488 497.484 506.387 492.728 509.448C487.973 512.51 485.477 518.885 485.477 518.885C485.477 518.885 486.368 530.491 485.477 533.537C484.585 536.583 478.136 542.364 473.053 539.139C467.971 535.915 465.326 524.041 452.13 518.885" stroke="#263238" stroke-linecap="round" stroke-linejoin="round"/>
<path d="M466.366 510.132C466.366 510.132 467.392 496.892 473.796 497.575C480.201 498.259 485.075 512.168 485.536 527.935C485.521 527.935 478.537 514.204 466.366 510.132Z" stroke="#263238" stroke-linecap="round" stroke-linejoin="round"/>
<path d="M445.279 514.65C445.279 514.65 437.849 490.784 453.75 481.63" stroke="#263238" stroke-linecap="round" stroke-linejoin="round"/>
<path d="M443.526 468.389C443.526 468.389 437.374 488.867 443.526 500.339C443.526 500.339 428.992 489.432 417.966 494.172" stroke="#263238" stroke-linecap="round" stroke-linejoin="round"/>
<path d="M430.701 494.009C430.701 494.009 428.606 486.029 428.948 481.63C429.29 477.231 423.405 472.119 425.664 466.695" stroke="#263238" stroke-linecap="round" stroke-linejoin="round"/>
<path d="M421.86 476.533C421.86 476.533 426.719 487.589 429.721 489.357" stroke="#263238" stroke-linecap="round" stroke-linejoin="round"/>
<path d="M432.618 502.657C432.618 502.657 438.741 499.953 443.541 502.657" stroke="#263238" stroke-linecap="round" stroke-linejoin="round"/>
<path d="M479.889 482.952C479.889 482.952 489.727 482.12 492.104 502.063" stroke="#263238" stroke-linecap="round" stroke-linejoin="round"/>
<path d="M335.268 339.773C335.268 339.773 311.596 326.131 330.989 276.84C350.381 227.548 408.678 212.598 421.86 197.738C421.86 197.738 416.54 349.12 335.268 339.773Z" fill="#92E3A9"/>
<path opacity="0.3" d="M411.532 211.885C404.874 224.531 384.382 240.491 361.868 278.89C350.859 298.097 341.694 318.303 334.496 339.238C330.914 336.593 316.425 323.219 327.392 287.227C327.823 300.007 332.356 307.184 332.356 307.184C330.929 257.477 411.532 211.885 411.532 211.885Z" fill="black" fill-opacity="0.7"/>
<path d="M335.268 339.773C335.268 339.773 311.596 326.131 330.989 276.84C350.381 227.548 408.678 212.598 421.86 197.738C421.86 197.738 416.54 349.12 335.268 339.773Z" stroke="#263238" stroke-linecap="round" stroke-linejoin="round"/>
<path d="M337.453 278.89C337.453 278.89 333.768 305.238 342.238 322.401L346.473 311.42C346.473 311.42 375.867 310.632 391.143 291.819" stroke="#263238" stroke-linecap="round" stroke-linejoin="round"/>
<path d="M353.532 256.555C353.532 256.555 346.859 281.238 351.57 298.491L353.532 289.872C353.532 289.872 390.37 280.332 398.202 268.964" stroke="#263238" stroke-linecap="round" stroke-linejoin="round"/>
<path d="M372.612 240.566C372.612 240.566 363.696 258.978 363.904 274.269L368.258 266.839C368.258 266.839 399.376 260.895 404.874 251.161" stroke="#263238" stroke-linecap="round" stroke-linejoin="round"/>
<path d="M391.143 224.665C384.649 233.581 376.937 253.717 376.937 253.717L384.04 245.633C384.04 245.633 401.605 241.056 408.173 232.482" stroke="#263238" stroke-linecap="round" stroke-linejoin="round"/>
<path d="M307.049 469.786C307.049 469.786 317.154 291.819 402.913 224.591C402.913 224.591 323.35 290.318 319.249 469.786H307.049Z" fill="#92E3A9"/>
<path opacity="0.3" d="M307.049 469.786C307.049 469.786 317.154 291.819 402.913 224.591C402.913 224.591 323.35 290.318 319.249 469.786H307.049Z" fill="black" fill-opacity="0.7"/>
<path d="M307.049 469.786C307.049 469.786 317.154 291.819 402.913 224.591C402.913 224.591 323.35 290.318 319.249 469.786H307.049Z" stroke="#263238" stroke-linecap="round" stroke-linejoin="round"/>
<path d="M299.024 284.27C299.024 284.27 320.2 272.069 302.843 227.979C285.486 183.888 233.356 170.514 221.572 157.229C221.572 157.229 226.327 292.577 299.024 284.27Z" fill="#92E3A9"/>
<path opacity="0.3" d="M302.903 227.949C301.978 225.568 300.86 223.267 299.559 221.069C296.899 216.611 303.601 229.822 303.735 240.491C303.831 243.16 303.321 245.815 302.242 248.258C301.164 250.701 299.545 252.867 297.508 254.594C296.171 247.609 295.443 240.283 292.099 233.997C275.069 201.84 235.303 172.698 228.987 167.899C229.671 168.76 251.441 196.133 264.325 211.885C271.235 220.37 275.827 231.07 280.374 240.922C286.14 253.449 291.311 266.185 296.438 279.024C297.152 280.822 297.924 282.605 298.593 284.389C304.359 280.793 307.509 274.105 308.847 267.433C311.046 256.035 308.431 244.251 304.79 233.254C304.21 231.456 303.601 229.688 302.903 227.949Z" fill="black" fill-opacity="0.7"/>
<path d="M299.024 284.27C299.024 284.27 320.2 272.069 302.843 227.979C285.486 183.888 233.356 170.514 221.572 157.229C221.572 157.229 226.327 292.577 299.024 284.27Z" stroke="#263238" stroke-linecap="round" stroke-linejoin="round"/>
<path d="M297.062 229.822C297.062 229.822 300.361 253.375 292.783 268.726L288.993 258.903C288.993 258.903 262.705 258.205 249.034 241.383" stroke="#263238" stroke-linecap="round" stroke-linejoin="round"/>
<path d="M282.693 209.834C282.693 209.834 288.637 231.917 284.446 247.342L282.693 239.629C282.693 239.629 249.732 231.1 242.733 220.935" stroke="#263238" stroke-linecap="round" stroke-linejoin="round"/>
<path d="M265.618 195.464C265.618 195.464 273.583 211.945 273.405 225.616L269.511 218.944C269.511 218.944 241.678 213.683 236.819 204.93" stroke="#263238" stroke-linecap="round" stroke-linejoin="round"/>
<path d="M249.034 181.303C254.859 189.342 261.754 207.293 261.754 207.293L255.349 200.071C255.349 200.071 239.642 195.97 233.772 188.302" stroke="#263238" stroke-linecap="round" stroke-linejoin="round"/>
<path d="M320.735 393.345C320.735 393.345 315.237 241.383 238.542 181.199C238.542 181.199 312.383 247.342 313.468 417.552C313.468 417.552 315.876 418.028 317.168 414.105" fill="#92E3A9"/>
<path opacity="0.3" d="M320.735 393.345C320.735 393.345 315.237 241.383 238.542 181.199C238.542 181.199 312.383 247.342 313.468 417.552C313.468 417.552 315.876 418.028 317.168 414.105" fill="black" fill-opacity="0.7"/>
<path d="M320.735 393.345C320.735 393.345 315.237 241.383 238.542 181.199C238.542 181.199 312.383 247.342 313.468 417.552C313.468 417.552 315.876 418.028 317.168 414.105" stroke="#263238" stroke-linecap="round" stroke-linejoin="round"/>
<path d="M196.725 531.382C196.725 531.382 191.614 527.34 196.725 514.709C200.649 505.035 213.414 505.511 214.112 495.391C219.343 496.044 223.519 492.582 226.223 488.347C228.928 484.112 231.112 479.029 235.63 476.8C237.116 476.117 238.602 475.745 239.969 475.017C245.334 472.164 247.191 464.451 252.987 462.698C256.405 461.658 260.417 463.069 263.552 461.479C266.688 459.889 268.233 455.535 271.636 454.049C273.097 453.604 274.586 453.261 276.095 453.024C282.113 451.449 285.992 444.108 292.218 444.271C294.016 444.345 295.948 445.074 297.553 444.271C298.816 443.647 299.574 442.205 300.882 441.7C302.007 441.433 303.184 441.479 304.285 441.834C307.761 442.582 311.381 442.282 314.687 440.972C317.659 439.62 318.342 435.682 320.155 434.79C327.363 431.239 335.447 445.074 339.622 448.536C342.06 450.572 344.809 445.371 347.974 445.49C350.857 445.608 352.328 450.067 355.181 449.71C353.859 450.75 354.617 453.054 356.073 453.901C357.629 454.552 359.305 454.871 360.992 454.837C365.093 455.268 368.793 457.422 372.36 459.518C373 459.826 373.559 460.279 373.994 460.84C374.425 461.494 374.515 462.326 374.96 462.965C375.897 464.288 378.066 464.451 378.765 465.848C378.984 466.603 379.114 467.381 379.151 468.166C379.612 470.366 382.212 471.361 384.456 471.525C386.7 471.688 389.107 471.421 391.024 472.61C392.351 473.701 393.556 474.932 394.621 476.28C399.079 480.605 404.25 480.367 408.366 485.835C412.676 491.557 415.588 497.813 421.741 501.944C432.143 508.943 435.115 518.811 437.953 527.979C440.792 537.148 400.476 559.974 319.071 565.814C237.666 571.654 195.656 537.564 196.725 531.382Z" fill="#263238"/>
<path opacity="0.4" d="M272.677 467.929C274.49 468.404 277.135 468.285 277.358 466.443C277.32 466.025 277.35 465.603 277.447 465.194C277.922 464.095 279.616 464.942 280.79 464.674C281.667 464.466 282.202 463.604 282.841 462.98C283.66 462.228 284.716 461.786 285.826 461.732C286.937 461.678 288.031 462.014 288.919 462.683C289.944 463.515 290.628 464.793 291.802 465.388C294.001 466.487 297.612 465.254 298.43 467.557" stroke="white" stroke-linecap="round" stroke-linejoin="round"/>
<path opacity="0.4" d="M304.017 479.535C304.526 479.86 305.101 480.067 305.701 480.139C306.301 480.211 306.909 480.147 307.481 479.951C308.052 479.756 308.572 479.433 309.001 479.009C309.431 478.584 309.759 478.068 309.961 477.499C310.125 476.904 310.184 476.206 310.689 475.834C311.462 475.285 312.502 476.028 313.453 476.117C315.341 476.31 316.425 474.111 317.659 472.699C318.407 471.862 319.365 471.239 320.434 470.895C321.502 470.551 322.644 470.498 323.74 470.742C324.836 470.985 325.847 471.517 326.669 472.281C327.491 473.046 328.095 474.016 328.418 475.091L339.622 478.063" stroke="white" stroke-linecap="round" stroke-linejoin="round"/>
<path opacity="0.4" d="M323.187 455.936C325.107 455.323 327.116 455.037 329.131 455.089C328.866 454.465 328.808 453.772 328.966 453.112C329.123 452.452 329.487 451.859 330.005 451.421C330.523 450.983 331.167 450.721 331.844 450.676C332.521 450.63 333.195 450.802 333.767 451.166C334.243 450.733 334.805 450.405 335.417 450.206C336.029 450.007 336.676 449.94 337.316 450.01C337.956 450.081 338.573 450.286 339.127 450.614C339.681 450.941 340.159 451.383 340.529 451.909L340.975 453.782C343.901 454.752 346.618 456.264 348.984 458.24" stroke="white" stroke-linecap="round" stroke-linejoin="round"/>
<path opacity="0.4" d="M354.29 469.905L357.262 470.782C356.771 470.009 357.693 469.058 358.599 468.88C359.506 468.882 360.406 468.726 361.259 468.419C362.151 467.884 362.418 466.755 362.998 465.893C363.577 465.031 365.034 464.541 365.524 465.447C365.405 464.496 366.46 463.723 367.426 463.753C368.396 463.881 369.308 464.283 370.056 464.912L377.665 470.202" stroke="white" stroke-linecap="round" stroke-linejoin="round"/>
<path d="M171.909 554.728C171.909 554.728 180.513 539.526 191.822 530.491C203.13 521.456 211.274 509.85 221.23 497.545C231.187 485.241 245.661 469.638 252.898 468.389C260.135 467.141 276.421 469.474 278.234 484.364C278.234 484.364 289.305 470.99 304.805 480.352C320.304 489.714 312.606 507.413 312.606 507.413C312.606 507.413 318.253 505.154 321.76 507.413C325.267 509.671 335.254 629.431 335.254 629.431C329.536 630.866 323.933 632.724 318.491 634.989C309.902 638.6 299.039 639.06 291.742 634.989C291.742 634.989 278.175 638.496 269.125 637.872C260.075 637.247 235.645 636.802 227.055 634.528C217.594 631.792 208.382 628.258 199.519 623.962C193.055 620.276 187.73 614.883 184.124 608.374C181.419 602.875 176.441 601.077 168.743 591.804C161.046 582.532 171.909 554.728 171.909 554.728Z" fill="white"/>
<path opacity="0.4" d="M321.76 507.413C318.372 505.243 312.993 507.264 312.621 507.413C313.293 505.724 313.791 503.971 314.107 502.182L304.82 521.753C304.82 521.753 290.45 540.447 285.308 548.828C280.166 557.21 284.565 558.086 278.249 571.431C271.934 584.776 262.69 610.306 252.912 612.371C243.134 614.437 222.36 607.334 218.496 597.332C214.632 587.331 223.95 580.273 235.377 565.784C246.805 551.295 251.545 545.871 250.639 539.154C249.732 532.437 272.929 491.958 274.415 489.491C273.806 490.294 270.225 495.093 265.737 501.023C267.745 497.272 269.473 493.377 270.908 489.372L249.524 480.367C249.524 480.367 228.497 502.746 239.806 511.306C246.017 516.017 252.169 516.091 257.891 511.306C253.433 517.146 249.049 522.57 246.597 525.245C239.806 532.675 238.438 540.923 235.392 545.797C232.346 550.671 220.249 570.911 209.817 578.222C199.385 585.533 193.218 587.54 184.718 582.963C178.923 579.827 175.327 562.619 173.603 552.023C172.518 553.732 171.938 554.773 171.938 554.773C171.938 554.773 161.09 582.561 168.788 591.834C176.486 601.107 181.449 602.905 184.154 608.403C187.764 614.887 193.07 620.265 199.504 623.962C208.395 628.257 217.631 631.797 227.115 634.543C235.704 636.787 260.135 637.247 269.184 637.871C278.234 638.496 291.802 634.989 291.802 634.989C299.039 639.06 309.887 638.615 318.55 634.989C323.52 632.932 328.618 631.2 333.812 629.802C334.288 629.193 334.733 628.554 335.209 627.915C333.976 614.08 325.044 509.538 321.76 507.413Z" fill="#92E3A9"/>
<path opacity="0.4" d="M285.813 489.357C285.813 489.357 264.266 514.308 279.126 525.2C293.986 536.093 310.08 515.333 310.779 498.14L285.813 489.357Z" fill="#92E3A9"/>
<path d="M335.268 629.431L333.782 629.802C328.588 631.2 323.491 632.932 318.521 634.989C309.917 638.615 299.069 639.06 291.772 634.989C291.772 634.989 278.205 638.51 269.155 637.871C260.105 637.233 235.674 636.787 227.085 634.543C217.611 631.795 208.385 628.256 199.504 623.962C193.053 620.257 187.736 614.863 184.124 608.359C181.419 602.861 176.441 601.077 168.758 591.79C161.076 582.502 171.909 554.728 171.909 554.728C171.909 554.728 172.488 553.688 173.573 551.979C176.545 547.179 183.47 537.118 191.822 530.491C203.13 521.426 211.274 509.85 221.23 497.545C231.187 485.241 245.661 469.638 252.898 468.389C260.135 467.141 276.421 469.474 278.234 484.364C278.234 484.364 289.305 470.99 304.805 480.352C314.954 486.519 315.207 496.223 314.092 502.167C313.776 503.957 313.278 505.709 312.606 507.398C312.978 507.264 318.357 505.243 321.745 507.398C325.134 509.553 333.961 614.065 335.12 627.9C335.209 628.896 335.268 629.431 335.268 629.431Z" stroke="#263238" stroke-linecap="round" stroke-linejoin="round"/>
<path d="M278.234 484.364C273.256 488.406 246.106 539.645 241.084 545.752C236.061 551.86 222.077 569.261 215.97 575.666C211.666 580.547 208.014 585.967 205.107 591.79C201.212 595.705 197.019 599.312 192.565 602.578" stroke="#263238" stroke-linecap="round" stroke-linejoin="round"/>
<path d="M312.606 507.413C308.204 514.871 304.234 522.576 300.718 530.491C296.26 540.997 283.525 567.805 278.22 578.044C272.914 588.283 264.414 611.628 258.307 615.373C252.199 619.118 243.372 627.588 237.948 626.905" stroke="#263238" stroke-linecap="round" stroke-linejoin="round"/>
<path d="M242.718 629.906C242.718 629.906 241.232 626.578 242.718 625.805" stroke="#263238" stroke-linecap="round" stroke-linejoin="round"/>
<path d="M295.621 631.541C295.621 631.541 307.851 619.846 309.545 611.301C311.239 602.757 335.254 535.514 335.254 535.514" stroke="#263238" stroke-linecap="round" stroke-linejoin="round"/>
<path d="M249.495 480.352C249.495 480.352 263.419 479.445 270.879 489.357C270.879 489.357 259.674 517.25 246.106 510.162C232.539 503.073 249.495 480.352 249.495 480.352Z" fill="white" stroke="#263238" stroke-linecap="round" stroke-linejoin="round"/>
<path d="M285.813 489.357C285.813 489.357 299.797 488.867 310.779 498.14C310.779 498.14 303.452 529.465 285.813 524.71C268.174 519.955 280.032 499.462 285.813 489.357Z" fill="white" stroke="#263238" stroke-linecap="round" stroke-linejoin="round"/>
<path d="M316.009 516.121C316.009 516.121 308.193 527.89 309.218 536.479C310.244 545.069 321.76 543.479 321.76 543.479" stroke="#263238" stroke-linecap="round" stroke-linejoin="round"/>
<path d="M257.638 545.752C257.638 545.752 267.238 552.856 276.525 554.743" stroke="#263238" stroke-linecap="round" stroke-linejoin="round"/>
<path d="M177.229 558.651C177.229 558.651 178.596 574.997 181.984 580.704C185.372 586.41 208.183 586.128 208.183 586.128" stroke="#263238" stroke-linecap="round" stroke-linejoin="round"/>
<path d="M213.874 597.318C217.654 603.993 223.485 609.272 230.503 612.371C242.391 617.676 250.624 615.343 250.624 615.343" stroke="#263238" stroke-linecap="round" stroke-linejoin="round"/>
<path d="M270.879 621.064C270.879 621.064 288.86 629.312 299.722 622.818" stroke="#263238" stroke-linecap="round" stroke-linejoin="round"/>
<path d="M220.665 518.885C220.665 518.885 224.499 527.801 232.257 529.852" stroke="#263238" stroke-linecap="round" stroke-linejoin="round"/>
<path d="M295.621 575.666C299.432 578.811 304.189 580.585 309.129 580.704" stroke="#263238" stroke-linecap="round" stroke-linejoin="round"/>
<path d="M467.332 585.444C467.332 585.444 456.469 605.119 444.938 610.558C433.406 615.997 423.895 613.961 417.119 617.988C410.343 622.016 398.796 624.096 383.193 626.815C367.59 629.535 351.867 632.923 340.722 630.887C336.863 630.149 333.136 628.836 329.666 626.994C322.171 622.848 315.38 617.542 309.545 611.271C304.002 605.58 304.478 596.411 308.208 590.229C309.017 588.725 310.125 587.402 311.464 586.341C312.803 585.28 314.345 584.505 315.995 584.062C315.995 584.062 312.265 581.09 308.059 577.33C303.497 573.259 298.415 568.236 297.018 565.056C294.284 558.948 294.967 548.1 304.448 538.59C307.175 535.82 310.461 533.663 314.087 532.261C317.712 530.86 321.594 530.246 325.475 530.461C325.475 530.461 310.942 518.573 316.648 504.663C318.714 499.641 322.399 492.998 333.619 491.096C349.683 488.377 358.733 497.545 358.733 497.545C358.733 497.545 356.192 481.615 372.39 478.227C388.587 474.839 423.895 500.621 430.701 504.024C435.59 506.462 443.258 512.049 450.466 516.492L452.189 517.562C454.181 518.751 456.127 519.836 457.926 520.698C466.322 526.805 468.863 536.45 473.098 539.139C474.292 539.812 475.654 540.13 477.022 540.056C478.391 539.983 479.71 539.52 480.825 538.723C481.108 539.154 481.375 539.57 481.598 539.972C484.971 546.079 493.115 571.951 467.332 585.444Z" fill="white"/>
<path opacity="0.4" d="M467.332 585.444C467.332 585.444 456.469 605.119 444.938 610.558C433.406 615.997 423.895 613.961 417.119 617.988C410.343 622.016 398.796 624.096 383.193 626.815C367.59 629.535 351.867 632.923 340.722 630.887C336.863 630.149 333.136 628.836 329.666 626.994C338.092 626.355 344.526 622.134 347.498 615.804C351.228 607.958 340.143 607.363 337.483 612.327C334.823 617.29 318.892 615.507 321.701 612.327C324.509 609.146 318.892 592.874 315.935 590.69C314.672 589.724 311.477 589.813 308.148 590.229C308.957 588.725 310.065 587.402 311.404 586.341C312.743 585.28 314.285 584.505 315.935 584.062C315.935 584.062 312.205 581.09 308 577.33L318.402 583.498C318.402 583.498 340.692 602.816 352.863 612.327C365.034 621.837 388.112 619.578 394.175 612.327C400.238 605.075 372.731 582.487 364.142 575.622C355.82 568.994 352.15 557.893 351.942 557.21C352.67 557.893 375.183 579.693 387.606 594.242C400.297 609.102 413.523 604.644 427.893 597.942C442.263 591.24 434.223 572.07 429.631 567.508C425.04 562.946 404.815 545.381 401.635 540.046C398.455 534.711 376.372 515.868 374.886 514.679C376.372 515.66 400.817 531.486 404.324 535.484C407.831 539.481 417 545.886 430.612 555.605C444.224 565.323 454.552 576.602 464.613 555.605C471.523 541.16 458.891 525.096 450.332 516.463L452.056 517.533C454.047 518.721 455.994 519.806 457.792 520.668C466.188 526.776 468.729 536.42 472.964 539.11C474.158 539.782 475.52 540.1 476.889 540.027C478.257 539.953 479.576 539.491 480.692 538.694C480.974 539.125 481.241 539.541 481.464 539.942C484.971 546.079 493.115 571.951 467.332 585.444Z" fill="#92E3A9"/>
<path opacity="0.4" d="M329.651 523.298C331.569 518.584 334.562 514.382 338.391 511.029C342.219 507.675 346.778 505.261 351.704 503.98C351.704 503.98 368.333 515.512 368.333 525.007C368.333 534.503 361.928 541.859 350.04 538.188C338.151 534.518 329.651 523.298 329.651 523.298Z" fill="#92E3A9"/>
<path opacity="0.4" d="M369.611 499.284C369.611 499.284 376.417 490.457 386.923 487.752C386.923 487.752 408.812 504.381 400.58 513.193C392.347 522.005 372.999 510.816 369.611 499.284Z" fill="#92E3A9"/>
<path opacity="0.4" d="M307.049 564.729C307.049 564.729 315.43 551.622 327.749 548.1C327.749 548.1 353.205 562.47 340.306 573.779C327.407 585.088 310.11 570.837 307.049 564.729Z" fill="#92E3A9"/>
<path d="M467.332 585.444C467.332 585.444 456.469 605.119 444.938 610.558C433.406 615.997 423.895 613.961 417.119 617.988C410.343 622.016 398.796 624.096 383.193 626.815C367.59 629.535 351.867 632.923 340.722 630.887C329.577 628.851 319.071 621.035 309.515 611.271C301.164 602.682 306.469 586.113 315.965 584.062C315.965 584.062 299.693 571.163 296.988 565.056C294.284 558.948 294.937 548.1 304.418 538.59C307.146 535.82 310.431 533.663 314.057 532.261C317.682 530.86 321.565 530.246 325.446 530.461C325.446 530.461 310.912 518.573 316.619 504.663C318.684 499.641 322.37 492.998 333.589 491.096C349.653 488.377 358.703 497.545 358.703 497.545C358.703 497.545 356.162 481.615 372.36 478.227C388.558 474.839 423.895 500.621 430.701 504.024C435.977 506.67 444.522 512.941 452.189 517.562C454.181 518.751 456.127 519.836 457.926 520.698C466.322 526.805 468.863 536.45 473.098 539.139C474.292 539.812 475.654 540.13 477.022 540.056C478.391 539.983 479.71 539.52 480.825 538.723C481.108 539.154 481.375 539.57 481.598 539.972C484.971 546.079 493.115 571.951 467.332 585.444Z" stroke="#263238" stroke-linecap="round" stroke-linejoin="round"/>
<path d="M358.748 497.649C361.021 502.88 381.662 521.426 390.579 526.865C399.495 532.304 424.356 559.439 431.593 563.035C438.83 566.631 445.161 577.969 453.75 580.689" stroke="#263238" stroke-linecap="round" stroke-linejoin="round"/>
<path d="M325.505 530.491C337.943 540.893 351.971 558.532 358.748 563.51C365.524 568.489 380.919 585.682 387.71 594.271C394.502 602.861 399.019 608.745 425.708 612.371" stroke="#263238" stroke-linecap="round" stroke-linejoin="round"/>
<path d="M435.16 586.128C435.16 586.128 433.361 602.474 408.411 605.58" stroke="#263238" stroke-linecap="round" stroke-linejoin="round"/>
<path d="M465.073 539.139C465.073 539.139 471.85 558.532 453.75 565.769" stroke="#263238" stroke-linecap="round" stroke-linejoin="round"/>
<path d="M316.009 584.092C316.009 584.092 333.559 598.789 340.722 602.86C347.885 606.932 357.395 617.795 364.632 620.054C369.368 621.364 374.371 621.364 379.106 620.054" stroke="#263238" stroke-linecap="round" stroke-linejoin="round"/>
<path d="M397.86 604.361C395.993 607.492 393.517 610.215 390.579 612.371" stroke="#263238" stroke-linecap="round" stroke-linejoin="round"/>
<path d="M325.505 520.638C327.416 515.919 330.407 511.714 334.236 508.359C338.066 505.004 342.628 502.594 347.558 501.32C347.558 501.32 364.187 512.851 364.187 522.362C364.187 531.873 357.767 539.199 345.879 535.528C333.99 531.858 325.505 520.638 325.505 520.638Z" fill="white" stroke="#263238" stroke-linecap="round" stroke-linejoin="round"/>
<path d="M366.891 497.649C366.891 497.649 373.697 488.822 384.203 486.103C384.203 486.103 406.108 502.732 397.86 511.559C389.613 520.386 370.294 509.107 366.891 497.649Z" fill="white" stroke="#263238" stroke-linecap="round" stroke-linejoin="round"/>
<path d="M304.805 562.381C304.805 562.381 313.171 549.259 325.505 545.752C325.505 545.752 350.946 560.122 338.062 571.431C325.178 582.74 307.866 568.489 304.805 562.381Z" fill="white" stroke="#263238" stroke-linecap="round" stroke-linejoin="round"/>
<path d="M310.779 604.941C310.779 604.941 322.578 602.548 325.475 591.79C325.475 591.79 337.542 601.107 330.587 608.359C320.363 619.043 310.779 604.941 310.779 604.941Z" fill="white" stroke="#263238" stroke-linecap="round" stroke-linejoin="round"/>
<path d="M414.058 533.537C416.126 532.391 417.905 530.787 419.257 528.848C420.61 526.908 421.5 524.684 421.86 522.347" stroke="#263238" stroke-linecap="round" stroke-linejoin="round"/>
<path d="M392.689 545.752C392.689 545.752 390.058 560.613 375.599 563.05" stroke="#263238" stroke-linecap="round" stroke-linejoin="round"/>
<path d="M356.4 580.704C356.4 580.704 350.456 589.308 341.718 591.79" stroke="#263238" stroke-linecap="round" stroke-linejoin="round"/>
<path d="M361.749 618.791C359.305 622.335 355.918 625.125 351.971 626.845" stroke="#263238" stroke-linecap="round" stroke-linejoin="round"/>
<path d="M372.419 621.064C372.572 622.078 372.52 623.113 372.264 624.106C372.009 625.099 371.556 626.031 370.933 626.845" stroke="#263238" stroke-linecap="round" stroke-linejoin="round"/>
<path d="M330.26 623.962C333.185 623.718 336.016 622.814 338.541 621.319C341.065 619.823 343.219 617.775 344.838 615.328" stroke="#263238" stroke-linecap="round" stroke-linejoin="round"/>
</svg>
