<svg width="41" height="42" viewBox="0 0 41 42" fill="none" xmlns="http://www.w3.org/2000/svg">
<path fill-rule="evenodd" clip-rule="evenodd" d="M7.81037 1.4415C7.12537 2.2665 5.70637 2.9415 4.65637 2.9415C3.60637 2.9415 2.49637 3.7285 2.18837 4.6915C2.18837 7 -1.45435e-05 6.5 0.586373 8.6245C1.49999 10.5 -0.5 11 0.174373 12.4475C1.15237 14.9965 4.07737 13.7735 4.96837 10.4425C5.85837 7.1175 8.24337 4.9415 11.0014 4.9415C13.8114 4.9415 16.8104 8.5925 16.8104 12.0145C16.8104 14.3295 17.2154 15.0085 18.4534 14.7645C21.1384 14.2365 23 10.5 21.1044 8.7565C19 8 19.7404 5.6545 19.4324 4.6915C19.1244 3.7285 18.0144 2.9415 16.9644 2.9415C15.9144 2.9415 14.4954 2.2665 13.8104 1.4415C12.2154 -0.4805 9.40537 -0.4805 7.81037 1.4415ZM27.1414 15.8545C22.2064 18.1235 20.8104 20.3525 20.8104 25.9595C20.8104 31.0195 18.7044 30.9685 17.6644 25.8825C16.5624 20.4935 12.6354 17.7835 6.44837 18.1435L1.31037 18.4415L1.00337 23.2345C0.727373 27.5595 1.03537 28.3665 4.15337 31.4845C9.78837 37.1195 14.4244 35.5345 9.73737 29.5765C8.24337 27.6765 8.04937 26.9415 9.04137 26.9415C11.2714 26.9415 16.6434 33.1575 18.1334 37.4605C18.8914 39.6505 20.0954 41.4415 20.8084 41.4415C21.5224 41.4415 22.8464 39.1705 23.7514 36.3945C25.5944 30.7385 29.4924 23.9415 30.8924 23.9415C32.4014 23.9415 31.9394 25.9625 29.8104 28.6685C25.2314 34.4895 29.7104 37.4215 35.6044 32.4615C39.5124 29.1735 40.9984 25.2855 40.6214 19.3375L40.3104 14.4415L35.8104 14.1895C33.0134 14.0325 29.7324 14.6625 27.1414 15.8545Z" fill="white"/>
</svg>
