<svg width="1440" height="432" viewBox="0 0 1440 432" fill="none" xmlns="http://www.w3.org/2000/svg">
<path fill-rule="evenodd" clip-rule="evenodd" d="M0 130H30C60 130 120 130 180 166C240 202 300 274 360 302C420 331 480 317 540 274C600 230 660 158 720 137C780 115 840 144 900 166C960 187 1020 202 1080 216C1140 230 1200 245 1260 209C1320 173 1380 86 1410 43L1440 0V432H1410C1380 432 1320 432 1260 432C1200 432 1140 432 1080 432C1020 432 960 432 900 432C840 432 780 432 720 432C660 432 600 432 540 432C480 432 420 432 360 432C300 432 240 432 180 432C120 432 60 432 30 432H0V130Z" fill="#77B188"/>
</svg>
